<?xml version="1.0" encoding="UTF-8" standalone="no"?>
<!-- Created with Inkscape (http://www.inkscape.org/) -->

<svg
   width="1310.3489"
   height="1301.3459"
   viewBox="0 0 346.69647 344.31445"
   version="1.1"
   id="svg1"
   inkscape:version="1.3.2 (091e20e, 2023-11-25, custom)"
   sodipodi:docname="desing.svg"
   xml:space="preserve"
   xmlns:inkscape="http://www.inkscape.org/namespaces/inkscape"
   xmlns:sodipodi="http://sodipodi.sourceforge.net/DTD/sodipodi-0.dtd"
   xmlns:xlink="http://www.w3.org/1999/xlink"
   xmlns="http://www.w3.org/2000/svg"
   xmlns:svg="http://www.w3.org/2000/svg"><sodipodi:namedview
     id="namedview1"
     pagecolor="#4c4c4c"
     bordercolor="#6f6f6f"
     borderopacity="1"
     inkscape:showpageshadow="false"
     inkscape:pageopacity="0.0"
     inkscape:pagecheckerboard="0"
     inkscape:deskcolor="#4c4c4c"
     inkscape:document-units="px"
     inkscape:zoom="0.20989583"
     inkscape:cx="-252.5062"
     inkscape:cy="-45.260546"
     inkscape:window-width="1920"
     inkscape:window-height="1009"
     inkscape:window-x="1912"
     inkscape:window-y="-8"
     inkscape:window-maximized="1"
     inkscape:current-layer="layer1" /><defs
     id="defs1"><linearGradient
       id="linearGradient2"
       inkscape:collect="always"><stop
         style="stop-color:#7bbb6b;stop-opacity:1;"
         offset="0.17530864"
         id="stop2" /><stop
         style="stop-color:#355728;stop-opacity:1;"
         offset="1"
         id="stop3" /></linearGradient><radialGradient
       inkscape:collect="always"
       xlink:href="#linearGradient2"
       id="radialGradient3"
       cx="254"
       cy="142.875"
       fx="254"
       fy="142.875"
       r="159.52046"
       gradientUnits="userSpaceOnUse" /></defs><g
     inkscape:label="Capa 1"
     inkscape:groupmode="layer"
     id="layer1"
     transform="translate(-80.651749,29.28223)"><g
       id="g15"
       inkscape:export-filename="..\..\..\..\Desktop\g15.svg"
       inkscape:export-xdpi="96"
       inkscape:export-ydpi="96"><circle
         style="fill:url(#radialGradient3);fill-opacity:1;stroke:none;stroke-width:1.05898;stroke-linecap:round;stroke-linejoin:round"
         id="path2"
         cx="254"
         cy="142.875"
         r="159.52046" /><path
         style="fill:#161814;fill-opacity:1;stroke-width:1.87105"
         d="m 234.70356,314.38754 c -2.72278,-0.31075 -8.08427,-1.16094 -11.91445,-1.88928 C 147.62246,298.20464 91.011874,238.83105 81.486214,164.29879 c -1.09895,-8.59867 -1.11665,-35.82381 -0.0282,-43.56434 1.92499,-13.69112 6.10625,-28.951681 11.69425,-42.681068 C 104.7047,49.669539 124.21282,24.45314 149.22652,5.5712036 181.98836,-19.159532 224.99635,-31.896594 265.39674,-28.833269 c 25.00365,1.895882 43.67803,6.913428 65.40072,17.572311 17.7909,8.7296236 31.3227,18.2595496 45.38985,31.966268 13.6558,13.305955 23.32296,26.504249 32.36925,44.192748 12.50347,24.448488 17.68647,44.704222 18.67856,72.998102 1.65291,47.13873 -14.8313,89.7766 -47.91727,123.94221 -10.24097,10.5752 -18.36465,17.4385 -29.10264,24.58752 -22.59627,15.04393 -47.73285,24.0573 -77.20801,27.68493 -8.90437,1.09588 -29.80356,1.24688 -38.30354,0.27672 z m 32.6472,-42.68192 c 0.60403,-4.82063 1.53798,-10.46419 2.07541,-12.54125 1.13745,-4.39596 7.47887,-17.90609 8.98516,-19.14251 0.84626,-0.69466 1.6016,-0.61885 4.25485,0.42698 5.51879,2.1753 16.06389,4.16674 23.98457,4.52949 4.17492,0.1912 7.42357,0.16709 7.21923,-0.0535 -0.20433,-0.22058 -3.89743,-0.71016 -8.20686,-1.08795 -9.82938,-0.86168 -14.2916,-2.00119 -21.78464,-5.5631 -10.81592,-5.14148 -17.22809,-11.15157 -22.00658,-20.62664 -2.43748,-4.83316 -3.76502,-6.01719 -2.396,-2.13699 0.53363,1.51246 0.97024,3.15813 0.97024,3.65704 0,2.51477 -6.93683,-0.5388 -9.27223,-4.08162 -1.9893,-3.01778 -1.71783,-7.38083 0.67936,-10.91854 1.0825,-1.59754 1.97359,-3.27909 1.98019,-3.73679 0.008,-0.45771 -1.32463,-3.36648 -2.95828,-6.46395 -3.57771,-6.78342 -3.65432,-8.14179 -0.98436,-17.45772 1.09226,-3.81111 2.16342,-9.0085 2.38033,-11.54978 0.34038,-3.98769 0.78519,-5.21993 3.24806,-8.998 6.97686,-10.7026 17.05207,-20.81153 24.45713,-24.53897 10.97308,-5.52345 29.38559,-7.96835 40.53578,-5.38251 6.75402,1.56632 19.63459,8.19006 24.26771,12.47952 7.22357,6.68775 15.54696,20.66025 16.64469,27.94155 0.31336,2.07842 0.94216,7.8392 1.39734,12.80174 0.76667,8.35806 0.73096,9.47653 -0.48467,15.18152 l -1.31232,6.15872 1.96147,3.63036 c 1.62442,3.00653 1.8802,4.06247 1.48851,6.14499 -0.59022,3.13811 -4.32567,7.38381 -8.02721,9.12374 -1.55102,0.72908 -3.6264,2.50456 -4.75567,4.06853 -1.90161,2.63356 -6.72445,7.53503 -12.23117,12.43052 l -2.50347,2.22561 2.90833,4.41598 c 2.6364,4.0031 3.76285,6.88726 7.29823,18.68634 l 0.98887,3.30031 -0.0754,-4.16409 -0.0754,-4.1641 7.94356,-8.04712 c 10.13051,-10.26258 15.54433,-16.59122 20.49147,-23.95409 C 420.41998,158.8391 410.58459,52.6299 319.08062,7.2215036 304.42784,-0.04987543 289.4749,-4.6025594 271.9973,-7.1138304 262.41596,-8.4905123 197.0371,-15.621983 146.23663,36.993342 91.764189,93.412103 89.839316,181.62235 143.58512,241.52656 c 4.32641,4.82215 4.71817,5.49389 4.51295,7.73857 -0.38865,4.25141 0.71761,1.74656 3.72766,-8.44036 1.60231,-5.42261 4.64255,-15.72551 6.7561,-22.89539 l 3.84284,-13.03611 14.1923,-4.70309 c 7.80576,-2.58669 14.37579,-4.88873 14.60005,-5.11568 0.22428,-0.22694 0.58629,-1.36877 0.80449,-2.53739 0.39313,-2.10545 0.34373,-2.15214 -5.43395,-5.1362 -3.20689,-1.6563 -6.94111,-4.11598 -8.29831,-5.46598 -5.17477,-5.14739 -11.40663,-20.80647 -13.30805,-33.43986 -0.54954,-3.65115 -1.24458,-7.52954 -1.54457,-8.61866 -0.99802,-3.62349 -0.78618,3.34784 0.28705,9.44625 2.1978,12.48838 5.74929,22.80785 10.27851,29.86604 1.07558,1.67612 1.95559,3.20978 1.95559,3.40811 0,0.51351 -7.24535,3.38958 -7.61295,3.022 -0.16764,-0.16766 -0.49726,-2.21142 -0.73251,-4.54175 -0.75617,-7.48991 -0.3507,-7.17904 -8.78314,-6.7342 -4.16639,0.21979 -7.29347,0.13001 -7.29298,-0.20914 4.6e-4,-0.32668 0.74303,-3.65743 1.65015,-7.40167 0.90712,-3.74425 1.64932,-7.36289 1.64932,-8.04143 0,-0.98825 -1.47735,-1.71555 -7.42575,-3.65566 -4.08415,-1.33207 -8.16576,-2.80883 -9.07024,-3.28163 l -1.64452,-0.85969 7.09007,-7.19494 c 3.89951,-3.9572 7.09004,-7.48226 7.09004,-7.83346 0,-1.33476 -4.12739,-5.56206 -7.87205,-8.06266 -2.50845,-1.67509 -5.8593,-3.12679 -9.3992,-4.0721 -3.02557,-0.80795 -5.75272,-1.70781 -6.06031,-1.99971 -0.30763,-0.29189 3.40523,-3.35471 8.25081,-6.80626 10.47013,-7.458 11.78041,-8.63248 11.78041,-10.5594 0,-2.23047 -5.22178,-9.539977 -11.61311,-16.256176 -3.15301,-3.313271 -5.61706,-6.135514 -5.47567,-6.27161 0.14146,-0.13603 6.49474,-0.744442 14.11849,-1.351838 18.15592,-1.446488 16.83168,-1.092739 16.83168,-4.496297 0,-3.580834 -1.99513,-10.789479 -4.58192,-16.554921 -1.11031,-2.474658 -2.01873,-4.768713 -2.01873,-5.097912 0,-1.542552 7.66856,0.530471 17.71913,4.78995 5.84876,2.478764 6.21341,2.552137 7.04603,1.418058 1.39399,-1.898729 3.49041,-9.740706 4.99582,-18.687737 0.76354,-4.53794 1.50149,-8.36767 1.63987,-8.510506 0.41188,-0.425067 5.9191,5.681017 12.55404,13.919138 3.4192,4.245382 6.46039,7.869457 6.75822,8.053519 0.29781,0.184114 2.59831,-1.748722 5.1122,-4.295104 5.37277,-5.442171 11.41074,-10.053986 17.60702,-13.448212 l 4.45544,-2.440633 v 6.591286 c 0,8.032861 1.08474,19.129325 2.19375,22.440753 0.73554,2.196355 1.02959,2.42565 2.92098,2.277622 1.15673,-0.09055 6.61405,-1.802151 12.12741,-3.803556 5.51334,-2.001404 10.16433,-3.498868 10.33548,-3.327689 0.1712,0.171206 -2.06406,4.407533 -4.96722,9.414107 -4.90062,8.451313 -8.74901,15.607953 -8.74901,16.270099 0,0.453019 2.43345,0.938244 11.88119,2.369007 4.90099,0.742238 9.76616,1.531253 10.81148,1.753407 1.86597,0.396554 1.72809,0.576721 -7.57,9.891413 -5.86764,5.878122 -9.22738,9.712152 -8.83127,10.077992 0.35159,0.32478 5.05527,2.45261 10.45261,4.72851 l 9.8133,4.13801 -3.54269,2.28868 c -4.59167,2.96639 -14.22642,7.5045 -19.8793,9.36349 -2.4505,0.80586 -4.45544,1.70344 -4.45544,1.99463 0,1.08892 5.361,5.31446 10.512,8.28556 2.93127,1.69074 5.32956,3.29586 5.32956,3.56692 0,0.47118 -9.17967,4.93026 -13.71052,6.65996 -1.18767,0.45339 -2.29445,1.0429 -2.45954,1.31004 -0.16503,0.26712 0.57364,2.97598 1.64162,6.01965 l 1.9418,5.534 -2.12253,0.45745 c -1.16737,0.2516 -3.50708,0.63715 -5.19935,0.85676 -4.65064,0.60355 -4.73714,2.23147 -0.4118,7.74998 1.06197,1.35496 1.75289,2.75152 1.53538,3.10346 -0.21753,0.35197 -2.52713,1.32257 -5.1325,2.15693 -4.07793,1.30594 -5.24618,2.05754 -8.39658,5.40199 -2.4578,2.6092 -4.99805,4.50063 -7.73546,5.7597 -5.6351,2.59185 -6.27379,5.39578 -2.2733,9.98016 6.36403,7.29295 20.45113,35.34131 20.66968,41.15471 0.0853,2.26723 -0.33768,2.85002 -5.7687,7.94944 l -5.86066,5.50283 7.07028,7.17487 c 3.88865,3.94618 7.07028,7.64728 7.07028,8.22466 0,0.57739 0.29703,1.23336 0.66007,1.45773 0.37777,0.23348 0.66006,-0.35399 0.66006,-1.37364 0,-1.36249 -1.47511,-3.28297 -6.27064,-8.16402 -3.44883,-3.51034 -6.27407,-6.66179 -6.27828,-7.00324 -0.004,-0.34145 2.37204,-2.85583 5.28055,-5.58753 4.53011,-4.25474 5.28817,-5.27761 5.28817,-7.13547 0,-4.48517 -10.80057,-27.93179 -16.47199,-35.75849 -1.71226,-2.36297 -3.49273,-5.00544 -3.95658,-5.87216 -0.76119,-1.42229 -0.72351,-1.53946 0.38668,-1.20261 0.67652,0.20525 5.98204,1.74825 11.79006,3.4289 5.80804,1.68064 10.7537,3.26408 10.99032,3.51876 1.28755,1.38562 13.59938,45.42384 18.02943,64.48944 1.34967,5.80857 2.58529,10.98202 2.74585,11.49652 0.67455,2.16185 1.49689,-0.77335 2.53277,-9.04018 z m -81.49207,-18.22516 c 0,-0.46404 -2.66809,-3.195 -5.92904,-6.0688 -3.261,-2.8738 -6.06131,-5.5648 -6.223,-5.97998 -0.55901,-1.43573 6.44348,-21.02683 12.41139,-34.72366 0.59316,-1.36138 0.80981,-2.47524 0.48144,-2.47524 -1.00077,0 -9.2008,19.58674 -12.90385,30.82241 -1.30908,3.97196 -1.60845,5.72636 -1.12638,6.60064 0.36116,0.65494 3.05346,3.56007 5.98293,6.45585 5.01511,4.95743 6.20677,6.98419 4.66623,7.93627 -0.36302,0.22438 -0.65067,0.7617 -0.63919,1.19406 0.0279,1.04916 3.27947,-2.68048 3.27947,-3.76155 z"
         id="path1"
         sodipodi:nodetypes="sssccssssssssssscsssssssssssscsssssssssscssssscsscccsssscsssscsssscsssssscsssssccsssssssscssssssscscsscsssssssssssscsssssssscsssssssssscssssscsssssscscccsscssssssss" /></g></g></svg>
