<?xml version="1.0" encoding="UTF-8" standalone="no"?>
<!-- Created with Inkscape (http://www.inkscape.org/) -->

<svg
   width="1714.3398"
   height="2202.8118"
   viewBox="0 0 453.58574 582.82728"
   version="1.1"
   id="svg1"
   inkscape:version="1.3.2 (091e20e, 2023-11-25, custom)"
   sodipodi:docname="desing.svg"
   xml:space="preserve"
   xmlns:inkscape="http://www.inkscape.org/namespaces/inkscape"
   xmlns:sodipodi="http://sodipodi.sourceforge.net/DTD/sodipodi-0.dtd"
   xmlns="http://www.w3.org/2000/svg"
   xmlns:svg="http://www.w3.org/2000/svg"><sodipodi:namedview
     id="namedview1"
     pagecolor="#4c4c4c"
     bordercolor="#6f6f6f"
     borderopacity="1"
     inkscape:showpageshadow="false"
     inkscape:pageopacity="0.0"
     inkscape:pagecheckerboard="0"
     inkscape:deskcolor="#4c4c4c"
     inkscape:document-units="px"
     inkscape:zoom="0.20989583"
     inkscape:cx="-252.5062"
     inkscape:cy="-45.260546"
     inkscape:window-width="1920"
     inkscape:window-height="1009"
     inkscape:window-x="1912"
     inkscape:window-y="-8"
     inkscape:window-maximized="1"
     inkscape:current-layer="layer1" /><defs
     id="defs1"><filter
       inkscape:collect="always"
       style="color-interpolation-filters:sRGB"
       id="filter64"
       x="-0.36975431"
       y="-0.24720778"
       width="1.7395086"
       height="1.4944261"><feGaussianBlur
         inkscape:collect="always"
         stdDeviation="7.7755703"
         id="feGaussianBlur64" /></filter></defs><g
     inkscape:label="Capa 1"
     inkscape:groupmode="layer"
     id="layer1"
     transform="translate(-243.73815,926.05614)"><g
       id="g64"
       transform="matrix(4.6982904,0,0,4.6982904,232.0928,-871.92453)"
       inkscape:export-filename="rickandmortyfront\rym\src\assets\svg\plumbus.svg"
       inkscape:export-xdpi="96"
       inkscape:export-ydpi="96"
       style="opacity:0.336237;fill:#000000;fill-opacity:1;stroke:#000000;stroke-width:3.71999;stroke-dasharray:none;stroke-opacity:1;filter:url(#filter64)"><path
         fill="#f599a0"
         d="m 55.008,75.508 c 0,-2.535 -1.717,-4.663 -4.049,-5.3 0.029,-0.23 0.049,-0.462 0.049,-0.7 0,-3.038 -2.462,-5.5 -5.5,-5.5 -1.501,0 -2.86,0.603 -3.852,1.577 -0.78,-2.088 -2.788,-3.577 -5.148,-3.577 -2.535,0 -4.663,1.717 -5.3,4.049 -0.23,-0.029 -0.462,-0.049 -0.7,-0.049 -3.038,0 -5.5,2.462 -5.5,5.5 0,1.159 0.36,2.232 0.972,3.119 -1.764,0.916 -2.972,2.756 -2.972,4.881 0,3.038 2.462,5.5 5.5,5.5 0.636,0 1.244,-0.113 1.812,-0.312 -0.198,0.568 -0.312,1.176 -0.312,1.812 0,3.038 2.462,5.5 5.5,5.5 2.69,0 4.926,-1.933 5.403,-4.485 0.983,1.496 2.674,2.485 4.597,2.485 3.038,0 5.5,-2.462 5.5,-5.5 0,-1.335 -0.476,-2.559 -1.268,-3.512 2.929,-0.122 5.268,-2.529 5.268,-5.488 z"
         id="path33"
         style="fill:#000000;fill-opacity:1;stroke:#000000;stroke-width:3.71999;stroke-dasharray:none;stroke-opacity:1" /><path
         fill="#f05b6c"
         d="m 69.363,27.334 c 0,0 5.63,-1.878 5.132,-3.521 -0.34,-1.078 -5.826,0.989 -5.826,0.989 z"
         id="path34"
         style="fill:#000000;fill-opacity:1;stroke:#000000;stroke-width:3.71999;stroke-dasharray:none;stroke-opacity:1" /><path
         fill="#f05b6c"
         d="m 69.5,30.5 c 0,0 9,-0.314 9,1 -0.117,1.341 -9,1 -9,1 0,0 5,1 5,2 0,1 -5.662,1.175 -5.831,1.088 C 68.5,35.5 67.5,33.037 67.5,33.037 Z"
         id="path35"
         style="fill:#000000;fill-opacity:1;stroke:#000000;stroke-width:3.71999;stroke-dasharray:none;stroke-opacity:1" /><path
         fill="#f05b6c"
         d="m 67.5,39.467 c 0,0 7.497,5.12 8,2.033 0.322,-1.974 -7,-5 -7,-5 z"
         id="path36"
         style="fill:#000000;fill-opacity:1;stroke:#000000;stroke-width:3.71999;stroke-dasharray:none;stroke-opacity:1" /><path
         fill="#f05b6c"
         d="m 65.493,41.573 c 0,0 4.925,8.225 6.863,5.427 C 73.63,45.162 66,37 66,37 Z"
         id="path37"
         style="fill:#000000;fill-opacity:1;stroke:#000000;stroke-width:3.71999;stroke-dasharray:none;stroke-opacity:1" /><path
         fill="#f05b6c"
         d="m 62.5,46.5 c 0,0 3,5 4,4 1,-1 -2,-7 -2,-7 z"
         id="path38"
         style="fill:#000000;fill-opacity:1;stroke:#000000;stroke-width:3.71999;stroke-dasharray:none;stroke-opacity:1" /><path
         fill="none"
         stroke="#1f212b"
         stroke-linecap="round"
         stroke-linejoin="round"
         stroke-miterlimit="10"
         d="m 69.363,27.334 c 0,0 5.63,-1.878 5.132,-3.521 -0.34,-1.078 -5.826,0.989 -5.826,0.989 z"
         id="path39"
         style="fill:#000000;fill-opacity:1;stroke:#000000;stroke-width:3.71999;stroke-dasharray:none;stroke-opacity:1" /><path
         fill="none"
         stroke="#1f212b"
         stroke-linecap="round"
         stroke-linejoin="round"
         stroke-miterlimit="10"
         d="m 69.5,30.5 c 0,0 9,-0.314 9,1 -0.117,1.341 -9,1 -9,1 0,0 5,1 5,2 0,1 -5.662,1.175 -5.831,1.088 C 68.5,35.5 67.5,33.037 67.5,33.037 Z"
         id="path40"
         style="fill:#000000;fill-opacity:1;stroke:#000000;stroke-width:3.71999;stroke-dasharray:none;stroke-opacity:1" /><path
         fill="none"
         stroke="#1f212b"
         stroke-linecap="round"
         stroke-linejoin="round"
         stroke-miterlimit="10"
         d="m 67.5,39.467 c 0,0 7.497,5.12 8,2.033 0.322,-1.974 -7,-5 -7,-5 z"
         id="path41"
         style="fill:#000000;fill-opacity:1;stroke:#000000;stroke-width:3.71999;stroke-dasharray:none;stroke-opacity:1" /><path
         fill="none"
         stroke="#1f212b"
         stroke-linecap="round"
         stroke-linejoin="round"
         stroke-miterlimit="10"
         d="m 65.493,41.573 c 0,0 4.925,8.225 6.863,5.427 C 73.63,45.162 66,37 66,37 Z"
         id="path42"
         style="fill:#000000;fill-opacity:1;stroke:#000000;stroke-width:3.71999;stroke-dasharray:none;stroke-opacity:1" /><path
         fill="none"
         stroke="#1f212b"
         stroke-linecap="round"
         stroke-linejoin="round"
         stroke-miterlimit="10"
         d="m 62.5,46.5 c 0,0 3,5 4,4 1,-1 -2,-7 -2,-7 z"
         id="path43"
         style="fill:#000000;fill-opacity:1;stroke:#000000;stroke-width:3.71999;stroke-dasharray:none;stroke-opacity:1" /><path
         fill="#f3cbca"
         d="m 46.514,64.304 4.59,-12.728 c 0.113,0.032 0.226,0.063 0.34,0.092 l 0.192,0.052 0.003,-0.013 c 0.391,0.093 0.783,0.184 1.188,0.237 8.44,1.117 16.44,-6.885 17.869,-17.873 1.31,-10.075 -3.368,-19.141 -10.66,-21.442 l 0.002,-0.01 -0.157,-0.043 C 59.666,12.511 59.449,12.452 59.23,12.399 L 49.037,9.637 C 48.71,9.533 48.378,9.443 48.04,9.367 L 47.669,9.293 v 0 C 47.44,9.249 47.217,9.187 46.983,9.156 38.55,8.038 30.557,16.04 29.13,27.027 c -0.662,5.101 0.207,9.945 2.173,13.784 l -1.491,4.332 4.325,4.725 5.24,-1.227 2.828,0.521 -3.417,13.172 3.084,2.422 z"
         id="path44"
         style="fill:#000000;fill-opacity:1;stroke:#000000;stroke-width:3.71999;stroke-dasharray:none;stroke-opacity:1" /><path
         fill="none"
         stroke="#1f212b"
         stroke-linecap="round"
         stroke-linejoin="round"
         stroke-miterlimit="10"
         stroke-width="2"
         d="m 39.488,48.3 c 0.144,0.048 0.495,0.165 0.669,0.215 l -0.003,0.015 2.14,0.58"
         id="path45"
         style="fill:#000000;fill-opacity:1;stroke:#000000;stroke-width:3.71999;stroke-dasharray:none;stroke-opacity:1" /><path
         fill="none"
         stroke="#1f212b"
         stroke-linecap="round"
         stroke-linejoin="round"
         stroke-miterlimit="10"
         stroke-width="2"
         d="m 50.46,51.325 0.733,0.199 c 0.113,0.032 0.226,0.063 0.34,0.092 l 0.192,0.052 0.003,-0.013 c 0.391,0.093 0.783,0.184 1.188,0.237 8.44,1.117 16.44,-6.885 17.869,-17.873 1.31,-10.075 -3.368,-19.141 -10.66,-21.442 l 0.002,-0.01 -0.157,-0.043 C 59.755,12.459 59.538,12.4 59.319,12.347 L 49.126,9.584 C 48.799,9.48 48.467,9.39 48.129,9.314 L 47.758,9.24 v 0 C 47.529,9.196 47.306,9.134 47.072,9.103 38.64,7.986 30.647,15.988 29.22,26.976 c -0.662,5.101 0.207,9.945 2.173,13.784"
         id="path46"
         style="fill:#000000;fill-opacity:1;stroke:#000000;stroke-width:3.71999;stroke-dasharray:none;stroke-opacity:1" /><path
         fill="none"
         stroke="#1f212b"
         stroke-linecap="round"
         stroke-linejoin="round"
         stroke-miterlimit="10"
         d="m 59.964,26.89 c 0.041,1.34 -0.025,2.721 -0.208,4.13 -1.427,10.988 -9.451,18.578 -17.883,17.461 m 16.47,-29.413 c 0.508,1.232 0.907,2.551 1.183,3.938 M 47.072,9.592 c 4.216,0.558 7.744,3.168 10.039,7.012"
         id="path47"
         style="fill:#000000;fill-opacity:1;stroke:#000000;stroke-width:3.71999;stroke-dasharray:none;stroke-opacity:1" /><path
         fill="none"
         stroke="#1f212b"
         stroke-linecap="round"
         stroke-linejoin="round"
         stroke-miterlimit="10"
         d="m 30.5,66.511 c 1.173,0 2.261,0.367 3.153,0.993"
         id="path48"
         style="fill:#000000;fill-opacity:1;stroke:#000000;stroke-width:3.71999;stroke-dasharray:none;stroke-opacity:1" /><path
         fill="none"
         stroke="#1f212b"
         stroke-linecap="round"
         stroke-linejoin="round"
         stroke-miterlimit="10"
         d="m 23,80.107 c 0,-3.038 2.462,-5.5 5.5,-5.5"
         id="path49"
         style="fill:#000000;fill-opacity:1;stroke:#000000;stroke-width:3.71999;stroke-dasharray:none;stroke-opacity:1" /><path
         fill="none"
         stroke="#1f212b"
         stroke-linecap="round"
         stroke-linejoin="round"
         stroke-miterlimit="10"
         stroke-width="2"
         d="m 55.008,75.508 c 0,-2.535 -1.717,-4.663 -4.049,-5.3 0.029,-0.23 0.049,-0.462 0.049,-0.7 0,-3.038 -2.462,-5.5 -5.5,-5.5 -1.501,0 -2.86,0.603 -3.852,1.577 -0.78,-2.088 -2.788,-3.577 -5.148,-3.577 -2.535,0 -4.663,1.717 -5.3,4.049 -0.23,-0.029 -0.462,-0.049 -0.7,-0.049 -3.038,0 -5.5,2.462 -5.5,5.5 0,1.159 0.36,2.232 0.972,3.119 -1.764,0.916 -2.972,2.756 -2.972,4.881 0,3.038 2.462,5.5 5.5,5.5 0.636,0 1.244,-0.113 1.812,-0.312 -0.198,0.568 -0.312,1.176 -0.312,1.812 0,3.038 2.462,5.5 5.5,5.5 2.69,0 4.926,-1.933 5.403,-4.485 0.983,1.496 2.674,2.485 4.597,2.485 3.038,0 5.5,-2.462 5.5,-5.5 0,-1.335 -0.476,-2.559 -1.268,-3.512 2.929,-0.122 5.268,-2.529 5.268,-5.488 z"
         id="path50"
         style="fill:#000000;fill-opacity:1;stroke:#000000;stroke-width:3.71999;stroke-dasharray:none;stroke-opacity:1" /><path
         fill="none"
         stroke="#1f212b"
         stroke-linecap="round"
         stroke-linejoin="round"
         stroke-miterlimit="10"
         d="m 45.324,89.569 c -2.819,0 -5.105,-2.286 -5.105,-5.105"
         id="path51"
         style="fill:#000000;fill-opacity:1;stroke:#000000;stroke-width:3.71999;stroke-dasharray:none;stroke-opacity:1" /><path
         fill="none"
         stroke="#1f212b"
         stroke-linecap="round"
         stroke-linejoin="round"
         stroke-miterlimit="10"
         d="m 49.913,80.501 c -1.525,0 -2.284,-0.365 -3.101,-1.032"
         id="path52"
         style="fill:#000000;fill-opacity:1;stroke:#000000;stroke-width:3.71999;stroke-dasharray:none;stroke-opacity:1" /><path
         fill="none"
         stroke="#1f212b"
         stroke-linecap="round"
         stroke-linejoin="round"
         stroke-miterlimit="10"
         d="m 50.56,69.287 c 0,1.575 -0.703,2.986 -1.812,3.936"
         id="path53"
         style="fill:#000000;fill-opacity:1;stroke:#000000;stroke-width:3.71999;stroke-dasharray:none;stroke-opacity:1" /><path
         fill="none"
         stroke="#1f212b"
         stroke-linecap="round"
         stroke-linejoin="round"
         stroke-miterlimit="10"
         d="m 33.5,79.5 c -1.839,0 -3.447,-0.993 -4.315,-2.473"
         id="path54"
         style="fill:#000000;fill-opacity:1;stroke:#000000;stroke-width:3.71999;stroke-dasharray:none;stroke-opacity:1" /><path
         fill="none"
         stroke="#1f212b"
         stroke-linecap="round"
         stroke-linejoin="round"
         stroke-miterlimit="10"
         d="m 29.953,70.976 c 0.906,-0.911 2.16,-1.476 3.547,-1.476 2.761,0 5,2.239 5,5"
         id="path55"
         style="fill:#000000;fill-opacity:1;stroke:#000000;stroke-width:3.71999;stroke-dasharray:none;stroke-opacity:1" /><path
         fill="none"
         stroke="#1f212b"
         stroke-linecap="round"
         stroke-linejoin="round"
         stroke-miterlimit="10"
         d="M 36.983,84.841 C 36.252,85.26 35.404,85.5 34.5,85.5 c -2.761,0 -5,-2.239 -5,-5"
         id="path56"
         style="fill:#000000;fill-opacity:1;stroke:#000000;stroke-width:3.71999;stroke-dasharray:none;stroke-opacity:1" /><path
         fill="none"
         stroke="#1f212b"
         stroke-linecap="round"
         stroke-linejoin="round"
         stroke-miterlimit="10"
         stroke-width="2"
         d="m 50.398,51.41 c -1.165,4.214 -2.331,8.427 -3.496,12.641"
         id="path57"
         style="fill:#000000;fill-opacity:1;stroke:#000000;stroke-width:3.71999;stroke-dasharray:none;stroke-opacity:1" /><line
         x1="38.360001"
         x2="42.266998"
         y1="62.252998"
         y2="49.176998"
         fill="none"
         stroke="#1f212b"
         stroke-linecap="round"
         stroke-linejoin="round"
         stroke-miterlimit="10"
         stroke-width="2"
         id="line57"
         style="fill:#000000;fill-opacity:1;stroke:#000000;stroke-width:3.71999;stroke-dasharray:none;stroke-opacity:1" /><path
         fill="none"
         stroke="#1f212b"
         stroke-linecap="round"
         stroke-linejoin="round"
         stroke-miterlimit="10"
         d="m 42.209,48.922 c 2.165,-0.321 5.616,0.149 8.508,2.043"
         id="path58"
         style="fill:#000000;fill-opacity:1;stroke:#000000;stroke-width:3.71999;stroke-dasharray:none;stroke-opacity:1" /><path
         fill="none"
         stroke="#1f212b"
         stroke-linecap="round"
         stroke-linejoin="round"
         stroke-miterlimit="10"
         d="M 36.706,32.066 C 36.572,31.566 36.5,31.042 36.5,30.5 c 0,-3.314 2.686,-6 6,-6"
         id="path59"
         style="fill:#000000;fill-opacity:1;stroke:#000000;stroke-width:3.71999;stroke-dasharray:none;stroke-opacity:1" /><path
         fill="none"
         stroke="#1f212b"
         stroke-linecap="round"
         stroke-linejoin="round"
         stroke-miterlimit="10"
         d="m 48.5,30.5 c 0,3.314 -2.686,6 -6,6 -0.951,0 -1.849,-0.221 -2.648,-0.615"
         id="path60"
         style="fill:#000000;fill-opacity:1;stroke:#000000;stroke-width:3.71999;stroke-dasharray:none;stroke-opacity:1" /><path
         fill="none"
         stroke="#1f212b"
         stroke-linecap="round"
         stroke-linejoin="round"
         stroke-miterlimit="10"
         d="m 38.635,40.605 c 1.137,0.917 1.865,2.321 1.865,3.895 0,2.761 -2.239,5 -5,5 -2.761,0 -5,-2.239 -5,-5 0,-2.461 1.778,-4.507 4.12,-4.923"
         id="path61"
         style="fill:#000000;fill-opacity:1;stroke:#000000;stroke-width:3.71999;stroke-dasharray:none;stroke-opacity:1" /><path
         fill="none"
         stroke="#1f212b"
         stroke-linecap="round"
         stroke-linejoin="round"
         stroke-miterlimit="10"
         stroke-width="2"
         d="m 39.466,48.424 c -1.005,0.967 -2.371,1.562 -3.876,1.562 -3.088,0 -5.591,-2.503 -5.591,-5.591 0,-1.37 0.492,-2.624 1.31,-3.596"
         id="path62"
         style="fill:#000000;fill-opacity:1;stroke:#000000;stroke-width:3.71999;stroke-dasharray:none;stroke-opacity:1" /><path
         fill="none"
         stroke="#1f212b"
         stroke-linecap="round"
         stroke-linejoin="round"
         stroke-miterlimit="10"
         d="m 34.5,41.5 c 0,0 0,-5.389 2.27,-9.553 0.472,-0.865 1.042,-1.678 1.73,-2.378"
         id="path63"
         style="fill:#000000;fill-opacity:1;stroke:#000000;stroke-width:3.71999;stroke-dasharray:none;stroke-opacity:1" /><path
         fill="none"
         stroke="#1f212b"
         stroke-linecap="round"
         stroke-linejoin="round"
         stroke-miterlimit="10"
         d="m 38.635,40.606 c 0.272,-2.276 1.094,-6.017 3.574,-7.856"
         id="path64"
         style="fill:#000000;fill-opacity:1;stroke:#000000;stroke-width:3.71999;stroke-dasharray:none;stroke-opacity:1" /></g><g
       id="g1"
       transform="matrix(4.6982904,0,0,4.6982904,232.0928,-871.92453)"
       inkscape:export-filename="rickandmortyfront\rym\src\assets\svg\plumbus.svg"
       inkscape:export-xdpi="96"
       inkscape:export-ydpi="96"><path
         fill="#f599a0"
         d="m 55.008,75.508 c 0,-2.535 -1.717,-4.663 -4.049,-5.3 0.029,-0.23 0.049,-0.462 0.049,-0.7 0,-3.038 -2.462,-5.5 -5.5,-5.5 -1.501,0 -2.86,0.603 -3.852,1.577 -0.78,-2.088 -2.788,-3.577 -5.148,-3.577 -2.535,0 -4.663,1.717 -5.3,4.049 -0.23,-0.029 -0.462,-0.049 -0.7,-0.049 -3.038,0 -5.5,2.462 -5.5,5.5 0,1.159 0.36,2.232 0.972,3.119 -1.764,0.916 -2.972,2.756 -2.972,4.881 0,3.038 2.462,5.5 5.5,5.5 0.636,0 1.244,-0.113 1.812,-0.312 -0.198,0.568 -0.312,1.176 -0.312,1.812 0,3.038 2.462,5.5 5.5,5.5 2.69,0 4.926,-1.933 5.403,-4.485 0.983,1.496 2.674,2.485 4.597,2.485 3.038,0 5.5,-2.462 5.5,-5.5 0,-1.335 -0.476,-2.559 -1.268,-3.512 2.929,-0.122 5.268,-2.529 5.268,-5.488 z"
         id="path1-0" /><path
         fill="#f05b6c"
         d="m 69.363,27.334 c 0,0 5.63,-1.878 5.132,-3.521 -0.34,-1.078 -5.826,0.989 -5.826,0.989 z"
         id="path2-6" /><path
         fill="#f05b6c"
         d="m 69.5,30.5 c 0,0 9,-0.314 9,1 -0.117,1.341 -9,1 -9,1 0,0 5,1 5,2 0,1 -5.662,1.175 -5.831,1.088 C 68.5,35.5 67.5,33.037 67.5,33.037 Z"
         id="path3" /><path
         fill="#f05b6c"
         d="m 67.5,39.467 c 0,0 7.497,5.12 8,2.033 0.322,-1.974 -7,-5 -7,-5 z"
         id="path4" /><path
         fill="#f05b6c"
         d="m 65.493,41.573 c 0,0 4.925,8.225 6.863,5.427 C 73.63,45.162 66,37 66,37 Z"
         id="path5" /><path
         fill="#f05b6c"
         d="m 62.5,46.5 c 0,0 3,5 4,4 1,-1 -2,-7 -2,-7 z"
         id="path6" /><path
         fill="none"
         stroke="#1f212b"
         stroke-linecap="round"
         stroke-linejoin="round"
         stroke-miterlimit="10"
         d="m 69.363,27.334 c 0,0 5.63,-1.878 5.132,-3.521 -0.34,-1.078 -5.826,0.989 -5.826,0.989 z"
         id="path7"
         style="stroke:#2b2d29;stroke-opacity:1" /><path
         fill="none"
         stroke="#1f212b"
         stroke-linecap="round"
         stroke-linejoin="round"
         stroke-miterlimit="10"
         d="m 69.5,30.5 c 0,0 9,-0.314 9,1 -0.117,1.341 -9,1 -9,1 0,0 5,1 5,2 0,1 -5.662,1.175 -5.831,1.088 C 68.5,35.5 67.5,33.037 67.5,33.037 Z"
         id="path8"
         style="stroke:#2b2d29;stroke-opacity:1" /><path
         fill="none"
         stroke="#1f212b"
         stroke-linecap="round"
         stroke-linejoin="round"
         stroke-miterlimit="10"
         d="m 67.5,39.467 c 0,0 7.497,5.12 8,2.033 0.322,-1.974 -7,-5 -7,-5 z"
         id="path9"
         style="stroke:#2b2d29;stroke-opacity:1" /><path
         fill="none"
         stroke="#1f212b"
         stroke-linecap="round"
         stroke-linejoin="round"
         stroke-miterlimit="10"
         d="m 65.493,41.573 c 0,0 4.925,8.225 6.863,5.427 C 73.63,45.162 66,37 66,37 Z"
         id="path10"
         style="stroke:#2b2d29;stroke-opacity:1" /><path
         fill="none"
         stroke="#1f212b"
         stroke-linecap="round"
         stroke-linejoin="round"
         stroke-miterlimit="10"
         d="m 62.5,46.5 c 0,0 3,5 4,4 1,-1 -2,-7 -2,-7 z"
         id="path11"
         style="stroke:#2b2d29;stroke-opacity:1" /><path
         fill="#f3cbca"
         d="m 46.514,64.304 4.59,-12.728 c 0.113,0.032 0.226,0.063 0.34,0.092 l 0.192,0.052 0.003,-0.013 c 0.391,0.093 0.783,0.184 1.188,0.237 8.44,1.117 16.44,-6.885 17.869,-17.873 1.31,-10.075 -3.368,-19.141 -10.66,-21.442 l 0.002,-0.01 -0.157,-0.043 C 59.666,12.511 59.449,12.452 59.23,12.399 L 49.037,9.637 C 48.71,9.533 48.378,9.443 48.04,9.367 L 47.669,9.293 v 0 C 47.44,9.249 47.217,9.187 46.983,9.156 38.55,8.038 30.557,16.04 29.13,27.027 c -0.662,5.101 0.207,9.945 2.173,13.784 l -1.491,4.332 4.325,4.725 5.24,-1.227 2.828,0.521 -3.417,13.172 3.084,2.422 z"
         id="path12" /><path
         fill="none"
         stroke="#1f212b"
         stroke-linecap="round"
         stroke-linejoin="round"
         stroke-miterlimit="10"
         stroke-width="2"
         d="m 39.488,48.3 c 0.144,0.048 0.495,0.165 0.669,0.215 l -0.003,0.015 2.14,0.58"
         id="path13"
         style="stroke:#2b2d29;stroke-opacity:1" /><path
         fill="none"
         stroke="#1f212b"
         stroke-linecap="round"
         stroke-linejoin="round"
         stroke-miterlimit="10"
         stroke-width="2"
         d="m 50.46,51.325 0.733,0.199 c 0.113,0.032 0.226,0.063 0.34,0.092 l 0.192,0.052 0.003,-0.013 c 0.391,0.093 0.783,0.184 1.188,0.237 8.44,1.117 16.44,-6.885 17.869,-17.873 1.31,-10.075 -3.368,-19.141 -10.66,-21.442 l 0.002,-0.01 -0.157,-0.043 C 59.755,12.459 59.538,12.4 59.319,12.347 L 49.126,9.584 C 48.799,9.48 48.467,9.39 48.129,9.314 L 47.758,9.24 v 0 C 47.529,9.196 47.306,9.134 47.072,9.103 38.64,7.986 30.647,15.988 29.22,26.976 c -0.662,5.101 0.207,9.945 2.173,13.784"
         id="path14"
         style="stroke:#2b2d29;stroke-opacity:1" /><path
         fill="none"
         stroke="#1f212b"
         stroke-linecap="round"
         stroke-linejoin="round"
         stroke-miterlimit="10"
         d="m 59.964,26.89 c 0.041,1.34 -0.025,2.721 -0.208,4.13 -1.427,10.988 -9.451,18.578 -17.883,17.461 m 16.47,-29.413 c 0.508,1.232 0.907,2.551 1.183,3.938 M 47.072,9.592 c 4.216,0.558 7.744,3.168 10.039,7.012"
         id="path15"
         style="stroke:#2b2d29;stroke-opacity:1" /><path
         fill="none"
         stroke="#1f212b"
         stroke-linecap="round"
         stroke-linejoin="round"
         stroke-miterlimit="10"
         d="m 30.5,66.511 c 1.173,0 2.261,0.367 3.153,0.993"
         id="path16" /><path
         fill="none"
         stroke="#1f212b"
         stroke-linecap="round"
         stroke-linejoin="round"
         stroke-miterlimit="10"
         d="m 23,80.107 c 0,-3.038 2.462,-5.5 5.5,-5.5"
         id="path17" /><path
         fill="none"
         stroke="#1f212b"
         stroke-linecap="round"
         stroke-linejoin="round"
         stroke-miterlimit="10"
         stroke-width="2"
         d="m 55.008,75.508 c 0,-2.535 -1.717,-4.663 -4.049,-5.3 0.029,-0.23 0.049,-0.462 0.049,-0.7 0,-3.038 -2.462,-5.5 -5.5,-5.5 -1.501,0 -2.86,0.603 -3.852,1.577 -0.78,-2.088 -2.788,-3.577 -5.148,-3.577 -2.535,0 -4.663,1.717 -5.3,4.049 -0.23,-0.029 -0.462,-0.049 -0.7,-0.049 -3.038,0 -5.5,2.462 -5.5,5.5 0,1.159 0.36,2.232 0.972,3.119 -1.764,0.916 -2.972,2.756 -2.972,4.881 0,3.038 2.462,5.5 5.5,5.5 0.636,0 1.244,-0.113 1.812,-0.312 -0.198,0.568 -0.312,1.176 -0.312,1.812 0,3.038 2.462,5.5 5.5,5.5 2.69,0 4.926,-1.933 5.403,-4.485 0.983,1.496 2.674,2.485 4.597,2.485 3.038,0 5.5,-2.462 5.5,-5.5 0,-1.335 -0.476,-2.559 -1.268,-3.512 2.929,-0.122 5.268,-2.529 5.268,-5.488 z"
         id="path18"
         style="stroke:#2b2d29;stroke-opacity:1" /><path
         fill="none"
         stroke="#1f212b"
         stroke-linecap="round"
         stroke-linejoin="round"
         stroke-miterlimit="10"
         d="m 45.324,89.569 c -2.819,0 -5.105,-2.286 -5.105,-5.105"
         id="path19"
         style="stroke:#2b2d29;stroke-opacity:1" /><path
         fill="none"
         stroke="#1f212b"
         stroke-linecap="round"
         stroke-linejoin="round"
         stroke-miterlimit="10"
         d="m 49.913,80.501 c -1.525,0 -2.284,-0.365 -3.101,-1.032"
         id="path20"
         style="stroke:#2b2d29;stroke-opacity:1" /><path
         fill="none"
         stroke="#1f212b"
         stroke-linecap="round"
         stroke-linejoin="round"
         stroke-miterlimit="10"
         d="m 50.56,69.287 c 0,1.575 -0.703,2.986 -1.812,3.936"
         id="path21"
         style="stroke:#2b2d29;stroke-opacity:1" /><path
         fill="none"
         stroke="#1f212b"
         stroke-linecap="round"
         stroke-linejoin="round"
         stroke-miterlimit="10"
         d="m 33.5,79.5 c -1.839,0 -3.447,-0.993 -4.315,-2.473"
         id="path22"
         style="stroke:#2b2d29;stroke-opacity:1" /><path
         fill="none"
         stroke="#1f212b"
         stroke-linecap="round"
         stroke-linejoin="round"
         stroke-miterlimit="10"
         d="m 29.953,70.976 c 0.906,-0.911 2.16,-1.476 3.547,-1.476 2.761,0 5,2.239 5,5"
         id="path23"
         style="stroke:#2b2d29;stroke-opacity:1" /><path
         fill="none"
         stroke="#1f212b"
         stroke-linecap="round"
         stroke-linejoin="round"
         stroke-miterlimit="10"
         d="M 36.983,84.841 C 36.252,85.26 35.404,85.5 34.5,85.5 c -2.761,0 -5,-2.239 -5,-5"
         id="path24"
         style="stroke:#2b2d29;stroke-opacity:1" /><path
         fill="none"
         stroke="#1f212b"
         stroke-linecap="round"
         stroke-linejoin="round"
         stroke-miterlimit="10"
         stroke-width="2"
         d="m 50.398,51.41 c -1.165,4.214 -2.331,8.427 -3.496,12.641"
         id="path25"
         style="stroke:#2b2d29;stroke-opacity:1" /><line
         x1="38.360001"
         x2="42.266998"
         y1="62.252998"
         y2="49.176998"
         fill="none"
         stroke="#1f212b"
         stroke-linecap="round"
         stroke-linejoin="round"
         stroke-miterlimit="10"
         stroke-width="2"
         id="line25"
         style="stroke:#2b2d29;stroke-opacity:1" /><path
         fill="none"
         stroke="#1f212b"
         stroke-linecap="round"
         stroke-linejoin="round"
         stroke-miterlimit="10"
         d="m 42.209,48.922 c 2.165,-0.321 5.616,0.149 8.508,2.043"
         id="path26"
         style="stroke:#2b2d29;stroke-opacity:1" /><path
         fill="none"
         stroke="#1f212b"
         stroke-linecap="round"
         stroke-linejoin="round"
         stroke-miterlimit="10"
         d="M 36.706,32.066 C 36.572,31.566 36.5,31.042 36.5,30.5 c 0,-3.314 2.686,-6 6,-6"
         id="path27" /><path
         fill="none"
         stroke="#1f212b"
         stroke-linecap="round"
         stroke-linejoin="round"
         stroke-miterlimit="10"
         d="m 48.5,30.5 c 0,3.314 -2.686,6 -6,6 -0.951,0 -1.849,-0.221 -2.648,-0.615"
         id="path28"
         style="stroke:#2b2d29;stroke-opacity:1" /><path
         fill="none"
         stroke="#1f212b"
         stroke-linecap="round"
         stroke-linejoin="round"
         stroke-miterlimit="10"
         d="m 38.635,40.605 c 1.137,0.917 1.865,2.321 1.865,3.895 0,2.761 -2.239,5 -5,5 -2.761,0 -5,-2.239 -5,-5 0,-2.461 1.778,-4.507 4.12,-4.923"
         id="path29"
         style="stroke:#2b2d29;stroke-opacity:1" /><path
         fill="none"
         stroke="#1f212b"
         stroke-linecap="round"
         stroke-linejoin="round"
         stroke-miterlimit="10"
         stroke-width="2"
         d="m 39.466,48.424 c -1.005,0.967 -2.371,1.562 -3.876,1.562 -3.088,0 -5.591,-2.503 -5.591,-5.591 0,-1.37 0.492,-2.624 1.31,-3.596"
         id="path30"
         style="stroke:#2b2d29;stroke-opacity:1" /><path
         fill="none"
         stroke="#1f212b"
         stroke-linecap="round"
         stroke-linejoin="round"
         stroke-miterlimit="10"
         d="m 34.5,41.5 c 0,0 0,-5.389 2.27,-9.553 0.472,-0.865 1.042,-1.678 1.73,-2.378"
         id="path31"
         style="stroke:#2b2d29;stroke-opacity:1" /><path
         fill="none"
         stroke="#1f212b"
         stroke-linecap="round"
         stroke-linejoin="round"
         stroke-miterlimit="10"
         d="m 38.635,40.606 c 0.272,-2.276 1.094,-6.017 3.574,-7.856"
         id="path32"
         style="stroke:#2b2d29;stroke-opacity:1" /></g></g></svg>
