<?xml version="1.0" encoding="UTF-8" standalone="no"?>
<!-- Created with Inkscape (http://www.inkscape.org/) -->

<svg
   width="1883.928"
   height="3378.7725"
   viewBox="0 0 498.45593 893.96688"
   version="1.1"
   id="svg1"
   inkscape:version="1.3.2 (091e20e, 2023-11-25, custom)"
   sodipodi:docname="desing.svg"
   xml:space="preserve"
   xmlns:inkscape="http://www.inkscape.org/namespaces/inkscape"
   xmlns:sodipodi="http://sodipodi.sourceforge.net/DTD/sodipodi-0.dtd"
   xmlns="http://www.w3.org/2000/svg"
   xmlns:svg="http://www.w3.org/2000/svg"><sodipodi:namedview
     id="namedview1"
     pagecolor="#4c4c4c"
     bordercolor="#6f6f6f"
     borderopacity="1"
     inkscape:showpageshadow="false"
     inkscape:pageopacity="0.0"
     inkscape:pagecheckerboard="0"
     inkscape:deskcolor="#4c4c4c"
     inkscape:document-units="px"
     inkscape:zoom="0.14841876"
     inkscape:cx="-5036.4252"
     inkscape:cy="-3722.5751"
     inkscape:window-width="1920"
     inkscape:window-height="1009"
     inkscape:window-x="-8"
     inkscape:window-y="-8"
     inkscape:window-maximized="1"
     inkscape:current-layer="layer1" /><defs
     id="defs1" /><g
     inkscape:label="Capa 1"
     inkscape:groupmode="layer"
     id="layer1"
     transform="translate(826.88422,-1100.4961)"><g
       id="text69"><path
         style="color:#000000;-inkscape-font-specification:Impact;fill:#161814;fill-opacity:1;stroke-linecap:round;stroke-linejoin:round;-inkscape-stroke:none"
         d="m -819.64022,1101.5817 h 64.84931 v 29.9305 h -25.9582 v 28.36 h 24.2954 v 28.4524 h -24.2954 v 32.8866 h 28.54478 v 29.9304 h -67.43589 z m 198.61255,0 v 149.5599 h -33.99508 v -100.9691 l -13.57955,100.9691 h -24.11064 l -14.31858,-98.6596 v 98.6596 h -33.99508 v -149.5599 h 50.34597 q 2.21707,13.4872 4.71128,31.778 l 5.35792,38.0597 8.86828,-69.8377 z m 15.61188,0 h 39.16824 q 15.88901,0 24.38778,2.4942 8.59114,2.4942 12.84053,7.2055 4.34176,4.7113 5.81981,11.4549 1.57042,6.6512 1.57042,20.6926 v 13.0253 q 0,14.3186 -2.95609,20.8774 -2.9561,6.5589 -10.9006,10.0692 -7.85212,3.5104 -20.60028,3.5104 h -10.4387 v 60.2304 h -38.89111 z m 38.89111,25.5887 v 38.0597 q 1.6628,0.092 2.86371,0.092 5.35792,0 7.39024,-2.5866 2.12469,-2.6789 2.12469,-10.993 v -12.2862 q 0,-7.6674 -2.40183,-9.9768 -2.40182,-2.3095 -9.97681,-2.3095 z m 134.40988,-25.5887 v 29.9305 h -23.09448 v 119.6294 h -38.89111 v -119.6294 h -23.0021 v -29.9305 z m 96.44257,0 -28.36003,95.4264 v 54.1335 h -36.02739 v -54.1335 l -27.34387,-95.4264 h 35.75026 q 8.40639,43.6948 9.42255,58.8448 3.23323,-23.9259 10.80822,-58.8448 z"
         id="path70" /><path
         style="color:#000000;-inkscape-font-specification:Impact;fill:#161814;fill-opacity:1;stroke-linecap:round;stroke-linejoin:round;-inkscape-stroke:none"
         d="m -819.64062,1100.4961 a 1.0848985,1.0848985 0 0 0 -1.08399,1.0859 v 149.5586 a 1.0848985,1.0848985 0 0 0 1.08399,1.086 h 67.43554 a 1.0848985,1.0848985 0 0 0 1.08594,-1.086 v -29.9297 a 1.0848985,1.0848985 0 0 0 -1.08594,-1.0839 h -27.45898 v -30.7168 h 23.21094 a 1.0848985,1.0848985 0 0 0 1.08398,-1.086 v -28.4512 a 1.0848985,1.0848985 0 0 0 -1.08398,-1.0859 h -23.21094 v -26.1894 h 24.87304 a 1.0848985,1.0848985 0 0 0 1.08399,-1.086 v -29.9297 a 1.0848985,1.0848985 0 0 0 -1.08399,-1.0859 z m 78.61328,0 a 1.0848985,1.0848985 0 0 0 -1.08399,1.0859 v 149.5586 a 1.0848985,1.0848985 0 0 0 1.08399,1.086 h 33.99609 a 1.0848985,1.0848985 0 0 0 1.08398,-1.086 v -83.6308 l 12.16016,83.7871 a 1.0848985,1.0848985 0 0 0 1.07422,0.9297 h 24.11133 a 1.0848985,1.0848985 0 0 0 1.07422,-0.9395 l 11.41992,-84.9101 v 84.7636 a 1.0848985,1.0848985 0 0 0 1.08398,1.086 h 33.9961 a 1.0848985,1.0848985 0 0 0 1.08398,-1.086 V 1101.582 a 1.0848985,1.0848985 0 0 0 -1.08398,-1.0859 h -50.71485 a 1.0848985,1.0848985 0 0 0 -1.07617,0.9492 l -7.84766,61.7988 -4.22851,-30.0312 v 0 c -1.66358,-12.1993 -3.23481,-22.7992 -4.71484,-31.8027 a 1.0848985,1.0848985 0 0 0 -1.07032,-0.9102 z m 135.61132,0 a 1.0848985,1.0848985 0 0 0 -1.08398,1.0859 v 149.5586 a 1.0848985,1.0848985 0 0 0 1.08398,1.086 h 38.89063 a 1.0848985,1.0848985 0 0 0 1.08594,-1.086 v -59.1445 h 9.35351 c 8.59633,0 15.60517,-1.1751 21.03907,-3.6035 h 0.004 c 5.4771,-2.421 9.35727,-5.976 11.44727,-10.6133 2.09223,-4.6421 3.05078,-11.7018 3.05078,-21.3222 v -13.0254 c 0,-9.396 -0.51275,-16.3333 -1.59766,-20.9336 -1.02198,-4.6567 -3.05123,-8.6641 -6.07617,-11.9473 -3.01216,-3.3366 -7.4837,-5.8142 -13.33594,-7.5136 -5.84111,-1.7143 -14.04393,-2.5391 -24.69336,-2.5391 z m 88.31446,0 a 1.0848985,1.0848985 0 0 0 -1.08594,1.0859 v 29.9297 a 1.0848985,1.0848985 0 0 0 1.08594,1.086 h 21.91601 v 118.5429 a 1.0848985,1.0848985 0 0 0 1.08594,1.086 h 38.89063 a 1.0848985,1.0848985 0 0 0 1.08398,-1.086 v -118.5429 h 22.00977 a 1.0848985,1.0848985 0 0 0 1.08593,-1.086 v -29.9297 a 1.0848985,1.0848985 0 0 0 -1.08593,-1.0859 z m 89.69726,0 a 1.0848985,1.0848985 0 0 0 -1.04297,1.3848 l 27.30274,95.2793 v 53.9804 a 1.0848985,1.0848985 0 0 0 1.08398,1.086 h 36.02735 a 1.0848985,1.0848985 0 0 0 1.08593,-1.086 v -53.9746 l 28.31446,-95.2754 a 1.0848985,1.0848985 0 0 0 -1.03906,-1.3945 h -35.75 a 1.0848985,1.0848985 0 0 0 -1.06055,0.8555 c -4.35413,20.0715 -7.41794,36.8793 -9.625,51.5273 -1.25576,-11.1328 -3.80909,-27.221 -8.48047,-51.5019 a 1.0848985,1.0848985 0 0 0 -1.06445,-0.8809 z m -391.15039,2.1699 h 62.67969 v 27.7617 h -24.875 a 1.0848985,1.0848985 0 0 0 -1.08398,1.084 v 28.3613 a 1.0848985,1.0848985 0 0 0 1.08398,1.084 h 23.21094 v 26.2832 H -780.75 a 1.0848985,1.0848985 0 0 0 -1.08398,1.084 v 32.8867 a 1.0848985,1.0848985 0 0 0 1.08398,1.086 h 27.46094 v 27.7597 h -65.26563 z m 78.61328,0 h 48.32422 c 1.43884,8.8107 2.95799,19.0019 4.57227,30.8399 a 1.0848985,1.0848985 0 0 0 0.002,0.01 l 5.35742,38.0586 a 1.0848985,1.0848985 0 0 0 2.15039,-0.014 l 8.74805,-68.8906 h 48.67383 v 147.3906 h -31.82422 v -99.8847 a 1.0848985,1.0848985 0 0 0 -2.16016,-0.1446 l -13.45312,100.0293 h -22.22266 l -14.18359,-97.7304 a 1.0848985,1.0848985 0 0 0 -2.16016,0.1562 v 97.5742 h -31.82422 z m 135.61133,0 h 38.08203 c 10.5359,0 18.59147,0.8398 24.08203,2.4512 a 1.0848985,1.0848985 0 0 0 0.004,0 c 5.59778,1.6251 9.68472,3.949 12.33789,6.8906 a 1.0848985,1.0848985 0 0 0 0.008,0.01 c 2.76129,2.9963 4.60753,6.6228 5.55664,10.9532 a 1.0848985,1.0848985 0 0 0 0.004,0.017 c 1.00772,4.268 1.54297,11.1229 1.54297,20.4434 v 13.0254 c 0,9.471 -1.01211,16.3287 -2.86133,20.4316 -1.85094,4.1068 -5.23624,7.2621 -10.34961,9.5215 a 1.0848985,1.0848985 0 0 0 -0.004,0 c -5.03506,2.2509 -11.75901,3.416 -20.15821,3.416 h -10.43945 a 1.0848985,1.0848985 0 0 0 -1.08398,1.0859 v 59.1445 h -36.72071 z m 88.3125,0 h 82.81836 v 27.7617 h -22.00976 a 1.0848985,1.0848985 0 0 0 -1.08594,1.084 v 118.5449 h -36.7207 v -118.5449 a 1.0848985,1.0848985 0 0 0 -1.08399,-1.084 h -21.91797 z m 90.05274,0 h 33.40429 c 5.47539,28.5392 8.58736,47.9838 9.24805,57.834 a 1.0848985,1.0848985 0 0 0 2.15625,0.072 c 2.12126,-15.6974 5.68016,-35.051 10.62109,-57.9063 h 33.40821 l -27.94532,94.0332 a 1.0848985,1.0848985 0 0 0 -0.0449,0.3086 v 53.0488 h -33.85742 v -53.0488 a 1.0848985,1.0848985 0 0 0 -0.043,-0.2988 z m -140.56055,23.4199 a 1.0848985,1.0848985 0 0 0 -1.08398,1.084 v 38.0606 a 1.0848985,1.0848985 0 0 0 1.02539,1.082 c 1.12291,0.062 2.09552,0.094 2.92382,0.094 3.74651,0 6.60119,-0.9115 8.24219,-3 1.75402,-2.2145 2.35742,-6.0317 2.35742,-11.6641 v -12.2852 c 0,-5.2248 -0.70274,-8.8044 -2.73632,-10.7597 -2.01192,-1.9346 -5.56829,-2.6114 -10.72852,-2.6114 z m 1.08594,2.2715 c 4.1909,0.1372 7.0575,0.8628 8.14062,1.9043 1.16886,1.1239 2.06836,4.197 2.06836,9.1953 v 12.2852 c 0,5.4503 -0.81368,8.9605 -1.89062,10.3183 a 1.0848985,1.0848985 0 0 0 -0.002,0 c -1.06875,1.3602 -3.13973,2.1738 -6.53711,2.1738 -0.49033,0 -1.15873,-0.034 -1.77929,-0.059 z"
         id="path71" /></g><path
       style="fill:#161814;fill-opacity:1"
       d="m -529.93157,1805.4456 8.85926,0.4094 -0.0457,-55.2 c -0.0271,-32.7275 -0.72062,-62.1361 -1.70355,-72.2371 -2.66646,-27.4017 -6.06434,-57.8872 -6.50907,-58.3989 -0.22605,-0.2601 -4.28708,1.3972 -9.02451,3.683 -10.76638,5.1947 -19.29988,6.4566 -28.66898,4.2394 -5.72441,-1.3547 -16.90954,-5.7906 -23.05582,-9.1437 -1.1328,-0.618 -2.03121,4.7568 -4.4979,26.909 -3.53413,31.7383 -4.77346,61.4465 -5.13615,123.1195 -0.19323,32.8579 -0.82459,60.0341 -1.40302,60.3916 -1.56231,0.9655 -1.24793,-123.7847 0.36972,-146.7111 1.35713,-19.2341 5.81272,-56.4175 7.62616,-63.6428 0.69408,-2.7654 0.46277,-3.4075 -1.00651,-2.7938 -1.04924,0.4383 -5.89438,2.444 -10.76698,4.4571 -22.8785,9.4524 -44.49936,20.8369 -50.22337,26.4451 -11.13128,10.9061 -10.88011,9.9521 -28.19534,107.0901 -6.44743,36.1699 -14.60459,76.3291 -15.75902,77.5845 -0.6386,0.6945 -0.78301,-1.9017 -0.3222,-5.7926 l 0.83511,-7.0511 h -13.33571 c -23.24944,-6.1871 -99.01998,5.0485 -104.84619,-13.8282 -1.94861,-6.3134 2.946,-10.8839 -6.22752,-14.3171 -6.22792,-1.2455 -4.89537,-2.9131 3.06667,-3.8377 8.79495,-1.0212 27.14675,1.9484 27.99725,4.5305 0.48943,1.4859 -1.64174,1.7549 -10.79743,1.363 l -11.40722,-0.4883 -0.42732,5.9605 4.21783,5.0891 c 10.46308,3.0428 20.62132,4.6017 32.31593,4.6244 16.07293,0 23.01538,0.5953 31.14259,2.6704 7.31428,1.8675 16.17708,2.7895 29.47854,3.0667 l 19.01981,0.3963 1.63449,-3.4074 c 2.02206,-4.2154 8.89806,-43.5423 7.8964,-45.163 -0.40037,-0.6478 -8.35842,-1.1778 -17.68455,-1.1778 -19.57441,0 -24.00543,-2.5955 -5.03068,-2.9467 17.37781,-0.3217 23.46632,-0.6423 24.08502,-1.2681 0.85503,-0.865 7.60389,-39.8698 7.60389,-43.9465 v -3.6313 h -50.3492 c -47.38054,0 -54.54411,-0.5093 -51.39965,-3.6537 0.41051,-0.4105 23.31861,-1.0612 50.90689,-1.446 27.58942,-0.3848 50.87744,-1.2686 51.75376,-1.9641 0.87628,-0.6954 2.30204,-5.6773 3.16834,-11.0707 0.86631,-5.3935 3.06268,-15.5343 4.88084,-22.5352 1.81815,-7.0009 3.30573,-13.3203 3.30573,-14.0432 0,-0.808 -10.61023,-1.2245 -27.54665,-1.0813 -16.9236,0.143 -27.71771,-0.2803 -27.99024,-1.0979 -0.27489,-0.8247 10.75623,-1.5893 29.00664,-2.0106 l 29.45023,-0.6799 6.37705,-6.1192 c 8.59508,-8.2474 13.3172,-10.8956 41.1303,-23.0655 23.06133,-10.0907 23.8684,-10.5783 24.2813,-14.6723 0.50781,-5.0349 -2.09358,-5.6191 -7.713,-1.7322 -6.63006,4.5861 -6.97323,4.6266 -8.357,0.987 l -1.32668,-3.4894 h -85.90046 c -49.7055,0 -85.90047,-0.5145 -85.90047,-1.2211 0,-2.0683 18.30468,-2.7718 95.76845,-3.6807 41.05338,-0.4817 74.97966,-1.4214 75.39174,-2.0881 1.40539,-2.274 -0.77955,-6.046 -4.91826,-8.4908 -4.01388,-2.3711 -4.30184,-2.3587 -10.06709,0.4322 -6.46651,3.1304 -19.12701,5.1984 -20.14492,3.2906 -0.34928,-0.6547 -0.27887,-7.7844 0.15646,-15.8439 0.43533,-8.0595 0.30707,-14.6528 -0.28502,-14.6519 -0.59208,0 -3.47438,1.2251 -6.40509,2.7202 -5.38303,2.7463 -23.84813,6.6136 -25.18658,5.2752 -0.39841,-0.3984 -0.0234,-4.2146 0.83325,-8.4804 0.85669,-4.2658 1.11505,-8.1985 0.57412,-8.7394 -0.54092,-0.541 -11.15912,-1.293 -23.59601,-1.6713 -16.37499,-0.498 -22.76812,-1.1577 -23.17663,-2.3914 -0.42696,-1.2895 2.86026,-1.7036 13.51984,-1.7032 13.19865,5e-4 14.63045,-0.2779 22.7779,-4.4296 14.75568,-7.519 16.54522,-14.5159 3.05846,-11.9582 -4.77589,0.9057 -10.3864,0.902 -16.82508,-0.011 -11.46631,-1.6263 -26.95698,-5.5965 -26.95698,-6.909 0,-0.5115 2.5147,-1.9362 5.58823,-3.1659 3.07352,-1.2298 7.68528,-3.661 10.24836,-5.4027 6.29237,-4.2757 16.87455,-14.2925 16.87455,-15.9728 0,-0.8835 -14.75693,-1.1832 -42.23726,-0.8577 -39.29795,0.4654 -47.17772,0.01 -44.58083,-2.5891 0.55779,-0.5578 21.85338,-1.2836 47.32354,-1.6128 25.47015,-0.3293 46.30937,-1.0991 46.30937,-1.7107 0,-0.6117 -8.57803,-5.5118 -19.06229,-10.8892 -10.48426,-5.3775 -18.74276,-10.2942 -18.35221,-10.9261 0.39055,-0.632 2.83525,-1.5477 5.43266,-2.0349 2.59741,-0.4873 4.72171,-1.2777 4.72066,-1.7565 -10e-4,-0.4788 -3.22105,-2.1905 -7.15556,-3.8038 -11.3685,-4.6615 -32.27729,-14.7127 -32.32499,-15.5392 -0.0239,-0.4147 4.40316,-2.1819 9.83798,-3.927 13.93055,-4.4732 27.97036,-11.5816 37.23131,-18.8501 l 7.93133,-6.225 -4.69241,-3.5068 c -2.58083,-1.9288 -9.0322,-7.6537 -14.33636,-12.722 l -9.64394,-9.2152 h -26.05343 c -16.98223,0 -26.36623,-0.5061 -26.95183,-1.4536 -0.49412,-0.7995 -0.67907,-1.673 -0.41099,-1.9411 0.26807,-0.2681 10.79935,-0.6624 23.40282,-0.8762 12.60348,-0.2138 23.16219,-0.7881 23.4638,-1.2761 0.30161,-0.488 -1.97191,-2.0238 -5.05227,-3.4129 -6.16184,-2.7786 -12.04359,-7.0026 -12.04359,-8.6493 0,-0.5806 1.36775,-1.666 3.03944,-2.412 2.93739,-1.3107 2.8573,-1.47 -2.38519,-4.7463 -2.98354,-1.8646 -11.09192,-6.408 -18.01861,-10.0965 -6.92669,-3.6885 -12.60004,-7.1002 -12.60742,-7.5816 -0.007,-0.4814 5.96658,-1.2462 13.27547,-1.6997 20.32345,-1.2609 64.09076,-3.6191 73.25932,-3.9472 7.17157,-0.2567 8.17778,-0.6281 8.17778,-3.0187 0,-2.5696 -1.03541,-2.7477 -18.05927,-3.1062 -9.9326,-0.2091 -18.05927,-0.922 -18.05927,-1.5841 0,-0.6621 7.36,-1.6431 16.35556,-2.18 8.99557,-0.5369 16.35557,-1.3959 16.35557,-1.909 0,-0.513 -1.4285,-3.9608 -3.17445,-7.6619 -1.74594,-3.701 -6.19261,-13.6918 -9.88148,-22.2017 -5.11534,-11.8006 -7.49295,-15.777 -10.01866,-16.7557 -1.82139,-0.7057 -17.65574,-1.1952 -35.18744,-1.0877 -29.33117,0.1798 -36.58138,-0.2877 -31.54793,-2.0344 1.04433,-0.3624 16.10866,-0.8368 33.47628,-1.0543 17.36763,-0.2174 31.98935,-0.8082 32.49273,-1.3128 0.50337,-0.5045 -0.43848,-6.7755 -2.09301,-13.9355 -3.27235,-14.1612 -2.91801,-25.3545 0.80264,-25.3545 1.07851,0 1.96093,0.5434 1.96093,1.2075 0,2.3716 9.96821,10.8349 15.49739,13.1578 14.83421,6.232 26.91469,12.2538 37.04225,18.4645 l 11.09508,6.8041 12.519,-0.3947 12.519,-0.3947 4.44915,-10.2223 c 2.44703,-5.6222 7.07067,-14.1616 10.27476,-18.9765 5.55481,-8.3473 11.09235,-18.2387 11.09235,-19.8136 l 8.16336,-18.4544 c 0.63844,0 1.56338,-1.8329 2.05543,-4.0732 1.48993,-6.7836 3.0381,-5.9198 6.14999,3.4315 l 2.96788,8.9184 3.30025,9.4419 c 0.19554,4.5027 6.42123,25.8727 7.5413,25.886 0.48096,0.01 1.29586,-1.6764 1.81088,-3.7379 8.3158,-25.913 10.12232,-26.7468 18.4043,-1.3629 3.92724,12.1815 7.67553,23.5281 8.32953,25.2148 1.15749,2.9852 1.71574,3.0667 21.0153,3.0667 h 19.82622 l 9.84051,-4.9556 c 5.41227,-2.7256 11.74153,-6.4056 14.065,-8.1778 2.32348,-1.7722 4.59601,-3.2222 5.05006,-3.2222 0.45406,0 1.0095,3.5267 1.23431,7.8371 l 0.40876,7.837 43.95559,0.3596 c 24.17557,0.1978 43.95559,0.8726 43.95559,1.4996 0,1.7688 -21.94624,2.9112 -55.92402,2.9112 -23.14465,0 -31.31508,0.4305 -32.32982,1.7037 -0.74686,0.937 -1.7913,4.6954 -2.32098,8.352 -0.52968,3.6566 -1.32332,7.5872 -1.76365,8.7347 -0.65713,1.7124 0.004,1.9254 3.68731,1.1887 6.49116,-1.2982 19.97158,-7.5921 22.68659,-10.5922 1.28026,-1.4146 2.84602,-2.5721 3.47947,-2.5721 1.62959,0 1.27255,13.5546 -0.72903,27.6762 -1.72805,12.1919 -1.3711,13.7741 3.12638,13.8582 3.53214,0.066 3.2539,3.4434 -0.28368,3.4434 -1.84476,0 -3.92921,0.7667 -4.63212,1.7037 -1.58911,2.1184 -6.60149,28.0049 -5.61381,28.9926 0.39646,0.3965 5.86754,1.5571 12.15797,2.5792 15.74225,2.558 23.02233,4.6807 23.02233,6.7129 0,0.9462 -2.76001,3.0612 -6.13334,4.7001 -3.37334,1.6389 -6.13334,3.6011 -6.13334,4.3605 0,0.8814 8.91347,1.3807 24.64693,1.3807 19.11287,0 24.51896,0.3825 24.07699,1.7037 -0.40894,1.2224 -5.28399,1.7663 -17.2585,1.9252 -9.17872,0.1218 -16.94461,0.4774 -17.25754,0.7904 -0.31293,0.3129 5.71562,2.2937 13.39678,4.4017 7.68116,2.1081 14.45002,4.2607 15.04191,4.7836 0.59189,0.5229 -2.78144,2.9874 -7.4963,5.4767 -4.71486,2.4893 -11.05436,6.2113 -14.08778,8.2711 -6.38486,4.3357 -21.06249,18.464 -21.06249,20.2743 0,0.6757 2.09761,1.9208 4.66135,2.7669 6.51239,2.1493 8.92652,5.2398 5.85017,7.4893 -1.28355,0.9386 -2.33374,2.352 -2.33374,3.1409 0,0.7889 6.74668,5.1943 14.99261,9.7896 8.24593,4.5954 14.9926,8.9333 14.9926,9.6399 0,1.9817 -14.23004,12.6897 -24.65174,18.5503 -5.1476,2.8947 -9.37386,5.5698 -9.39171,5.9446 -0.0178,0.3748 8.58268,0.4687 19.11228,0.2086 19.97968,-0.4935 27.25052,0.2839 24.8749,2.6595 -0.74485,0.7448 -12.18024,1.7263 -25.41198,2.1809 -18.52349,0.6365 -24.0577,1.2381 -24.0577,2.6149 0,0.9835 4.98223,8.4014 11.07163,16.4843 6.08941,8.083 11.36509,15.4544 11.72375,16.381 0.89952,2.324 -4.30099,4.0645 -21.98386,7.3578 -18.46258,3.4384 -23.04947,5.0447 -14.78191,5.1763 5.9789,0.095 7.75754,2.0109 3.20782,3.4549 -1.42163,0.4512 -3.1083,0.7266 -3.74815,0.6119 -2.95121,-0.5288 -2.8284,0.7206 0.94181,9.5804 2.21549,5.2063 4.02816,10.0852 4.02816,10.842 0,1.3502 -2.51449,1.9372 -15.19079,3.546 l -6.33152,0.8036 -6.0847,12.2045 -6.0847,12.2046 h 46.06914 c 41.45736,0 50.70373,0.6425 46.51366,3.2321 -0.61808,0.382 -22.86143,1.125 -49.42967,1.6512 l -48.3059,0.9567 -4.77037,3.6968 c -2.62371,2.0332 -6.61037,4.2951 -8.85927,5.0263 -4.53399,1.4742 -8.39378,7.0285 -7.14527,10.282 0.4437,1.1563 8.51104,5.8481 17.92743,10.4262 13.5567,6.5911 17.76303,9.3155 20.20632,13.0872 3.05584,4.7174 3.181,4.7635 12.96711,4.7802 5.66777,0.01 9.88149,0.5981 9.88149,1.3798 0,0.7689 -3.86173,1.363 -8.85926,1.363 -11.35158,0 -11.9642,2.7501 -1.63064,7.3201 14.28536,6.3177 20.71663,14.4909 24.94314,31.6993 1.26517,5.1512 2.88175,10.1115 3.5924,11.0228 0.92621,1.1878 6.75564,1.5737 20.58621,1.363 16.37236,-0.2495 19.29412,0.015 19.29412,1.7504 0,1.7016 -3.19518,2.1084 -19.05385,2.4257 -10.47961,0.2097 -19.48342,0.823 -20.00846,1.363 -1.72009,1.7689 11.84733,85.5293 15.99063,98.7204 0.59837,1.9051 2.77439,2.4035 11.90196,2.726 l 26.01298,-5.1295 c 0.52997,-5.2077 1.28752,-10.7714 1.68344,-12.3638 0.60715,-2.442 -0.0434,-3.0385 -4.15527,-3.8099 -6.55686,-1.2301 -6.15323,-3.0184 0.91747,-4.0648 5.60249,-0.8291 25.79881,1.0578 28.37714,2.6513 3.72514,2.3023 0.44693,3.5668 -8.61416,3.3227 -14.17166,-0.3818 -13.5088,-0.6431 -13.03044,5.1368 0.40891,4.9406 0.59671,5.1111 5.63115,5.1111 4.22328,0 5.89856,0.8399 8.85927,4.4419 3.29709,4.0112 4.35933,4.4407 10.95445,4.4296 7.1164,-0.012 7.28138,0.075 6.44607,3.4033 l -105.45129,-4.4564 c 0.85367,-1.0286 1.07232,-4.3248 0.54248,-8.1782 -0.48817,-3.5503 -2.43378,-18.4151 -4.32358,-33.0329 -5.75998,-44.554 -14.08594,-88.8897 -20.51455,-109.2399 -4.24548,-13.4393 -7.60478,-16.79 -25.64333,-25.5778 -16.43103,-8.0047 -41.60255,-18.0574 -41.83922,-16.7092 -0.0888,0.5057 -0.0789,1.409 0.0219,2.0073 0.10081,0.5983 2.10304,20.5317 4.4494,44.2963 3.93283,39.8329 4.23774,46.5626 3.90295,86.1419 -0.19975,23.6133 -0.44268,45.9101 -0.53985,49.5484 l -0.17668,6.6151 8.28245,3.0093 c 9.95207,3.616 17.4151,7.9423 23.46591,13.6033 5.35771,5.0125 5.69185,4.6663 8.98709,-9.3114 l 2.37572,-10.0772 -11.13736,-13.4049 c -6.12555,-7.3727 -13.97978,-15.9416 -17.45384,-19.0422 l -6.31649,-5.6373 5.01596,-2.0958 c 5.93797,-2.481 15.32138,-10.8382 24.47199,-21.7955 6.33161,-7.5817 6.52434,-8.0586 4.69024,-11.6053 -1.05199,-2.0344 -4.09776,-10.9066 -6.76837,-19.7161 -6.19297,-20.4287 -13.50227,-38.5407 -26.19153,-64.9008 -5.55679,-11.5434 -10.10325,-21.6328 -10.10325,-22.4208 0,-7.9718 30.596,58.3832 36.05037,78.1842 1.95869,7.1106 5.14826,17.5863 7.08794,23.2794 l 3.52668,10.351 -4.38564,6.0046 c -4.01133,5.4921 -4.3236,6.6443 -3.65876,13.5008 1.1042,11.3878 8.91914,62.5665 10.33914,67.7093 0.7365,2.6673 0.74598,4.5278 0.0231,4.5278 -0.67492,0 -1.59671,-1.6866 -2.04842,-3.7481 -1.61658,-7.3777 -2.16089,-8.0526 -3.57247,-4.4296 -0.73017,1.874 -2.10443,4.9796 -3.0539,6.9012 z m 178.54828,4.6441 c 0,-2.5853 -2.75937,-3.4359 -6.56165,-2.0227 -4.11648,1.53 -2.55947,3.9213 2.55319,3.9213 2.5176,0 4.00846,-0.7061 4.00846,-1.8986 z m -126.09632,-16.1606 c -0.59747,-1.647 -6.11119,-39.891 -6.11119,-42.3883 0,-0.6781 -2.75391,1.3054 -6.11981,4.408 -3.36589,3.1026 -8.27256,6.6676 -10.90371,7.9223 -2.63115,1.2548 -4.7752,2.6277 -4.76456,3.0511 0.0107,0.4234 3.0004,3.2231 6.64391,6.2217 3.64351,2.9985 8.08147,7.5687 9.86214,10.1559 4.8929,7.1093 9.47251,12.333 10.81227,12.333 0.65946,0 0.92089,-0.7667 0.58095,-1.7037 z m -61.78651,-173.1085 c 8.88869,-4.0011 9.92548,-6.0282 8.58213,-16.78 -0.71512,-5.7236 -1.41405,-7.3839 -2.87279,-6.8241 -12.3519,4.7398 -31.37638,6.813 -46.12298,5.0261 -5.24741,-0.6359 -10.00444,-0.7422 -10.57119,-0.2363 -1.81467,1.6198 1.29152,14.0464 3.90667,15.629 1.3575,0.8215 6.17237,2.8942 10.69969,4.606 10.98777,4.1545 25.228,3.5984 36.37847,-1.4207 z m -7.14787,-23.5533 c 29.28528,-6.9031 47.69814,-30.5309 56.78215,-72.8644 3.00767,-14.0164 4.09498,-43.6815 2.08454,-56.8722 -5.54434,-36.377 -15.5641,-69.7014 -29.41304,-97.8242 -16.95133,-34.4226 -28.73613,-44.0075 -60.53287,-49.2325 -18.16242,-2.9846 -34.95549,-1.9316 -47.31145,2.9667 -24.4411,9.6891 -37.52495,24.2398 -44.47702,49.4632 -2.45995,8.9252 -2.87424,14.1734 -2.86771,36.3286 0.009,29.3042 2.75076,51.2413 10.67472,85.398 6.06504,26.1438 10.09177,38.0199 19.33722,57.0317 6.52405,13.4157 9.11801,17.1657 18.00296,26.0264 11.21517,11.1845 22.59078,17.7229 34.92784,20.0755 10.73173,2.0465 33.10479,1.7868 42.79266,-0.4968 z m 0.46055,-30.9532 c -2.62613,-3.2825 -3.07079,-7.3008 -1.1014,-9.953 1.56945,-2.1137 2.47321,-2.3512 4.43602,-1.1658 3.92779,2.3721 6.42801,8.4663 4.45081,10.8487 -2.01257,2.425 -5.95206,2.5616 -7.78543,0.2701 z m 6.07356,-3.207 c 0.62253,-1.8676 -3.24982,-6.8789 -4.41507,-5.7136 -1.48236,1.4823 0.6365,8.1579 2.40252,7.5692 0.86254,-0.2875 1.76819,-1.1225 2.01255,-1.8556 z m -43.66161,1.2761 c -0.49975,-0.4998 -0.90864,-2.6657 -0.90864,-4.8132 0,-5.4698 3.50702,-6.3833 7.84646,-2.0438 2.96248,2.9624 3.24135,3.8571 1.75908,5.6431 -1.78353,2.149 -7.02953,2.8813 -8.6969,1.2139 z m 5.90618,-3.7813 c 0,-2.1707 -2.4729,-4.1952 -3.66647,-3.0016 -1.12122,1.1212 0.62904,4.9656 2.26073,4.9656 0.77316,0 1.40574,-0.8838 1.40574,-1.964 z m 11.91008,0.5154 c -1.32058,-0.7868 -3.93266,-4.453 -5.80464,-8.1472 -2.53198,-4.9966 -4.88389,-7.4579 -9.18414,-9.6111 -3.17931,-1.5919 -7.73403,-4.7499 -10.12159,-7.0178 l -4.34102,-4.1235 -11.05387,6.4805 c -13.13722,7.7018 -16.14763,7.4628 -3.83956,-0.3048 12.20329,-7.7015 17.91925,-10.4271 31.07178,-14.816 10.92312,-3.6449 12.87037,-3.8603 34.07409,-3.769 13.53335,0.058 23.84581,0.708 25.89632,1.6318 2.64123,1.1899 -0.34688,1.3457 -13.2889,0.6928 l -16.69631,-0.8422 v 3.4959 c 0,1.9228 -1.61806,5.4189 -3.59568,7.7692 -3.5004,4.16 -3.55596,4.5128 -2.09699,13.3175 1.14466,6.9078 1.10627,9.8672 -0.16254,12.5277 -1.82195,3.8203 -6.87978,5.0857 -10.85695,2.7162 z m 7.77547,-3.6115 c 0.49263,-1.2838 0.4977,-6.9571 0.0113,-12.6074 -0.84736,-9.8425 -0.73592,-10.4118 2.65753,-13.5775 3.80238,-3.5472 4.63375,-7.5704 1.78989,-8.6617 -3.69577,-1.4182 -33.70517,5.6606 -37.03396,8.7358 -1.867,1.7248 1.92855,5.0976 10.40985,9.2506 5.59905,2.7416 8.05879,5.0277 11.12012,10.3351 5.27797,9.1504 9.15826,11.4427 11.04532,6.5251 z m -65.34484,-0.3291 c -3.52092,-1.4563 -8.30496,-6.7619 -9.41881,-10.4456 -0.99501,-3.2907 1.17053,-10.0615 3.218,-10.0615 0.88938,0 0.91439,1.1798 0.072,3.3956 -0.71005,1.8675 -0.91162,4.4742 -0.44795,5.7926 1.18674,3.3742 7.43168,9.8933 9.47728,9.8933 0.93995,0 2.08807,0.6133 2.55136,1.3629 0.99732,1.6137 -1.62904,1.6439 -5.45185,0.063 z m 116.9971,-23.803 c 5.01767,-2.2184 6.30475,-4.407 6.33026,-10.7641 0.0226,-5.6305 -1.89283,-10.2281 -5.31073,-12.7471 -1.18823,-0.8758 -1.69896,-2.0537 -1.13496,-2.6177 1.42083,-1.4209 7.26754,4.3331 9.23885,9.0922 3.39087,8.1863 -1.97999,19.0782 -9.29946,18.8589 l -3.69506,-0.1107 z m -70.18092,-31.4872 c -4.55562,-2.4747 -8.82814,-11.2162 -11.38827,-23.3003 -2.31631,-10.9332 -2.44565,-12.7908 -0.89061,-12.7908 0.62957,0 1.9127,4.2976 2.8514,9.5503 0.93869,5.2526 3.33692,12.7659 5.3294,16.6963 3.3209,6.5508 4.01668,7.1461 8.35279,7.1461 3.67712,0 5.11388,-0.7586 6.45399,-3.4074 2.25046,-4.4483 2.17989,-16.1626 -0.16421,-27.2593 -1.75221,-8.2948 -1.77628,-10.9737 -0.0834,-9.2808 1.91529,1.9153 4.9048,21.8501 4.43416,29.5681 -0.4547,7.4568 -1.06702,9.1636 -4.27851,11.926 -4.31211,3.7091 -5.64306,3.8535 -10.61675,1.1518 z m -64.71183,-13.5209 c -2.34631,-1.0211 -4.68251,-2.5304 -5.19156,-3.3541 -1.20541,-1.9504 -0.68683,-1.8954 5.15845,0.5469 9.95649,4.1601 21.0256,1.9262 34.38107,-6.9387 8.84521,-5.8711 11.14046,-5.4478 3.72153,0.6864 -12.39204,10.2461 -27.22929,13.777 -38.06949,9.0595 z m 96.94755,-15.0391 c -0.74963,-0.2712 -3.66296,-0.8777 -6.47408,-1.3479 -8.94518,-1.4961 -5.51951,-2.775 7.49794,-2.7991 14.04466,-0.026 19.68758,-2.0984 27.97221,-10.2727 6.01116,-5.931 7.49322,-3.8891 1.59449,2.1968 -7.24231,7.4722 -24.57634,14.3982 -30.59056,12.2229 z m -92.68154,-1.9304 c -2.24889,-0.5855 -6.54223,-2.3357 -9.54075,-3.8893 -16.02856,-8.3046 -24.27021,-30.4984 -17.14904,-46.1802 3.74254,-8.2416 6.06159,-8.6874 2.85354,-0.5485 -3.11894,7.9128 -3.802,21.1697 -1.03784,20.1425 27.45618,-10.2031 44.96094,-15.1442 59.46354,-16.785 4.95379,-0.5605 8.34391,-1.5956 8.34391,-2.5476 0,-3.8788 -15.42924,-19.8518 -19.17595,-19.8518 -0.59059,0 -2.03636,-0.9625 -3.21282,-2.139 -1.94339,-1.9434 -3.36956,-1.9434 -15.59334,0 -24.12966,3.8362 -34.25498,2.2792 -34.25498,-5.2677 0,-4.5013 2.6292,-6.1405 12.47671,-7.7784 39.33257,-6.5422 48.07022,-8.8741 79.52336,-21.2233 26.03311,-10.2212 30.91692,-11.1551 39.19228,-7.4945 5.20526,2.3026 6.46701,3.5198 6.46701,6.239 0,3.8386 -1.90581,4.6543 -19.76298,8.4587 -10.89172,2.3204 -28.74117,8.3763 -51.68656,17.5359 -6.68833,2.67 -12.93881,4.8545 -13.88994,4.8545 -4.22463,0 -2.76864,2.7767 2.95485,5.6351 7.50189,3.7467 16.21009,12.8611 19.76142,20.6833 7.57792,16.6912 -1.97846,38.0084 -20.89876,46.6183 -7.95784,3.6214 -18.65829,5.1458 -24.83366,3.538 z m 18.64755,-4.2836 c 7.74494,-2.1511 17.73505,-9.7498 22.13642,-16.8373 3.32173,-5.349 4.00139,-7.934 4.08889,-15.5513 l 0.10495,-9.1358 -5.45186,0.3014 c -8.23052,0.455 -25.2439,4.6928 -27.36815,6.8169 -1.03149,1.0315 -2.46103,2.9185 -3.17678,4.1933 -1.21684,2.1674 -1.55122,2.1708 -5.14887,0.052 -3.68875,-2.172 -4.32368,-2.1005 -15.38589,1.7328 -6.3461,2.199 -12.0769,4.5367 -12.73512,5.1949 -3.44105,3.4411 6.09007,16.3248 15.57238,21.05 7.85272,3.9132 18.17028,4.7362 27.36403,2.1827 z m -14.39645,-70.2098 c 12.8723,-2.2412 19.4136,-4.3968 47.54153,-15.6663 9.74519,-3.9044 25.65257,-9.0514 35.34974,-11.4376 9.69716,-2.3863 17.83972,-4.9642 18.09456,-5.7288 1.37831,-4.1349 -15.2275,-5.9955 -24.14058,-2.7048 -2.62371,0.9686 -13.05038,4.8878 -23.17038,8.7093 -25.90352,9.7814 -39.58677,13.492 -61.62856,16.7122 -23.97148,3.5021 -27.20204,4.9761 -22.09637,10.0818 2.7933,2.7933 14.12952,2.8062 30.05006,0.034 z m 71.66424,54.4613 c -16.14316,-8.0445 -25.31553,-27.6964 -20.69345,-44.3362 1.58212,-5.6958 6.66126,-13.6736 9.24608,-14.5228 0.9744,-0.3201 -0.19978,2.2149 -2.60929,5.6333 -3.32132,4.712 -4.53673,8.0941 -5.02511,13.9834 -0.59649,7.1928 -0.45372,7.6912 1.92781,6.7303 21.46195,-8.6596 36.68308,-12.5716 54.0018,-13.879 7.28718,-0.5501 11.94534,-1.4903 11.94115,-2.4101 -0.0185,-4.061 -10.61757,-15.3366 -17.71166,-18.8422 -5.36803,-2.6527 -6.60643,-3.7169 -4.36195,-3.7482 7.427,-0.1036 20.04038,11.3533 25.10546,22.8038 3.9366,8.8994 4.75771,21.9287 1.86009,29.5159 -6.99325,18.3116 -35.13953,28.3114 -53.68093,19.0718 z m 33.45112,-3.2537 c 7.38095,-3.1874 15.85355,-11.239 18.13149,-17.2303 2.51374,-6.6117 1.37173,-20.3473 -2.05406,-24.7055 -0.3673,-0.4672 -22.71262,2.3269 -25.60679,3.202 -1.31185,0.3967 -2.38518,1.3498 -2.38518,2.1181 0,0.7683 -1.13625,2.8414 -2.52499,4.6069 -1.89961,2.4149 -2.91232,2.8226 -4.08889,1.6461 -0.86015,-0.8602 -1.56391,-2.3613 -1.56391,-3.3358 0,-2.4688 -4.72547,-2.1841 -14.31112,0.8621 -11.79168,3.7473 -18.40001,6.7396 -18.40001,8.3318 0,7.1106 11.31568,20.737 21.12594,25.4401 8.52662,4.0877 20.89117,3.7225 31.67752,-0.9355 z m -103.23312,-78.4094 c 12.13122,-2.4564 26.51483,-7.835 44.18617,-16.5227 8.18535,-4.0242 15.10867,-7.0905 15.38517,-6.814 0.89692,0.897 -12.37276,8.8129 -22.81486,13.6102 -14.54321,6.6813 -31.76552,11.7974 -39.21203,11.6485 l -6.40372,-0.1281 z m 4.90702,-8.6325 c -0.38813,-0.628 2.31458,-1.839 6.00604,-2.6911 3.69145,-0.8521 10.87283,-3.5262 15.95861,-5.9425 5.08578,-2.4163 9.8602,-4.6784 10.60984,-5.0269 0.74963,-0.3484 0.48148,0.434 -0.59587,1.7388 -2.59703,3.1454 -12.62827,8.1459 -21.79968,10.8671 -8.52583,2.5296 -9.22271,2.6018 -10.17894,1.0546 z m -37.18146,204.9114 c 6.16761,-1.6065 17.50139,-6.2925 19.67857,-8.1362 0.19376,-0.1641 -2.1011,-5.6087 -5.09969,-12.0991 -5.42439,-11.7411 -5.47792,-11.8011 -10.57453,-11.8462 -8.7729,-0.078 -16.69352,-9.6321 -16.70263,-20.148 -0.006,-6.7935 1.47605,-10.1737 7.04105,-16.06 l 3.99311,-4.2237 -2.72445,-13.4948 c -7.95328,-39.3945 -10.11674,-84.1405 -5.03474,-104.1319 6.48315,-25.5033 17.70503,-40.3104 38.29034,-50.5235 14.53243,-7.2101 27.84725,-9.9418 43.61484,-8.9481 31.43278,1.9809 52.30714,12.5603 65.62839,33.2614 12.81855,19.9199 28.27505,59.3601 34.76894,88.7195 l 3.12406,14.1241 6.84676,3.0696 c 14.2903,6.4067 18.95005,17.2848 13.00999,30.3715 -1.83097,4.0338 -4.528,6.9479 -8.83007,9.5407 -3.40666,2.0531 -6.44512,4.9596 -6.75214,6.4589 -0.30702,1.4993 -1.31651,7.9393 -2.2433,14.3111 -0.9268,6.3719 -2.74519,15.4388 -4.04087,20.1488 l -2.35579,8.5635 9.3702,-0.2365 c 5.15362,-0.13 9.37021,-0.5683 9.37021,-0.9738 0,-0.4056 -1.93226,-5.4633 -4.29392,-11.2395 -4.76539,-11.6552 -4.50818,-14.8933 1.18448,-14.9119 5.19063,-0.017 33.32108,-6.4837 34.84858,-8.0112 0.73671,-0.7367 -1.30061,-4.3458 -5.05542,-8.9557 -5.8395,-7.1693 -15.78001,-24.7803 -15.78001,-27.9565 0,-0.7639 5.06001,-4.7224 11.24446,-8.7965 10.67561,-7.0329 16.40307,-10.9657 26.70893,-18.3399 l 4.53154,-3.2424 -10.0646,-4.3765 c -14.94207,-6.4974 -39.23515,-21.1647 -39.23515,-23.6889 0,-0.5809 4.39877,-5.5165 9.77504,-10.9678 6.77673,-6.8715 14.14494,-12.4608 24.02175,-18.2224 16.36083,-9.544 16.59284,-9.0481 -5.8604,-12.5258 -13.5575,-2.0998 -46.76204,-9.5717 -47.98907,-10.7987 -0.27435,-0.2744 2.96725,-16.9837 7.20355,-37.1318 4.23631,-20.1481 8.02772,-41.1835 8.42537,-46.7454 l 0.723,-10.1125 -3.94516,2.8092 c -2.16983,1.5451 -15.90384,8.5981 -30.52001,15.6735 -14.61617,7.0753 -30.78739,15.4596 -35.93605,18.6317 -5.14866,3.1721 -10.18373,5.4518 -11.18904,5.066 -3.92305,-1.5054 -12.86269,-22.7535 -16.11845,-38.311 -1.62834,-7.7809 -12.43639,-49.0528 -15.25855,-58.2667 -0.86443,-2.8222 -3.2728,-3.2018 -3.2728,-0.5158 0,3.9045 -12.39083,30.192 -18.93908,40.1797 -7.45534,11.3714 -13.84592,24.6052 -18.48782,38.2853 -1.63833,4.8283 -3.61099,8.9894 -4.38367,9.247 -0.77268,0.2575 -4.40808,-2.2209 -8.07866,-5.5077 -11.15711,-9.9904 -24.7369,-18.5034 -46.65087,-29.2449 -11.49259,-5.6332 -23.07839,-12.3009 -25.74623,-14.817 -2.66784,-2.5161 -5.0715,-4.5747 -5.34145,-4.5747 -1.34432,0 -0.17872,11.4397 2.15253,21.1259 2.71177,11.2673 3.75487,13.9913 20.5089,53.5576 5.9221,13.9857 9.47984,24.0652 8.74797,24.7841 -1.57621,1.5484 -55.82945,5.4806 -75.61529,5.4806 -10.196,0 -14.76699,0.4632 -14.16604,1.4356 0.48798,0.7895 5.98028,3.9252 12.20512,6.9682 13.76951,6.7311 22.2435,13.9557 33.94303,28.9387 4.89754,6.272 13.92153,15.5881 20.05331,20.7025 l 11.1487,9.2988 -7.46422,6.9477 c -8.40358,7.8219 -25.63927,17.3537 -35.86734,19.8355 -3.7423,0.9081 -7.25113,2.0453 -7.79739,2.5271 -0.54626,0.4818 8.65375,5.074 20.44446,10.2049 11.79071,5.1309 24.64858,11.4536 28.57305,14.0504 8.26126,5.4665 15.35351,13.7999 15.35351,18.0402 0,4.4081 -22.43187,26.5557 -30.52036,30.1336 -3.57842,1.5829 -6.18683,3.1974 -5.79648,3.5878 2.07125,2.0712 22.12223,4.6029 33.59091,4.2412 l 12.94816,-0.4084 0.68148,8.8593 c 0.7074,9.1961 -0.23231,22.9633 -1.93042,28.2815 -1.20388,3.7703 0.73806,3.9381 11.90787,1.0287 z m 7.75483,-35.1028 c 0.0272,-3.3708 -8.89669,-33.7297 -9.91527,-33.7315 -1.71849,0 -6.38526,8.5354 -7.29428,13.3458 -1.22947,6.5063 2.84415,16.2368 8.15259,19.4738 4.89535,2.985 9.03687,3.402 9.05696,0.9119 z m 178.68544,-37.9297 c 12.15432,-8.6547 10.3156,-27.7764 -3.31332,-34.4568 -2.84399,-1.394 -5.44094,-2.2646 -5.771,-1.9345 -0.33006,0.3301 -0.0303,3.924 0.66618,7.9865 0.69646,4.0624 1.6699,12.753 2.16319,19.3122 0.49329,6.5593 1.20715,11.926 1.58636,11.926 0.37921,0 2.48007,-1.2751 4.66859,-2.8334 z m -151.73722,-201.1546 c 0.79073,-2.3726 1.07889,-4.6726 0.64034,-5.1111 -1.17761,-1.1776 -15.33206,-0.9704 -15.35673,0.2249 -0.0352,1.7032 11.54413,11.1314 12.4425,10.1311 0.45991,-0.5121 1.48316,-2.8723 2.27389,-5.2449 z m 103.66111,-0.1159 9.08073,-5.1111 -10.09016,-0.4046 c -5.54959,-0.2226 -10.67164,0.1768 -11.38234,0.8875 -1.58672,1.5867 0.0348,9.7394 1.93709,9.7394 0.75568,0 5.46028,-2.3001 10.45468,-5.1112 z m -144.46833,522.356 c 1.06296,-3.8632 1.5097,-4.0889 8.09139,-4.0889 3.83148,0 7.50713,-0.6133 8.16812,-1.363 0.66099,-0.7496 1.94679,-6.8829 2.85733,-13.6296 0.91053,-6.7467 3.26237,-20.9377 5.22631,-31.5356 l 3.57079,-19.2689 -2.94545,-3.7446 c -1.62,-2.0595 -2.94545,-4.4929 -2.94545,-5.4076 0,-4.9925 14.40457,-53.2488 19.0682,-63.8797 5.03961,-11.488 23.19835,-44.8614 26.0118,-47.8062 2.74853,-2.8769 2.32947,0.3937 -0.60949,4.757 -5.39515,8.0097 -19.17164,35.3819 -24.99935,49.6707 -5.78069,14.1735 -16.74523,51.5678 -16.74523,57.1093 0,4.4677 19.27942,22.6759 27.66012,26.1233 3.52207,1.4487 6.36739,2.9408 6.32294,3.3156 -0.0444,0.3748 -4.06927,4.0548 -8.94403,8.1778 -4.87477,4.1229 -13.46771,12.902 -19.09544,19.509 -9.96223,11.6958 -10.17585,12.0988 -8.09572,15.2735 1.87852,2.867 3.33069,3.3091 12.02581,3.6613 l 9.88929,0.4007 z m 26.43471,-20.7852 c 4.11684,-6.1689 13.10955,-15.4888 21.85786,-22.6531 6.69447,-5.4824 7.93046,-7.6729 4.32947,-7.6729 -3.45803,0 -10.07428,-3.9587 -16.47163,-9.8556 -3.30294,-3.0446 -6.20895,-5.2925 -6.4578,-4.9955 -0.24885,0.297 -2.11703,10.9667 -4.15151,23.7104 -2.03447,12.7437 -3.94574,23.9371 -4.24726,24.8741 -1.12585,3.4988 1.84681,1.5285 5.14087,-3.4074 z m -177.84884,-64.5909 c -6.4503,-2.4081 -4.10892,-3.8292 4.9199,-2.9861 4.76743,0.4452 9.00037,0.2688 9.40653,-0.392 0.86493,-1.4072 -2.72581,-37.4181 -3.84239,-38.5347 -0.41641,-0.4164 -2.409,0.1691 -4.42798,1.3013 -2.7827,1.5603 -4.18805,4.0049 -5.8084,10.1033 -2.34964,8.8434 -6.14,12.5448 -4.71568,4.6051 0.45117,-2.515 1.27466,-7.3326 1.82998,-10.7058 1.13895,-6.9183 4.44981,-9.3714 13.37814,-9.9118 5.03511,-0.3048 5.15184,-0.2011 6.15194,5.4653 0.5607,3.1769 1.20603,13.9102 1.43408,23.8519 l 0.41463,18.0758 -7.4963,0.2635 c -4.12297,0.145 -9.18297,-0.3661 -11.24445,-1.1358 z m 460.00034,0.1484 c -5.84741,-2.3504 -3.08685,-3.7342 5.9951,-3.0052 l 9.06177,0.7274 -0.86417,-6.6769 c -0.47529,-3.6723 -1.21862,-11.277 -1.65184,-16.8992 -1.12026,-14.5384 -1.63494,-16.3556 -4.63243,-16.3556 -4.17627,0 -6.37984,3.3178 -8.13759,12.2523 -0.90487,4.5994 -2.26615,8.1555 -3.02507,7.9025 -1.61479,-0.5382 -1.63213,-0.9629 -0.4056,-9.9325 1.54037,-11.2648 2.38177,-12.4514 10.15013,-14.315 3.96703,-0.9517 7.5212,-1.1688 8.17395,-0.4993 1.54659,1.5864 4.0765,25.1266 4.0765,37.9309 v 10.276 l -7.83704,-0.086 c -4.31037,-0.048 -9.21704,-0.6411 -10.90371,-1.319 z m -462.38553,-102.6828 c 0,-1.7759 0.9457,-8.652 2.10156,-15.2801 l 2.10156,-12.0513 -3.54264,-7.894 c -4.92822,-10.9815 -2.34114,-15.0089 2.74977,-4.2806 l 2.37875,5.0128 2.56141,-3.2871 c 4.15005,-5.3259 4.47454,-8.8769 1.28306,-14.0409 -4.47249,-7.2366 -1.02154,-7.1177 5.24922,0.181 6.538,7.6097 17.06705,27.0771 15.25162,28.1991 -1.17166,0.7241 -10.34889,-10.7987 -11.97454,-15.035 -1.37486,-3.5829 -4.39928,-1.9197 -5.82143,3.2012 -1.93328,6.9614 -1.83935,7.7298 1.2913,10.563 2.72097,2.4624 3.69988,6.1333 1.63556,6.1333 -0.59971,0 -1.82637,-0.736 -2.72593,-1.6355 -1.02509,-1.0251 -2.08796,-1.1523 -2.84762,-0.3408 -1.10658,1.1821 -4.02471,10.67 -6.16221,20.0356 -1.04805,4.5921 -3.52944,4.9571 -3.52944,0.5193 z m 459.13693,2.5926 c -0.34994,-0.3499 0.27636,-7.4 1.39177,-15.6667 1.82154,-13.5002 1.81233,-15.4827 -0.0905,-19.4729 -5.38366,-11.2897 -3.88483,-18.603 1.60655,-7.839 1.52973,2.9985 3.06306,5.4518 3.40741,5.4518 0.34434,0 1.89999,-2.497 3.45699,-5.549 l 2.83091,-5.549 -2.87545,-4.8736 c -1.74881,-2.964 -2.38449,-5.3645 -1.62241,-6.1266 2.78456,-2.7845 22.86338,27.3748 21.76279,32.6888 -0.34378,1.6599 -2.46181,-0.3651 -7.15674,-6.8424 -3.66765,-5.06 -7.07205,-9.2 -7.56535,-9.2 -1.3357,0 -4.06037,6.5327 -4.06037,9.7352 0,1.5357 1.20855,4.4894 2.68566,6.5638 3.04013,4.2695 2.3494,6.1224 -1.40765,3.7761 -1.38435,-0.8646 -2.8526,-1.2363 -3.26278,-0.8261 -0.41018,0.4102 -2.11964,6.0603 -3.7988,12.5558 -2.84982,11.024 -3.68717,12.7887 -5.30207,11.1738 z m -458.19108,-112.5253 c -1.93086,-1.5188 -3.85922,-3.8598 -4.28525,-5.202 -1.66524,-5.2468 7.23497,-24.6399 14.14611,-30.8237 3.64548,-3.2619 5.72278,-2.2356 11.98584,5.9216 8.9711,11.6841 8.62026,23.3653 -0.89435,29.7772 -6.03187,4.0649 -16.00248,4.2204 -20.95235,0.3269 z m 16.6752,-3.3215 c 6.41152,-3.3155 7.43369,-10.9713 2.75522,-20.6357 -4.35378,-8.9937 -6.30096,-9.9931 -10.1616,-5.2153 -4.2667,5.2803 -10.21467,17.4312 -10.21467,20.8672 0,6.0557 10.05092,8.8985 17.62105,4.9838 z m 443.92606,3.2581 c -2.71704,-2.1372 -3.59095,-4.0449 -3.59014,-7.837 0.002,-8.7651 12.07128,-30.2271 16.99854,-30.2271 2.90384,0 11.06605,10.0367 13.63711,16.7689 3.24575,8.4989 1.9883,14.5388 -4.14858,19.927 -4.055,3.5604 -5.87178,4.193 -12.04064,4.193 -5.28608,0 -8.24331,-0.7694 -10.85629,-2.8248 z m 17.70238,-3.8698 c 5.05173,-3.0804 6.33033,-8.5445 3.75341,-16.0403 -1.84459,-5.3655 -5.94373,-11.5591 -8.13336,-12.2889 -1.93537,-0.6452 -11.21205,14.0421 -12.95312,20.508 -1.36011,5.051 -1.22271,5.7774 1.51158,7.9915 3.90549,3.1625 10.47186,3.0918 15.82149,-0.1703 z m -474.54799,-92.9131 c -0.43292,-0.7005 2.00641,-2.471 5.42073,-3.9346 3.86368,-1.6561 7.24008,-4.354 8.94143,-7.1445 5.13129,-8.4162 2.25703,-20.8184 -4.04332,-17.4466 -1.37988,0.7385 -4.4417,3.2756 -6.80404,5.6379 -2.80413,2.8042 -4.7587,3.8317 -5.63047,2.9599 -1.74009,-1.7401 -0.97611,-24.9526 0.82158,-24.9624 0.74963,0 1.54691,3.3729 1.77172,7.5045 0.22482,4.1316 0.64976,7.512 0.94432,7.512 0.29456,0 2.72431,-1.2914 5.39945,-2.8698 6.09457,-3.5958 10.85688,-2.6126 13.66714,2.8219 3.45053,6.6726 1.92563,16.2885 -3.7007,23.3365 -3.39475,4.2525 -15.33489,8.9361 -16.78784,6.5852 z m 456.7644,0.4412 c -1.59331,-1.5933 -0.69202,-2.7833 2.7653,-3.651 11.26398,-2.8271 17.73102,-15.5203 12.04407,-23.6396 -2.5016,-3.5715 -5.27316,-2.6437 -12.48317,4.1791 -5.4981,5.2028 -6.09534,4.012 -5.55425,-11.0746 0.45238,-12.6132 2.90832,-15.1433 3.53421,-3.6409 0.22482,4.1316 0.67,7.512 0.98929,7.512 0.31928,0 2.58868,-1.2244 5.04309,-2.7208 5.69905,-3.4747 8.46705,-3.4392 11.81248,0.1517 8.85361,9.5033 1.27768,28.3463 -13.0399,32.4331 -2.37988,0.6793 -4.67988,0.8823 -5.11112,0.451 z m -457.03627,-50.8019 c -1.68666,-0.678 -3.06667,-1.8658 -3.06667,-2.6396 0,-2.9944 19.14594,-0.5217 21.15714,2.7325 1.03219,1.6701 -13.89497,1.5935 -18.09047,-0.093 z m 456.59294,0 c -4.72442,-1.899 -3.63697,-4.0473 2.04444,-4.0388 6.4059,0.01 15.33335,2.423 15.33335,4.1453 0,1.6309 -13.25747,1.5496 -17.37779,-0.1065 z m -457.54441,-61.4038 c -0.38505,-1.0624 -0.86515,-10.8076 -1.0669,-21.656 l -0.36681,-19.7245 15.67408,-1.5822 c 8.62075,-0.8701 16.18753,-1.11 16.81507,-0.5331 1.76383,1.6218 -0.26834,2.31 -12.04469,4.0791 -5.99705,0.901 -11.82372,2.1027 -12.94816,2.6705 -1.62594,0.821 -2.12302,4.6244 -2.42827,18.5799 -0.35029,16.015 -1.79561,23.2395 -3.63432,18.1663 z m 456.66362,-4.2904 c -2.014,-16.3913 -2.29688,-34.696 -0.55795,-36.1048 0.97871,-0.793 6.99281,-1.8485 13.36467,-2.3456 6.37186,-0.4971 13.27186,-1.2271 15.33335,-1.6223 2.66494,-0.5108 3.74815,-0.1597 3.74815,1.2148 0,1.3886 -3.36048,2.4261 -11.92594,3.6822 -17.73027,2.6 -16.69631,1.2482 -16.69631,21.8279 0,17.254 -1.85467,24.8339 -3.26597,13.3478 z m -449.67908,-14.3375 c -0.90141,-1.5309 1.20339,-6.3233 3.67983,-8.3786 3.31186,-2.7486 4.37141,1.468 1.47837,5.8833 -2.32247,3.5445 -4.04871,4.3796 -5.1582,2.4953 z m 457.03394,-1.7037 c 0,-1.4993 1.38001,-4.1059 3.06667,-5.7926 l 3.06667,-3.0667 0.45027,3.1791 c 0.4318,3.0487 -3.03009,8.4061 -5.43188,8.4061 -0.63345,0 -1.15173,-1.2266 -1.15173,-2.7259 z"
       id="path69"
       sodipodi:nodetypes="ccsssssssssssssssssccssssscccssscsssssscsssssssssscssssscsssssssscssssssssscsssssssssssssssscsscsssssssssscssssssssssssssssssscccssccsscccsssscsssscssssssssssssssssssssssssssssssssssssssssssssssscccssscssssssssssssssssccsssssssssccssssssssscssscsscsssssssscssssssccsssssssssssssssssssssssssssscssssssssssssssssssssssssssscsssssscssssssssssssssssssssssssssssscsssssssssssssssssssssssssssssssssssssssssssssssscsscssscsssccsssssssssssssssssssssssssssssssssssssssscssssssssssscsscsssssscsssssscssssssssscsssssssscsssssssssssssssssssssscssssssssscsssscssscssssscsssssscsssscsssscsssssssssssssccssssssssssssssssssscsscscsssssssssccccsscsscsssssssssssssssssscsssssssssssssssssssssssssssssssssssssssssscssssssssssssssssssssssscsssscsssssssssssssssssssscsss" /><g
       id="text70"><path
         style="color:#000000;-inkscape-font-specification:Impact;fill:#161814;fill-opacity:1;stroke-linecap:round;stroke-linejoin:round;-inkscape-stroke:none"
         d="m -796.795,1806.4894 h 47.94368 q 19.44885,0 29.85172,3.053 10.51595,3.0531 15.71738,8.8199 5.31451,5.7668 7.12371,14.0212 1.92227,8.1414 1.92227,25.3288 v 15.9435 q 0,17.5266 -3.61839,25.5549 -3.61839,8.0283 -13.34282,12.3251 -9.61135,4.2969 -25.21566,4.2969 h -12.77744 v 73.7247 H -796.795 Z m 47.60445,31.3217 v 46.5868 q 2.03535,0.1131 3.50532,0.1131 6.55833,0 9.04597,-3.1661 2.60072,-3.2792 2.60072,-13.4559 v -15.0389 q 0,-9.3852 -2.93994,-12.2121 -2.93994,-2.8269 -12.21207,-2.8269 z m 145.07485,-31.3217 27.251,183.068 h -48.7352 l -2.37457,-32.9048 h -17.07428 l -2.82687,32.9048 h -49.30057 l 24.19799,-183.068 z m -25.21566,117.7108 q -3.61839,-31.0956 -7.23678,-76.7777 -7.23679,52.4666 -9.04598,76.7777 z m 169.83821,-50.3183 H -507.0976 V 1857.26 q 0,-15.7174 -1.3569,-19.675 -1.35689,-3.9576 -6.44525,-3.9576 -4.40992,0 -5.99296,3.3922 -1.58305,3.3922 -1.58305,17.4135 v 87.859 q 0,12.3252 1.58305,16.2828 1.58304,3.8445 6.33218,3.8445 5.20144,0 7.01063,-4.4099 1.92227,-4.4099 1.92227,-17.1873 v -21.7104 h -9.61135 v -27.8163 h 55.74583 v 98.2619 h -29.96479 l -4.40992,-13.1167 q -4.86221,8.4806 -12.32514,12.7774 -7.34986,4.1838 -17.41351,4.1838 -11.98591,0 -22.50186,-5.7668 -10.40287,-5.8799 -15.83046,-14.4736 -5.42759,-8.5936 -6.78448,-17.9788 -1.3569,-9.4983 -1.3569,-28.3818 v -54.3889 q 0,-26.2334 2.82687,-38.1062 2.82687,-11.8728 16.16968,-21.7103 13.45589,-9.9506 34.71394,-9.9506 20.91882,0 34.71393,8.5937 13.79511,8.5936 17.97888,20.4665 4.18376,11.7598 4.18376,34.2616 z m 18.43118,-67.3925 h 79.37845 v 36.6362 h -31.774 v 34.714 h 29.73865 v 34.827 h -29.73865 v 40.2546 h 34.94009 v 36.6362 h -82.54454 z"
         id="path72" /><path
         style="color:#000000;-inkscape-font-specification:Impact;fill:#161814;fill-opacity:1;stroke-linecap:round;stroke-linejoin:round;-inkscape-stroke:none"
         d="m -516.36914,1801.5859 c -14.33715,0 -26.15894,3.3661 -35.34375,10.1582 -9.0294,6.6576 -14.61418,14.1007 -16.57031,22.3164 -1.92526,8.0861 -2.85547,20.8247 -2.85547,38.3516 v 54.3887 c 0,12.6143 0.4487,22.1018 1.36719,28.5312 0.92664,6.4093 3.24748,12.5501 6.9375,18.3926 3.72321,5.8951 9.1462,10.8402 16.20507,14.83 a 1.0584408,1.0584408 0 0 0 0.0117,0.01 c 7.15927,3.926 14.84944,5.8984 23.00977,5.8984 6.85575,0 12.85712,-1.4303 17.9375,-4.3222 a 1.0584408,1.0584408 0 0 0 0.006,0 c 4.55759,-2.6241 8.36244,-6.4467 11.48828,-11.2891 l 3.71484,11.0488 a 1.0584408,1.0584408 0 0 0 1.00391,0.7207 h 29.96484 a 1.0584408,1.0584408 0 0 0 1.05664,-1.0586 v -98.2617 a 1.0584408,1.0584408 0 0 0 -1.05664,-1.0586 h -55.74609 a 1.0584408,1.0584408 0 0 0 -1.05859,1.0586 v 27.8164 a 1.0584408,1.0584408 0 0 0 1.05859,1.0586 h 8.55273 v 20.6524 c 0,8.4652 -0.70208,14.1669 -1.83398,16.7636 a 1.0584408,1.0584408 0 0 0 -0.01,0.022 c -1.07094,2.6104 -2.86272,3.7539 -6.03125,3.7539 -2.87744,0 -4.43572,-0.9701 -5.34961,-3.1836 -0.91415,-2.2879 -1.50781,-7.7159 -1.50781,-15.8847 v -87.8594 c 0,-4.6539 0.13338,-8.4183 0.39258,-11.2695 0.2592,-2.8513 0.68227,-4.8198 1.0918,-5.6973 0.8961,-1.9202 2.36462,-2.7813 5.0332,-2.7813 1.55893,0 2.73902,0.3044 3.60156,0.834 0.86255,0.5297 1.45727,1.281 1.84375,2.4082 0.7652,2.2318 1.29883,8.8843 1.29883,19.3321 v 16.623 a 1.0584408,1.0584408 0 0 0 1.05859,1.0567 h 47.60547 a 1.0584408,1.0584408 0 0 0 1.05664,-1.0567 v -7.916 c 0,-15.0647 -1.3843,-26.5727 -4.24414,-34.6133 -2.88375,-8.1836 -9.07438,-15.1943 -18.41601,-21.0137 -9.40051,-5.856 -21.18265,-8.7539 -35.27344,-8.7539 z m 0,2.1172 c 13.80094,0 25.16134,2.8314 34.1543,8.4336 9.05182,5.6388 14.84446,12.2731 17.53906,19.9199 a 1.0584408,1.0584408 0 0 0 0.002,0 c 2.71772,7.6391 4.12305,18.9707 4.12305,33.9063 v 6.8574 h -45.48828 v -15.5644 c 0,-10.5087 -0.37006,-16.9726 -1.41406,-20.0176 -0.51812,-1.5112 -1.45242,-2.7378 -2.73829,-3.5274 -1.28587,-0.7895 -2.87567,-1.1464 -4.70898,-1.1464 -3.21131,0 -5.73655,1.4011 -6.95117,4.0039 -0.64584,1.3839 -1.01473,3.4471 -1.28321,6.4004 -0.26847,2.9532 -0.39843,6.7672 -0.39843,11.4609 v 87.8594 c 0,8.2621 0.46213,13.6856 1.6582,16.6758 a 1.0584408,1.0584408 0 0 0 0.004,0.01 c 1.19723,2.9076 3.85887,4.5 7.31054,4.5 3.76084,0 6.63841,-1.793 7.98243,-5.0527 1.42954,-3.284 2.00976,-9.0365 2.00976,-17.6035 v -21.711 a 1.0584408,1.0584408 0 0 0 -1.05859,-1.0586 h -8.55274 v -25.6992 h 53.62891 V 1988.5 h -28.14649 l -4.16796,-12.3965 a 1.0584408,1.0584408 0 0 0 -1.91993,-0.1894 c -3.16362,5.5179 -7.13505,9.6228 -11.93554,12.3867 -4.71864,2.685 -10.32604,4.0429 -16.88672,4.043 -7.81644,0 -15.12186,-1.8722 -21.98047,-5.6309 h -0.002 c -0.003,0 -0.007,0 -0.01,0 -6.80577,-3.8488 -11.93376,-8.5513 -15.44531,-14.1113 -3.5464,-5.6151 -5.74814,-11.4589 -6.63086,-17.5625 v 0 c -0.89057,-6.2351 -1.3457,-15.6679 -1.3457,-28.2305 v -54.3887 c 0,-17.4509 0.95297,-30.117 2.79687,-37.8613 1.81293,-7.6143 7.00928,-14.6447 15.76953,-21.1035 8.75636,-6.4753 20.07905,-9.7442 34.08594,-9.7442 z m -280.42578,1.7285 a 1.0584408,1.0584408 0 0 0 -1.0586,1.0586 v 183.0664 a 1.0584408,1.0584408 0 0 0 1.0586,1.0586 h 47.60351 a 1.0584408,1.0584408 0 0 0 1.0586,-1.0586 v -72.666 h 11.71875 c 10.49799,0 19.04267,-1.4361 25.64453,-4.3867 h 0.004 c 6.65923,-2.9434 11.34639,-7.2452 13.875,-12.8555 2.5308,-5.6152 3.71289,-14.233 3.71289,-25.9902 v -15.9434 c 0,-11.4956 -0.63188,-19.9786 -1.95118,-25.5684 -1.2414,-5.6546 -3.70158,-10.5093 -7.36718,-14.4902 -3.64225,-4.0381 -9.07013,-7.0549 -16.20508,-9.127 h -0.004 c -7.10601,-2.0848 -17.12751,-3.0938 -30.14648,-3.0938 z m 123.8164,0 a 1.0584408,1.0584408 0 0 0 -1.04882,0.92 l -24.19727,183.0664 a 1.0584408,1.0584408 0 0 0 1.04883,1.1972 h 49.30078 a 1.0584408,1.0584408 0 0 0 1.05469,-0.9668 l 2.74219,-31.9375 h 15.11914 l 2.30273,31.9219 a 1.0584408,1.0584408 0 0 0 1.05664,0.9824 h 48.73438 a 1.0584408,1.0584408 0 0 0 1.04687,-1.2129 l -27.25,-183.0683 a 1.0584408,1.0584408 0 0 0 -1.04687,-0.9024 z m 231.91602,0 a 1.0584408,1.0584408 0 0 0 -1.05859,1.0586 v 183.0664 a 1.0584408,1.0584408 0 0 0 1.05859,1.0586 h 82.54492 a 1.0584408,1.0584408 0 0 0 1.0586,-1.0586 v -36.6347 a 1.0584408,1.0584408 0 0 0 -1.0586,-1.0586 h -33.88086 v -38.1387 h 28.67969 a 1.0584408,1.0584408 0 0 0 1.05859,-1.0586 v -34.8262 a 1.0584408,1.0584408 0 0 0 -1.05859,-1.0585 h -28.67969 v -32.5977 h 30.71485 a 1.0584408,1.0584408 0 0 0 1.05859,-1.0586 v -36.6348 a 1.0584408,1.0584408 0 0 0 -1.05859,-1.0586 z m -354.67383,2.1153 h 46.88477 c 12.91051,0 22.79044,1.0265 29.55469,3.0117 a 1.0584408,1.0584408 0 0 0 0.002,0 c 6.88415,1.9987 11.93431,4.8616 15.22656,8.5117 a 1.0584408,1.0584408 0 0 0 0.008,0.01 c 3.41303,3.7035 5.69838,8.1877 6.86914,13.5293 a 1.0584408,1.0584408 0 0 0 0.002,0.018 c 1.24324,5.2654 1.89453,13.6671 1.89453,25.0859 v 15.9434 c 0,11.6115 -1.23168,20.0299 -3.52539,25.1191 -2.29539,5.0929 -6.50024,9.0073 -12.80469,11.793 a 1.0584408,1.0584408 0 0 0 -0.004,0 c -6.21274,2.7775 -14.47943,4.2031 -24.78515,4.2031 h -12.77735 a 1.0584408,1.0584408 0 0 0 -1.05664,1.0586 v 72.668 h -45.48828 z m 123.68555,0 h 67.02344 L -578.0918,1988.5 h -46.52343 l -2.30274,-31.9238 a 1.0584408,1.0584408 0 0 0 -1.05664,-0.9824 h -17.07422 a 1.0584408,1.0584408 0 0 0 -1.05469,0.9687 l -2.74414,31.9375 h -47.12109 z m 232.04687,0 h 77.26172 v 34.5195 h -30.71484 a 1.0584408,1.0584408 0 0 0 -1.05859,1.0586 v 34.7148 a 1.0584408,1.0584408 0 0 0 1.05859,1.0586 h 28.67969 v 32.709 h -28.67969 a 1.0584408,1.0584408 0 0 0 -1.05859,1.0586 v 40.2559 a 1.0584408,1.0584408 0 0 0 1.05859,1.0586 h 33.88086 V 1988.5 h -80.42774 z m -309.1875,29.2051 a 1.0584408,1.0584408 0 0 0 -1.05664,1.0585 v 46.5879 a 1.0584408,1.0584408 0 0 0 0.99805,1.0567 c 1.37099,0.076 2.55733,0.1133 3.56445,0.1133 4.53986,0 7.93686,-1.1035 9.875,-3.5664 2.06503,-2.6038 2.83008,-7.2387 2.83008,-14.1133 v -15.0391 c 0,-6.3673 -0.88192,-10.6844 -3.26367,-12.9746 -2.36065,-2.2699 -6.6583,-3.123 -12.94727,-3.123 z m 1.0586,2.2168 c 5.34638,0.1338 8.97167,1.039 10.41992,2.4316 1.53816,1.479 2.61523,5.3029 2.61523,11.4492 v 15.0391 c 0,6.6943 -0.96849,11.0303 -2.37109,12.7988 a 1.0584408,1.0584408 0 0 0 -0.002,0 c -1.37928,1.7555 -4.01294,2.7617 -8.21485,2.7617 -0.6768,0 -1.57278,-0.041 -2.44726,-0.078 z m 111.5957,7.3964 a 1.0584408,1.0584408 0 0 0 -1.08008,0.9121 c -4.82591,34.9878 -7.84304,60.5885 -9.05273,76.8438 a 1.0584408,1.0584408 0 0 0 1.05664,1.1367 h 16.28125 a 1.0584408,1.0584408 0 0 0 1.05273,-1.1797 c -2.41006,-20.7115 -4.82281,-46.2924 -7.23437,-76.7383 a 1.0584408,1.0584408 0 0 0 -1.02344,-0.9746 z m -0.24219,10.9395 c 2.09093,25.416 4.1813,47.7155 6.27344,65.8379 h -13.9375 c 1.10929,-14.4327 3.78514,-37.015 7.66406,-65.8379 z"
         id="path73" /></g></g></svg>
