<?xml version="1.0" encoding="UTF-8" standalone="no"?>
<!-- Created with Inkscape (http://www.inkscape.org/) -->

<svg
   width="499.28757"
   height="473.23376"
   viewBox="0 0 132.10317 125.20977"
   version="1.1"
   id="svg1"
   inkscape:version="1.3.2 (091e20e, 2023-11-25, custom)"
   sodipodi:docname="desing.svg"
   xml:space="preserve"
   xmlns:inkscape="http://www.inkscape.org/namespaces/inkscape"
   xmlns:sodipodi="http://sodipodi.sourceforge.net/DTD/sodipodi-0.dtd"
   xmlns="http://www.w3.org/2000/svg"
   xmlns:svg="http://www.w3.org/2000/svg"><sodipodi:namedview
     id="namedview1"
     pagecolor="#4c4c4c"
     bordercolor="#6f6f6f"
     borderopacity="1"
     inkscape:showpageshadow="false"
     inkscape:pageopacity="0.0"
     inkscape:pagecheckerboard="0"
     inkscape:deskcolor="#4c4c4c"
     inkscape:document-units="px"
     inkscape:zoom="0.20989583"
     inkscape:cx="-252.5062"
     inkscape:cy="-45.260546"
     inkscape:window-width="1920"
     inkscape:window-height="1009"
     inkscape:window-x="1912"
     inkscape:window-y="-8"
     inkscape:window-maximized="1"
     inkscape:current-layer="layer1" /><defs
     id="defs1" /><g
     inkscape:label="Capa 1"
     inkscape:groupmode="layer"
     id="layer1"
     transform="translate(-444.80509,339.0877)"><ellipse
       style="opacity:1;fill:#68ac52;fill-opacity:1;stroke:none;stroke-width:23.3967;stroke-linecap:round;stroke-linejoin:round;stroke-dasharray:none;stroke-opacity:1"
       id="path65"
       cx="510.85666"
       cy="-276.48282"
       rx="66.05159"
       ry="62.604885"
       inkscape:export-filename="rickandmortyfront\rym\src\assets\svg\green-portal.svg"
       inkscape:export-xdpi="96"
       inkscape:export-ydpi="96" /><path
       style="fill:#c6f96b;fill-opacity:1;stroke-width:0.376754"
       d="m 511.15046,-217.65046 c -0.55372,-0.0935 -1.20415,-0.22006 -1.44539,-0.28125 -0.24126,-0.0611 -1.15636,-0.13406 -2.03357,-0.16193 -2.19085,-0.0697 -2.84097,-0.3152 -2.84097,-1.07329 0,-0.40648 -0.0951,-0.42801 -2.14318,-0.48481 -2.23411,-0.062 -2.40699,-0.12084 -3.25718,-1.10924 -1.00522,-1.16859 -0.6903,-1.04597 -2.89842,-1.12874 l -1.9537,-0.0732 -0.6644,-0.50025 c -1.07831,-0.81187 -1.29854,-1.52881 -0.79348,-2.58311 0.20728,-0.43269 0.15698,-0.70167 -0.2314,-1.23769 -0.50303,-0.69418 -0.84859,-0.80949 -1.84513,-0.61563 -1.35372,0.26336 -2.46864,-0.2077 -3.34575,-1.41365 -0.35239,-0.48447 -0.6466,-0.76331 -1.03931,-0.98493 -0.58676,-0.33115 -0.85792,-0.64485 -1.17291,-1.35696 -0.26769,-0.60517 -0.63552,-1.02292 -1.11685,-1.26847 -0.2202,-0.11235 -0.6092,-0.39961 -0.86447,-0.6384 -0.63532,-0.59424 -0.91475,-0.68837 -1.60876,-0.54189 -0.62399,0.13171 -1.0963,-0.0109 -2.70628,-0.81398 -0.88782,-0.44316 -1.10252,-0.46971 -1.31737,-0.16296 -0.36641,0.52313 0.0222,1.35328 0.82639,1.76498 0.53283,0.27283 2.1057,1.70533 2.17484,1.98076 0.16928,0.67452 -0.59012,0.72027 -2.15958,0.13008 -1.6704,-0.62817 -2.0577,-0.85209 -2.91454,-1.6851 l -0.77134,-0.74992 -0.95964,0.11794 c -1.06565,0.13097 -0.97846,0.1565 -2.28709,-0.66979 -0.3464,-0.21871 -0.67235,-0.33409 -1.04667,-0.37049 -1.01973,-0.0992 -1.19592,-0.15185 -1.55074,-0.46338 -0.1952,-0.17139 -0.52953,-0.56873 -0.74292,-0.88297 -0.21339,-0.31423 -0.4907,-0.654 -0.61622,-0.75505 -0.59221,-0.47667 -0.6812,-0.70216 -0.61072,-1.54736 l 0.0655,-0.78574 -0.44002,-0.42054 c -0.24202,-0.2313 -0.71968,-0.56901 -1.06148,-0.75047 l -0.62144,-0.32992 -0.0995,0.26166 c -0.16495,0.43385 -0.045,0.7621 0.54615,1.4947 0.64594,0.80045 0.79032,1.28774 0.46795,1.57947 -0.60713,0.54945 -1.93899,-0.61168 -3.04012,-2.65037 -0.75408,-1.39612 -0.74758,-1.3885 -1.32209,-1.55246 -0.40919,-0.11679 -1.75663,-1.20962 -2.09995,-1.70313 -0.0917,-0.13171 -0.3168,-0.69169 -0.5004,-1.24439 -0.32425,-0.97613 -0.3559,-1.02633 -1.10513,-1.75416 -1.44852,-1.40712 -1.74123,-2.43718 -1.27643,-4.4917 0.23469,-1.03745 0.13927,-1.44052 -0.65466,-2.76527 -0.92287,-1.53987 -1.19192,-3.28114 -0.60961,-3.94533 0.48037,-0.54792 0.30005,-1.16336 -0.8639,-2.94841 -1.20705,-1.85116 -1.34006,-2.50381 -0.78694,-3.86111 0.26814,-0.65797 0.31441,-0.89048 0.29558,-1.48536 -0.0212,-0.6685 0.18477,-1.73623 0.63384,-3.28682 0.22058,-0.76162 0.65529,-1.14261 0.92834,-0.81361 0.20319,0.24482 0.25128,1.85518 0.0774,2.59395 -0.20823,0.8851 -0.20197,1.10107 0.054,1.859 0.19112,0.56589 0.20167,0.69848 0.0996,1.25187 -0.0798,0.43334 -0.0841,0.77653 -0.0144,1.14448 0.0548,0.28904 0.0997,0.54298 0.0997,0.56428 0,0.0213 0.26317,0.32166 0.58482,0.66741 0.32166,0.34576 0.63926,0.79354 0.70577,0.99508 0.0666,0.20153 0.2066,0.41227 0.31129,0.4683 0.27101,0.14505 0.46986,0.57831 0.64288,1.40087 0.31467,1.49588 1.07788,2.54415 1.78376,2.44999 0.84485,-0.11268 0.90469,-0.23852 0.9139,-1.92175 0.007,-1.48738 -0.002,-1.54676 -0.4013,-2.30664 -0.0791,-0.15077 -0.19341,-0.67784 -0.25386,-1.17127 -0.15177,-1.23879 -0.3659,-1.64198 -1.12891,-2.12567 -1.72235,-1.09178 -2.49637,-4.17732 -1.59153,-6.34446 0.31807,-0.76175 0.27746,-1.33547 -0.16547,-2.33752 -0.39885,-0.90235 -0.37978,-1.33176 0.0992,-2.23315 0.32151,-0.60507 0.32734,-0.63916 0.3354,-1.96149 0.007,-1.33485 0.011,-1.35077 0.34742,-1.97125 1.24393,-2.29397 2.18437,-1.82773 1.60052,0.79349 l -0.20347,0.91345 0.32161,0.50597 c 0.68895,1.08384 0.72255,1.19361 0.59729,1.952 -0.17392,1.05323 -0.15404,1.24465 0.14344,1.3802 0.32062,0.14607 0.37659,0.11049 0.70343,-0.44722 0.26186,-0.44685 0.26381,-0.46451 0.18447,-1.66454 -0.10102,-1.52765 -0.10123,-2.71958 -7.6e-4,-3.57409 0.15196,-1.29045 -0.57093,-2.07469 -1.91241,-2.07469 -1.33372,0 -1.67881,-0.29681 -1.97342,-1.69726 -0.50996,-2.42428 0.26836,-4.75024 1.73674,-5.19017 0.92542,-0.27726 1.09327,-1.82389 0.29771,-2.7431 -0.39401,-0.45523 -0.42937,-0.56915 -0.39892,-1.28476 0.0211,-0.49295 -0.28242,-1.01614 -0.64153,-1.10628 -0.35408,-0.0889 -0.76408,0.31704 -1.16681,1.15518 -0.64536,1.34304 -1.09969,1.37929 -1.5744,0.12562 -0.36595,-0.9664 -0.36584,-1.24148 7.4e-4,-1.96359 0.32157,-0.63354 0.32281,-0.6416 0.2176,-1.42337 -0.20348,-1.51191 0.38264,-3.14761 1.48548,-4.14563 0.59428,-0.53779 0.79164,-0.90455 0.79164,-1.47105 0,-0.57336 1.12325,-1.78713 1.65388,-1.78713 0.31934,0 0.76999,0.46868 1.1229,1.16778 0.16991,0.3366 0.35603,0.64111 0.4136,0.67669 0.202,0.12484 0.73405,-0.30194 0.9725,-0.78009 0.13838,-0.27746 0.33772,-0.51475 0.4769,-0.56767 0.29754,-0.11312 0.36182,-0.36274 0.37992,-1.47527 0.0222,-1.36791 0.6635,-2.16264 1.8588,-2.30358 0.3904,-0.046 0.69699,-0.14819 0.87372,-0.29111 0.14976,-0.12112 0.47412,-0.35468 0.72084,-0.51905 0.24672,-0.16437 0.87472,-0.74343 1.39556,-1.28681 l 0.94699,-0.98796 0.89881,0.0561 0.8988,0.0561 1.09487,-0.54837 c 0.60215,-0.30161 1.29669,-0.58158 1.54342,-0.62218 0.56524,-0.093 0.6887,-0.15932 1.28925,-0.6927 0.5155,-0.45784 1.04263,-0.69293 2.36838,-1.05626 1.00656,-0.27585 1.32651,-0.22364 1.32651,0.21644 0,0.42109 -0.41396,0.78129 -1.812,1.57665 -0.85982,0.48919 -1.36677,0.86896 -2.12843,1.59447 -0.77623,0.73941 -1.24197,1.08609 -2.08292,1.55045 -0.74479,0.41127 -1.19536,0.73351 -1.44244,1.03159 -0.86284,1.04098 -1.14466,1.30548 -1.64162,1.54079 -0.82648,0.39131 -1.11802,0.74959 -1.42016,1.74534 -0.14449,0.47618 -0.34692,1.03222 -0.44982,1.23562 -0.65967,1.30397 0.51848,2.23697 1.50149,1.18908 0.71083,-0.75774 0.86975,-0.83047 1.6417,-0.75139 l 0.66179,0.0678 0.38793,-0.4202 c 0.21334,-0.23108 0.55006,-0.72873 0.74822,-1.10584 0.47763,-0.90891 0.73475,-1.07812 1.88188,-1.23833 1.06703,-0.14903 1.18052,-0.20704 1.68639,-0.86185 0.50081,-0.64827 0.85094,-0.81354 1.83741,-0.86732 1.08119,-0.0589 1.32837,0.14049 1.32837,1.07178 v 0.60263 h 0.30302 c 0.81448,0 1.44968,-0.62227 1.93334,-1.89398 0.42249,-1.11087 0.5958,-1.29815 1.13444,-1.2259 0.49397,0.0663 0.63795,-0.0807 0.91277,-0.93134 0.38883,-1.20357 0.63705,-1.58484 1.27295,-1.95529 0.34955,-0.20364 0.72364,-0.53423 0.95674,-0.84545 0.75147,-1.0033 1.57823,-1.18851 2.75823,-0.61788 0.68639,0.33194 0.90466,0.39447 1.19217,0.34162 1.1667,-0.21451 2.1423,-1.04191 2.84401,-2.41193 0.5819,-1.1361 0.76143,-1.27426 1.91831,-1.47622 1.15105,-0.20095 1.24644,-0.25711 2.35012,-1.38363 1.29877,-1.32561 1.23217,-1.30769 4.42129,-1.19053 l 2.31003,0.0849 0.42405,0.29836 c 0.28537,0.20079 0.54361,0.51938 0.78959,0.97411 0.7369,1.36218 0.95602,1.42924 2.35398,0.72046 2.02105,-1.0247 3.73674,-0.46392 4.36655,1.42723 0.36383,1.09246 0.55383,1.23461 1.94966,1.45858 0.19189,0.0308 0.53956,0.20761 0.7726,0.39293 0.63465,0.50468 1.57416,0.73398 2.30469,0.56247 0.91565,-0.215 1.44025,-0.2313 2.00882,-0.0625 1.2783,0.37961 2.78884,-0.0973 2.78884,-0.88046 0,-0.30115 -0.32965,-0.51187 -1.58364,-1.01229 -1.01203,-0.40386 -1.62485,-0.77881 -2.49458,-1.52636 -0.80199,-0.6893 -0.98128,-0.77829 -1.70339,-0.84557 -2.53652,-0.2363 -2.99007,-0.34648 -3.72094,-0.90394 -0.29453,-0.22465 -0.43066,-0.25554 -1.1259,-0.25554 -0.70367,0 -0.87299,-0.0396 -1.53569,-0.3589 -0.67208,-0.32383 -0.80092,-0.35317 -1.31947,-0.30042 -1.56671,0.15938 -2.75726,-0.75973 -2.0046,-1.5476 0.33869,-0.35455 0.17405,-0.58422 -0.41883,-0.58422 -0.17511,0 -0.54331,-0.0727 -0.8182,-0.16142 l -0.49981,-0.16142 -0.89142,0.41063 c -0.97509,0.44917 -1.21822,0.48535 -1.75489,0.26112 -0.65222,-0.27252 -1.30297,-0.19201 -2.45761,0.30405 -0.75391,0.32389 -1.36067,0.50316 -2.16923,0.64089 -0.75756,0.12905 -1.37745,0.30632 -1.90652,0.54521 -0.43119,0.19469 -0.83553,0.35397 -0.89852,0.35397 -0.063,0 -0.36975,0.0897 -0.68163,0.19932 -0.9452,0.33221 -1.32645,-0.0611 -0.75484,-0.77875 0.84156,-1.05651 2.61953,-1.89894 4.56621,-2.16357 0.43335,-0.0589 0.55846,-0.13341 0.96312,-0.57357 0.51677,-0.5621 1.12776,-0.72786 2.22938,-0.60485 0.46319,0.0517 0.57885,0.0151 1.54508,-0.48884 1.30047,-0.67829 1.40426,-0.70259 2.44724,-0.57298 0.82548,0.10254 0.86744,0.0976 1.46793,-0.17194 1.20006,-0.53879 4.13156,-0.36178 4.82691,0.29146 0.42023,0.39478 0.12279,1.28416 -0.56653,1.69409 -0.52708,0.31343 -0.60432,0.44151 -0.48048,0.79676 0.13988,0.40127 0.60672,0.35735 1.76615,-0.16615 1.21189,-0.54718 1.83131,-0.47627 2.46459,0.28216 0.27747,0.3323 0.30288,0.34043 1.27993,0.40978 1.64962,0.11708 1.98722,0.33973 1.99117,1.31328 0.006,1.17749 1.22241,1.69233 4.31463,1.82432 0.069,0.003 0.39384,0.25207 0.72184,0.55362 0.32802,0.30154 0.63039,0.54735 0.672,0.54625 0.0416,-9.4e-4 0.35548,-0.0425 0.69753,-0.0919 1.27728,-0.18475 2.56763,0.77185 2.81735,2.0886 0.12747,0.67218 0.65592,1.29869 1.5264,1.80961 1.39585,0.81932 1.50422,2.28226 0.15862,2.14162 -0.65738,-0.0686 -0.71253,-0.006 -0.40301,0.46425 0.45716,0.69335 0.98801,0.83242 1.9262,0.50463 0.89743,-0.31355 1.03773,-0.23571 1.6398,0.90959 0.49425,0.94016 0.55765,0.9919 1.41178,1.15158 0.98471,0.18411 1.61498,1.03822 1.61498,2.18855 0,0.62582 0.35648,1.0348 1.61472,1.85249 0.66784,0.43401 1.36273,0.92899 1.54422,1.09994 l 0.32995,0.31081 v 1.02052 c 0,1.60591 0.36247,2.7095 1.11624,3.39859 0.34246,0.31309 0.39981,0.43197 0.47915,0.9933 0.0704,0.49834 0.17771,0.76182 0.49107,1.20616 1.04556,1.4826 0.61909,3.47937 -0.47661,2.23144 -0.3116,-0.35489 -0.94661,-1.58539 -1.06316,-2.06016 -0.0356,-0.14526 -0.36407,-0.55139 -0.72977,-0.90251 -0.78001,-0.74886 -1.31216,-1.90656 -1.31216,-2.85456 0,-0.60146 -0.42881,-1.76602 -0.70463,-1.91362 -0.12271,-0.0657 -0.32641,-0.0595 -0.61951,0.0189 -0.89094,0.23829 -1.39726,-0.26113 -2.51405,-2.47987 l -0.56317,-1.11889 -0.58311,-0.2126 c -0.58317,-0.21263 -0.75109,-0.331 -1.17029,-0.82491 -0.1824,-0.21491 -0.31103,-0.26428 -0.69778,-0.26781 -0.97262,-0.008 -1.33641,-0.14055 -1.75325,-0.63437 -0.47112,-0.55816 -0.46435,-0.55793 -0.9535,-0.0341 -0.39015,0.41776 -0.40472,0.42352 -1.04752,0.41447 -0.69826,-0.01 -0.64076,0.0136 -2.85038,-1.1587 -0.57568,-0.3054 -1.38646,-0.7342 -1.80175,-0.95284 -0.53628,-0.28236 -0.94068,-0.41888 -1.39555,-0.47112 -0.36864,-0.0424 -0.85205,-0.18336 -1.13891,-0.33224 -0.40005,-0.20764 -0.69515,-0.27077 -1.49525,-0.31997 -1.18553,-0.0729 -1.4667,-0.197 -2.17802,-0.96128 -0.96457,-1.03635 -1.89087,-1.29495 -3.37365,-0.9418 -0.68129,0.16226 -0.93146,0.18377 -1.17009,0.10058 -0.27923,-0.0973 -0.3521,-0.0693 -0.91038,0.35035 -0.84108,0.63227 -1.25817,0.74551 -1.89818,0.51536 -0.86666,-0.31163 -1.23763,-0.24473 -1.82428,0.32907 -1.05747,1.03425 -2.82394,1.08186 -4.05201,0.1092 -0.47787,-0.37847 -2.9313,-1.73082 -3.3126,-1.8259 -0.4217,-0.10514 -0.98711,0.0927 -1.35805,0.47547 -0.26987,0.27844 -0.47586,0.3754 -1.08603,0.51115 -0.41414,0.0921 -1.14694,0.31967 -1.62845,0.50563 -0.7181,0.27733 -1.01089,0.3381 -1.62905,0.3381 -0.93856,0 -1.53198,0.43391 -1.7413,1.27329 -0.32712,1.31167 -0.83068,1.68931 -2.46861,1.85131 l -1.16356,0.11509 -0.10719,0.64794 c -0.16542,1.00013 -0.25685,1.06818 -1.94849,1.45003 -2.19969,0.49655 -2.6624,0.79372 -2.55041,1.63796 0.17266,1.30156 -1.45587,2.42919 -3.55311,2.46028 -0.91617,0.0136 -1.20585,0.0618 -2.00689,0.3339 -0.87619,0.29765 -0.98201,0.31212 -1.65151,0.22571 -1.31139,-0.16921 -2.08077,0.2677 -2.82498,1.60423 -0.74355,1.33529 -1.63303,1.95713 -2.79954,1.95713 -1.14791,0 -2.75466,1.52258 -2.75466,2.61037 0,1.59273 -0.66745,3.76825 -1.30493,4.25329 -0.84778,0.64507 -1.02976,1.19229 -0.7216,2.16988 0.24788,0.78639 -0.0966,1.92497 -0.81197,2.68345 -0.41278,0.43768 -0.42383,0.56628 -0.15773,1.83751 0.15758,0.75282 0.17472,1.02735 0.092,1.47467 -0.0856,0.46315 -0.0671,0.68898 0.11719,1.43518 0.4085,1.65318 0.20705,2.98181 -0.59025,3.89313 -0.4449,0.50854 -0.96106,1.83024 -0.92562,2.37024 0.0319,0.48545 -0.15365,0.91392 -0.88668,2.048 -0.57822,0.89457 -0.58455,1.0528 -0.0798,1.99085 0.41249,0.76665 0.4269,0.82315 0.39326,1.54339 -0.0592,1.26741 -0.0513,1.34539 0.16814,1.64898 0.11718,0.16216 0.28218,0.59941 0.36667,0.97165 0.35613,1.56912 0.59267,1.57078 0.75331,0.006 0.0742,-0.72227 0.15322,-1.04689 0.29979,-1.23034 0.46013,-0.57586 0.53269,-0.74825 0.66271,-1.57474 0.23976,-1.5238 0.92406,-2.563 1.38386,-2.10153 0.35158,0.35285 0.47396,1.34795 0.29138,2.36911 -0.30151,1.68612 -0.3012,2.08747 0.002,2.99872 0.32874,0.98711 0.29328,1.27097 -0.24971,1.99874 -0.21847,0.29281 -0.39668,0.55792 -0.39602,0.58915 7.6e-4,0.0311 0.0681,0.30347 0.15006,0.605 0.0819,0.30156 0.19023,0.93538 0.24074,1.4085 0.0716,0.67056 0.17066,1.01674 0.44927,1.57 l 0.35743,0.70978 h 0.55197 c 0.75065,0 1.00537,0.15777 1.79421,1.11125 1.05191,1.27147 1.09601,1.534 0.69139,4.11549 -0.46105,2.9416 -0.36667,3.3174 1.08511,4.32008 0.48192,0.33283 0.75929,0.79378 0.75929,1.26181 0,0.16101 0.19685,0.46925 0.55852,0.87457 0.75651,0.84785 0.94294,1.24714 1.00888,2.16083 0.0705,0.97702 0.2109,1.23715 0.90453,1.67596 0.31263,0.19779 0.77955,0.55471 1.03763,0.79317 1.00695,0.93045 1.37586,0.37898 0.59733,-0.89291 -0.31771,-0.51907 -0.35249,-0.6449 -0.33671,-1.21785 l 0.0176,-0.63895 -0.73395,-0.82566 c -0.87537,-0.98477 -1.11082,-1.39209 -0.96361,-1.66713 0.49586,-0.92654 2.89374,0.78766 3.77577,2.69926 0.74432,1.61313 1.64958,2.42843 2.86352,2.57899 0.81826,0.10144 1.31498,0.42674 1.84617,1.20898 0.21299,0.31367 0.47277,0.59743 0.57729,0.63059 0.10449,0.0331 0.47504,0.32938 0.82345,0.65824 0.96147,0.90751 2.07533,1.60327 2.65145,1.65617 0.7807,0.0715 0.86543,0.10753 1.32688,0.56105 0.33855,0.33274 0.54825,0.45215 0.88878,0.50609 0.47519,0.0753 2.88238,1.19292 3.28253,1.52408 0.70443,0.583 -0.13148,1.07949 -1.64393,0.97641 -1.33185,-0.0908 -1.3249,-0.0601 0.23046,1.01796 2.16262,1.49896 1.84706,1.37677 3.56654,1.38119 1.69631,0.005 2.13168,0.11939 3.23122,0.85362 0.50334,0.33613 1.20468,1.1447 1.20468,1.38889 0,0.0785 0.95531,0.51208 1.52994,0.69427 0.43244,0.13711 0.75662,0.68095 0.76058,1.27593 0.008,1.02499 2.64948,2.71142 4.24884,2.71142 1.03539,0 1.86813,0.43257 2.26754,1.1779 0.35143,0.65581 0.39932,0.67666 2.08447,0.90745 1.17117,0.16041 1.44074,0.23179 1.84414,0.48825 0.25987,0.1652 0.6526,0.3479 0.87275,0.40601 0.87891,0.23198 1.62753,0.92893 1.39752,1.30109 -0.0895,0.14488 -0.81113,0.11285 -2.00709,-0.0891 z m -38.84975,-20.09853 c 0.13934,-0.36312 -0.18549,-0.96672 -0.96631,-1.79567 -0.53419,-0.56712 -0.82457,-0.96448 -0.90779,-1.24224 -0.0894,-0.29857 -0.29035,-0.55589 -0.74709,-0.95687 -0.64869,-0.56953 -0.76528,-0.79023 -0.88569,-1.67658 -0.0807,-0.59455 -0.42195,-1.29992 -0.82341,-1.70244 -0.16144,-0.16186 -0.47888,-0.61544 -0.70541,-1.00792 -0.36754,-0.63682 -0.48438,-0.75371 -1.08563,-1.08626 -0.37058,-0.20496 -0.87564,-0.51725 -1.12235,-0.69398 -1.95791,-1.40247 -2.69255,-0.49298 -1.53128,1.89576 0.47132,0.96948 0.50065,1.00512 1.06981,1.29982 0.76915,0.39825 1.02016,0.70669 1.14991,1.41303 0.0583,0.31718 0.15059,0.82341 0.2052,1.12494 0.11565,0.63857 0.33538,0.87329 1.75449,1.8742 l 0.89062,0.62817 0.59808,-0.0548 c 0.77164,-0.0706 1.09886,0.11959 1.62252,0.94323 0.5158,0.81124 1.34796,1.39293 1.48433,1.03755 z m -9.19931,-48.86418 c 0.0785,-0.15192 0.21542,-0.69677 0.30411,-1.21079 0.0887,-0.514 0.29896,-1.27564 0.46721,-1.6925 0.27642,-0.68484 0.29991,-0.82659 0.2436,-1.46909 -0.0515,-0.58753 -0.0259,-0.80351 0.14718,-1.24269 0.22407,-0.56846 0.2032,-1.04894 -0.062,-1.42758 -0.26147,-0.37331 -0.17829,-0.92974 0.20613,-1.37885 0.40366,-0.47159 0.49784,-0.85451 0.41915,-1.70412 -0.0423,-0.45604 -0.007,-0.78211 0.14224,-1.27269 0.55281,-1.83187 0.0982,-2.21132 -1.09092,-0.91035 -0.44374,0.48548 -0.97152,0.97003 -1.17288,1.07679 -0.25785,0.13667 -0.47413,0.38554 -0.73136,0.84154 -0.40848,0.72417 -0.58184,0.80977 -1.08789,0.53726 l -0.3411,-0.1837 -0.33553,0.38815 c -0.9905,1.14586 -0.65446,3.44543 0.50348,3.44543 0.57956,0 0.73896,0.15319 0.82987,0.79747 0.0682,0.48294 0.10687,0.55236 0.32553,0.58273 0.48496,0.0673 0.51721,0.16449 0.48324,1.45532 -0.0682,2.58829 0.29945,4.23885 0.74996,3.36767 z m 54.3789,67.61536 c -0.52631,-0.13268 -1.46831,-0.31607 -2.09333,-0.40753 -1.31234,-0.19204 -1.61366,-0.3242 -2.43227,-1.06683 -0.66424,-0.60256 -0.9093,-0.74668 -1.9068,-1.12138 -0.37673,-0.14151 -0.84341,-0.36681 -1.03706,-0.50064 -0.30976,-0.21407 -0.51251,-0.25343 -1.68606,-0.32738 -1.28866,-0.0811 -1.34102,-0.0933 -1.54189,-0.35435 -0.11434,-0.14866 -0.35369,-0.44216 -0.53188,-0.65221 -0.43666,-0.51478 -0.46873,-1.56985 -0.0747,-2.46067 0.38168,-0.86304 0.30998,-0.99468 -0.7336,-1.34711 -0.38839,-0.13117 -0.65681,-0.28703 -0.72742,-0.42243 -0.0616,-0.118 -0.3075,-0.42571 -0.54657,-0.68379 -0.49296,-0.53218 -0.54647,-0.833 -0.22536,-1.2673 0.60407,-0.81704 -0.63586,-1.36573 -1.82019,-0.80545 -1.27533,0.60332 -2.89953,0.16783 -4.62933,-1.24123 -0.36486,-0.29723 -0.77592,-0.51872 -1.21341,-0.65385 -0.75513,-0.23324 -0.91764,-0.35592 -1.27168,-0.96005 -0.19847,-0.33865 -0.42224,-0.52583 -1.02241,-0.85523 -1.22131,-0.6703 -2.07959,-1.61233 -1.99732,-2.19224 0.0734,-0.5175 0.74935,-0.3338 2.23488,0.60737 0.36134,0.22894 0.70661,0.34967 1.19619,0.41827 0.48999,0.0686 1.01899,0.25378 1.83647,0.6426 1.2753,0.6066 1.30153,0.61111 2.25973,0.38816 0.84246,-0.19605 1.08832,-0.15745 2.23249,0.35041 1.05251,0.46719 1.21857,0.48378 1.90163,0.18992 0.46305,-0.19918 0.54098,-0.20549 1.0153,-0.0822 0.57778,0.15023 0.89979,0.14804 1.58491,-0.0109 0.44694,-0.10362 0.51573,-0.0896 1.24693,0.25351 l 0.7739,0.36316 0.64704,-0.15249 c 2.4306,-0.57286 3.61574,0.44045 1.89308,1.61861 -0.38953,0.26641 -0.61354,0.51076 -0.77376,0.84405 -0.22842,0.47507 -0.63214,0.8381 -0.8099,0.72824 -0.0534,-0.033 -0.12477,-0.0154 -0.15852,0.0392 -0.11886,0.19233 0.16649,0.51744 0.62764,0.7151 0.25651,0.10996 0.61502,0.31329 0.79668,0.45184 l 0.33029,0.25193 0.83077,-0.25902 c 1.04134,-0.32468 1.09602,-0.32349 1.86422,0.04 0.55762,0.26396 0.72912,0.29735 1.45789,0.28394 0.76862,-0.0142 0.87592,0.01 1.54657,0.35056 l 0.72063,0.36578 0.84583,-0.25891 c 0.80474,-0.24633 0.91879,-0.25583 2.34816,-0.19546 1.57233,0.0664 1.47976,0.0802 2.75577,-0.41091 0.4512,-0.17364 0.49765,-0.17386 1.15119,-0.006 l 0.68101,0.17543 0.96659,-0.34989 c 1.21957,-0.44146 3.17511,-0.68112 3.43524,-0.42097 0.4661,0.46612 -1.88322,1.98833 -3.55492,2.30336 -0.66059,0.12449 -0.98226,0.2502 -1.51895,0.59356 -0.61458,0.39319 -0.79022,0.45237 -1.80354,0.60754 -0.61746,0.0946 -1.37924,0.27941 -1.69283,0.4108 -0.73808,0.30922 -0.99385,0.30152 -2.30285,-0.0693 -1.05284,-0.29822 -1.10116,-0.30304 -1.50311,-0.14953 -0.52417,0.20018 -0.80434,0.19916 -1.62077,-0.007 l -0.65499,-0.16453 -0.52181,0.26422 c -0.38989,0.19742 -0.67116,0.26422 -1.11268,0.26422 -1.01856,0 -1.27904,0.42764 -0.82798,1.35939 0.24142,0.49873 0.79931,0.75872 1.88246,0.87733 0.81228,0.089 0.92119,0.15025 1.24326,0.69981 0.33866,0.57792 0.53149,0.67329 1.52161,0.75263 0.76097,0.0609 0.85412,0.0941 1.37845,0.48997 0.53671,0.40523 0.59712,0.42562 1.32704,0.44817 0.60249,0.0186 0.8756,0.0804 1.28741,0.29127 0.28749,0.1472 0.87595,0.35202 1.3077,0.45514 1.10095,0.26296 1.58952,0.58044 1.45056,0.9426 -0.0976,0.25451 -0.45933,0.29672 -1.77149,0.2068 -1.50701,-0.10328 -1.71814,-0.1047 -2.70567,-0.0184 -0.66931,0.0585 -0.95124,0.0309 -1.7544,-0.17154 z m 8.28365,-1.60929 c -0.69287,-0.1808 -1.37498,-0.26895 -2.54192,-0.32852 -1.82073,-0.093 -2.5395,-0.27754 -2.88149,-0.74013 l -0.20868,-0.28226 0.26874,-0.23167 c 0.54793,-0.47233 2.13937,-0.64607 3.66683,-0.40033 1.02099,0.16427 1.13687,0.16532 1.672,0.0151 0.40861,-0.11466 0.76724,-0.14339 1.23946,-0.0993 0.50651,0.0474 0.7655,0.0216 1.08939,-0.10796 0.3106,-0.12427 0.55737,-0.1518 0.91728,-0.10231 1.10625,0.15215 1.65542,0.0769 2.89375,-0.39624 1.78707,-0.68286 1.95375,-0.79377 2.33232,-1.55195 0.48916,-0.97969 1.07099,-1.34468 2.1501,-1.34875 0.55247,-0.002 0.8143,-0.0419 0.84307,-0.12828 0.20829,-0.62485 0.69769,-0.88851 2.08161,-1.12149 1.35065,-0.22736 1.33031,-0.21819 1.33031,-0.60042 0,-0.63377 0.23654,-0.94635 1.08765,-1.43726 1.43392,-0.82708 1.88524,-2.18411 0.89646,-2.69543 -0.46267,-0.23926 -0.66282,-0.0995 -1.26224,0.88142 -0.81468,1.33317 -1.18445,1.53454 -2.16924,1.18135 -1.03608,-0.37157 -1.82091,-0.39268 -2.38166,-0.064 -0.41855,0.24527 -0.52637,0.26706 -0.98694,0.1993 -0.75589,-0.11119 -0.87773,-0.10122 -2.44649,0.19837 l -1.43102,0.27335 -0.2636,-0.19682 c -0.68569,-0.51194 0.0418,-1.08902 1.87958,-1.49093 0.96871,-0.21186 1.07267,-0.25793 1.39557,-0.6188 0.48437,-0.54132 0.61355,-0.58734 1.95532,-0.69654 1.44776,-0.11778 1.47771,-0.12886 1.61818,-0.59769 0.15293,-0.51041 0.35033,-0.66287 1.11159,-0.8584 1.04959,-0.2696 1.30006,-0.45996 1.79986,-1.36795 0.24365,-0.44266 0.67668,-1.06695 0.9623,-1.38732 1.32869,-1.49042 0.6009,-3.30518 -0.79938,-1.99332 -0.63174,0.59184 -0.78071,0.67229 -1.41452,0.76378 -0.8581,0.12389 -1.08831,0.27205 -1.56866,1.00958 -0.53648,0.82375 -0.55538,0.84019 -1.8704,1.62844 -0.57568,0.34509 -1.20576,0.76971 -1.40021,0.94364 -0.63349,0.56664 -2.11624,1.08474 -2.88616,1.00847 -0.7601,-0.0753 -0.59529,-0.0756 -1.84414,0.003 -0.78681,0.0499 -1.0751,0.0304 -1.36845,-0.0924 -0.74141,-0.31018 -1.04766,-1.41929 -0.52552,-1.9032 0.69335,-0.64259 0.25118,-1.07157 -1.14241,-1.10835 -1.54852,-0.0409 -1.82156,0.11514 -2.3791,1.35941 -0.48866,1.09053 -1.21493,1.37712 -2.39725,0.94595 -0.64944,-0.23684 -0.92661,-0.20026 -1.43747,0.18981 -0.56056,0.42804 -0.86415,0.44081 -1.57628,0.0664 -0.63231,-0.33254 -2.22244,-0.61412 -2.40981,-0.42676 -0.20077,0.20076 -0.71295,0.117 -1.45296,-0.23764 -0.52333,-0.2508 -0.86402,-0.3489 -1.21179,-0.3489 -1.48614,0 -3.28793,-0.795 -3.28793,-1.45074 0,-0.49225 0.86741,-0.58335 2.22626,-0.23383 0.66531,0.17112 0.95069,0.19554 1.56169,0.13354 1.04867,-0.10643 1.31073,-0.0789 1.95261,0.20497 1.00113,0.44276 1.96001,0.33991 3.05771,-0.32797 l 0.57442,-0.34948 0.84858,0.11872 c 0.46672,0.0653 0.90959,0.1421 0.98415,0.17072 0.0746,0.0287 0.37622,-0.15348 0.67034,-0.40467 0.29413,-0.25119 0.82508,-0.64652 1.17988,-0.87851 l 0.64512,-0.42181 -0.44574,-0.086 c -1.31888,-0.2545 -1.49537,-0.39232 -1.25061,-0.97655 0.17646,-0.42121 0.43172,-0.64601 1.30327,-1.14783 0.94155,-0.54214 1.05345,-0.55819 1.93293,-0.27728 1.15135,0.36773 1.38664,0.33803 2.40328,-0.30344 1.02887,-0.6492 1.16863,-0.66191 2.19302,-0.19938 1.05128,0.47466 1.20935,0.46185 2.00643,-0.16269 0.25919,-0.20308 0.39358,-0.41012 0.47429,-0.73063 0.22737,-0.90299 0.98601,-1.44786 2.28767,-1.64306 0.90072,-0.13508 1.18908,-0.253 2.03499,-0.83213 0.46376,-0.31749 0.81101,-0.47603 1.14299,-0.52184 3.01967,-0.41661 4.04732,-0.8857 4.4224,-2.01867 0.2296,-0.69353 0.37275,-0.86793 1.48449,-1.80847 0.72133,-0.61025 0.80851,-0.83122 0.4681,-1.18654 -0.5659,-0.59067 -0.11319,-1.31525 1.06716,-1.70804 0.89136,-0.29661 1.23021,-0.55268 1.64819,-1.24543 0.35034,-0.58067 0.70085,-0.8972 1.66099,-1.50001 0.5343,-0.33545 0.56462,-0.37936 0.79137,-1.14636 0.26329,-0.89051 0.59978,-1.2933 1.45724,-1.74444 0.97473,-0.51282 1.7066,-1.35582 2.12029,-2.44224 0.25925,-0.68082 0.37591,-0.83667 1.30572,-1.74444 0.95092,-0.92838 1.04418,-1.05502 1.35791,-1.84414 0.52348,-1.31668 1.26386,-2.78969 1.43519,-2.85546 0.73337,-0.28142 1.25924,3.11305 0.65856,4.25103 -0.78972,1.49607 -1.05995,2.62719 -0.67011,2.80481 0.58786,0.26785 1.25578,-0.37388 1.25578,-1.20655 0,-0.82659 0.25185,-1.43624 0.86843,-2.10223 l 0.56298,-0.60809 0.074,-1.16351 c 0.0406,-0.63992 0.1668,-1.52235 0.28034,-1.96097 0.26215,-1.01266 0.262,-1.59701 -3.8e-4,-2.19056 -0.53997,-1.22069 0.57877,-2.54744 2.03637,-2.415 0.98273,0.0893 1.82922,-0.46017 2.10119,-1.36385 0.089,-0.29562 0.31352,-0.65557 0.60007,-0.96193 0.72469,-0.77474 0.79615,-1.13345 0.43738,-2.19521 -0.2097,-0.62054 -0.21304,-0.69658 -0.0983,-2.23731 0.1714,-2.30029 0.17635,-2.24818 -0.2671,-2.80919 -0.5646,-0.71428 -0.61374,-0.84578 -0.61463,-1.64506 -3.7e-4,-0.40109 -0.0513,-1.13298 -0.11298,-1.6264 -0.15957,-1.27628 -0.14464,-1.50768 0.15791,-2.44933 0.33712,-1.04928 0.49859,-1.31069 0.78447,-1.26996 0.23259,0.0331 0.24945,0.0898 0.45404,1.52626 0.0547,0.38378 0.21047,1.19121 0.34626,1.79429 0.13578,0.60308 0.27369,1.25541 0.30647,1.44962 0.0328,0.19422 0.31267,0.79612 0.62201,1.33757 0.68546,1.19983 0.78413,1.51391 0.92818,2.95466 0.0948,0.9484 0.15831,1.20405 0.39448,1.58788 0.56989,0.92618 0.73932,2.02269 0.45531,2.9467 -0.0827,0.26913 -0.21824,0.90257 -0.30115,1.40766 -0.2876,1.75226 -0.54277,2.33236 -1.28169,2.91365 -0.48679,0.38297 -0.77934,0.38433 -1.25724,0.007 -0.83859,-0.66416 -1.16553,0.0839 -0.6416,1.46805 0.56129,1.48286 0.2717,2.79003 -0.73285,3.30798 -0.65037,0.33531 -1.11764,1.06292 -1.11764,1.74039 0,0.0553 -0.18066,0.39952 -0.40147,0.76498 l -0.40147,0.66448 0.30179,0.75368 c 0.44931,1.12207 0.36394,2.19638 -0.2852,3.58973 -0.15877,0.3408 -0.38758,0.95308 -0.50844,1.3606 -0.33117,1.11659 -0.43668,1.23963 -0.99156,1.15626 -0.25021,-0.0376 -0.62456,-0.0922 -0.83192,-0.12132 -1.06549,-0.14973 -1.42374,0.3608 -1.51698,2.16178 -0.0871,1.68283 0.0318,1.96489 0.77544,1.83924 0.78897,-0.13329 1.2432,0.32227 1.6482,1.65303 0.53878,1.77033 0.41377,2.40736 -0.68843,3.50831 -0.92037,0.91932 -0.99567,1.11026 -1.02236,2.59236 -0.0247,1.37057 -0.12292,1.58865 -0.98499,2.18696 -0.50344,0.34939 -0.69287,0.56181 -0.97389,1.09207 -0.46148,0.87077 -0.5488,0.96305 -1.03336,1.09201 -0.55497,0.14772 -0.70083,0.29861 -0.95046,0.98322 -0.24256,0.66525 -0.57687,1.00662 -1.76707,1.80449 -0.43158,0.28931 -1.06111,0.78259 -1.39897,1.09616 -0.64884,0.60223 -1.05459,0.79145 -2.11884,0.9882 -1.79203,0.33129 -2.37475,1.17152 -1.51146,2.17939 1.21898,1.42312 1.14656,2.18375 -0.24898,2.61583 -0.46654,0.14444 -0.50208,0.181 -0.72511,0.74551 -0.55078,1.39409 -0.91584,1.59113 -2.76448,1.49213 -2.15309,-0.11532 -2.97544,0.23574 -2.73645,1.16819 0.49994,1.95064 -0.93922,2.84321 -3.82264,2.37078 l -0.88565,-0.1451 -0.26068,0.31028 c -0.14784,0.17594 -0.42764,0.35598 -0.64631,0.41586 -0.51117,0.13998 -0.76075,0.38118 -0.76075,0.73524 0,0.8444 -0.88531,1.16511 -2.4037,0.87075 -0.97946,-0.18988 -1.18848,-0.15377 -2.06807,0.35731 -0.97317,0.56545 -1.89112,0.64473 -2.89289,0.24988 -0.96651,-0.38098 -1.25479,-0.40796 -1.63044,-0.15269 -0.71988,0.48916 -1.09623,0.51885 -2.36874,0.18679 z m 21.36757,-14.25646 c 0.32653,-0.19138 1.05811,-0.77232 1.62573,-1.29101 0.56763,-0.51869 1.17744,-1.00502 1.35514,-1.08077 0.17769,-0.0757 0.634,-0.26274 1.01398,-0.41557 0.88953,-0.35778 1.29801,-0.72457 1.64479,-1.47694 0.18883,-0.40968 0.47162,-0.78577 0.86898,-1.15568 0.67942,-0.63249 1.25947,-1.62851 1.67497,-2.87616 0.23508,-0.7059 0.32698,-0.85745 0.64936,-1.07079 0.47669,-0.31544 0.64096,-0.64438 0.95018,-1.90245 0.3293,-1.33984 0.32439,-1.39326 -0.17422,-1.90132 -0.56258,-0.57323 -0.57172,-1.00192 -0.0486,-2.28118 0.56545,-1.38272 0.46138,-1.7236 -0.55186,-1.80761 -0.95221,-0.079 -1.3246,0.0923 -2.21561,1.01948 -0.99061,1.03075 -1.03215,1.0512 -2.13423,1.0512 h -0.90129 l -0.85647,0.8488 c -0.80383,0.79661 -0.86851,0.89221 -1.05225,1.55528 -0.3502,1.26373 -0.53757,1.5199 -1.66165,2.27178 -1.10177,0.73694 -1.84977,2.29864 -1.86071,3.8849 -0.008,1.24133 0.0767,1.30554 1.03764,0.7812 1.77887,-0.97067 3.01733,-0.29362 1.91126,1.04488 -0.30145,0.36481 -0.39742,0.57873 -0.44633,0.995 -0.086,0.73254 -0.62797,1.77724 -1.40833,2.71513 -1.20379,1.44678 -0.92437,1.97323 0.57949,1.09183 z m -61.33941,11.56545 c -0.34814,-0.0935 -0.76093,-0.31491 -1.13451,-0.60843 l -0.58727,-0.46138 -1.40161,-0.12543 c -1.5935,-0.14258 -2.34791,-0.43408 -3.36053,-1.29844 -0.65786,-0.56153 -0.73136,-0.59774 -1.39206,-0.68592 -0.78689,-0.10503 -1.22654,-0.36573 -2.20676,-1.30872 -0.53398,-0.51369 -0.94867,-0.83409 -1.07954,-0.83409 -0.29937,0 -0.69756,-0.22341 -1.62871,-0.9138 -0.44489,-0.32987 -1.07234,-0.73275 -1.39436,-0.8953 -0.98815,-0.49882 -1.85059,-1.44032 -1.69376,-1.84903 0.0653,-0.17031 0.66363,-0.16652 1.00535,0.007 0.14804,0.0749 0.44706,0.16848 0.66447,0.20792 0.52264,0.0948 0.89566,0.29476 1.49869,0.80332 0.69754,0.58827 0.89365,0.67162 1.75973,0.74782 0.6945,0.0611 0.81963,0.10741 1.39557,0.51659 0.34795,0.24719 1.05879,0.6094 1.57964,0.80489 0.52084,0.1955 1.34099,0.51914 1.82257,0.7192 1.049,0.43581 1.19386,0.42679 1.27614,-0.0793 0.15018,-0.92398 1.26909,-0.90933 2.34331,0.0307 0.5957,0.52127 0.93603,0.6597 1.23222,0.50118 0.41564,-0.22244 0.8368,-0.0721 2.12761,0.75945 0.37273,0.24011 1.14794,0.599 1.72268,0.79754 0.76361,0.26378 1.15822,0.46273 1.4655,0.73886 0.23127,0.20785 0.62236,0.52941 0.86907,0.71457 0.41398,0.31073 0.44858,0.3709 0.44858,0.78019 0,0.49879 0.1733,0.39983 -1.54509,0.88221 -0.91762,0.25758 -2.91461,0.28347 -3.78693,0.049 z m 34.33975,-7.3254 c -0.27413,-0.0495 -0.8797,-0.0796 -1.34571,-0.0668 -0.65564,0.0181 -0.92622,-0.0173 -1.19621,-0.15662 -0.19189,-0.0991 -0.71856,-0.24067 -1.17042,-0.31482 -1.09408,-0.17953 -1.88955,-0.54347 -1.98058,-0.90613 -0.11244,-0.44801 0.13091,-0.53794 1.50038,-0.55445 1.62848,-0.0197 1.8056,-0.003 2.51876,0.23263 0.56621,0.1873 0.68866,0.19453 1.43825,0.0849 0.52755,-0.0771 1.26563,-0.096 2.07251,-0.053 1.20022,0.064 1.27637,0.0562 1.80145,-0.18431 0.52789,-0.2418 0.58114,-0.24706 1.43348,-0.14136 0.75296,0.0933 1.02103,0.0835 1.7943,-0.0668 1.13899,-0.22144 1.59492,-0.19043 1.63788,0.11135 0.0673,0.47342 -2.42725,1.39404 -4.03386,1.48868 -0.6116,0.0359 -1.24421,0.1439 -1.6791,0.28635 -0.80208,0.26269 -2.0664,0.37165 -2.79113,0.24051 z m -16.6969,-5.72577 c -0.73395,-0.38692 -1.2229,-0.43506 -1.90635,-0.18769 -0.73856,0.26732 -1.25875,0.22241 -2.11086,-0.18226 -0.41811,-0.19857 -0.97494,-0.39197 -1.23738,-0.4298 -0.68794,-0.0992 -0.98925,-0.24837 -1.77305,-0.87808 -0.81695,-0.65633 -0.97386,-0.68016 -1.40193,-0.21282 -0.4092,0.44674 -0.76583,0.45557 -1.63839,0.0405 -0.35638,-0.16948 -0.88103,-0.39606 -1.1659,-0.50348 -0.43318,-0.16336 -0.56957,-0.28013 -0.83325,-0.71352 -0.17342,-0.28499 -0.40431,-0.61523 -0.51308,-0.73384 -0.10878,-0.11863 -0.38546,-0.67836 -0.61486,-1.2439 -0.42643,-1.05127 -0.74596,-1.42479 -1.30289,-1.52303 -1.11377,-0.19645 -1.43483,-0.28691 -1.82057,-0.51296 -0.61471,-0.36025 -0.8219,-0.83942 -0.82476,-1.9074 -0.002,-0.78649 -0.0212,-0.85353 -0.5006,-1.76459 -0.27413,-0.52086 -0.49895,-1.07253 -0.49961,-1.22594 -7.5e-4,-0.15342 -0.0674,-0.52566 -0.14834,-0.82719 -0.18713,-0.69719 -0.18733,-1.08136 -7.5e-4,-1.5278 0.13259,-0.31733 0.13103,-0.50635 -0.0143,-1.74251 -0.194,-1.6496 -0.15684,-1.91321 0.26976,-1.91321 0.61429,0 1.07445,0.53398 1.28856,1.49524 0.23863,1.07132 0.4165,1.59493 0.5418,1.59493 0.25372,0 0.44797,0.36675 0.55522,1.04831 0.0721,0.45791 0.19647,0.81555 0.36351,1.04504 0.13968,0.19188 0.48509,0.69665 0.76762,1.12171 0.38782,0.58347 0.59407,0.79933 0.84186,0.88111 0.43215,0.14262 0.55365,0.34805 0.95622,1.61653 0.36972,1.16505 0.65252,1.62031 1.18431,1.90671 0.39864,0.21468 0.67267,0.15576 0.67267,-0.14459 0,-0.57991 0.92247,-0.89459 1.59819,-0.54516 0.29187,0.15094 0.59483,0.60219 0.59483,0.88599 0,0.0957 0.13532,0.17267 0.37381,0.21271 0.81665,0.13709 1.71954,0.69804 1.71954,1.06832 0,0.10535 1.618,1.71846 1.99365,1.98762 0.30734,0.22021 0.57863,0.2284 0.80422,0.0242 0.46402,-0.41992 1.28591,-0.14184 2.05159,0.69413 0.43339,0.47318 0.56397,0.55804 0.85869,0.55804 0.71744,0 0.99547,0.12114 1.51137,0.65857 0.49546,0.51614 0.52603,0.53108 1.48104,0.72438 1.16381,0.23555 1.6037,0.46018 1.64834,0.84169 0.0871,0.74369 -2.53967,0.96243 -3.76984,0.31393 z m -16.00764,-2.08697 c -1.04712,-0.52862 -1.82396,-0.9904 -2.07794,-1.23519 -0.48908,-0.4714 -0.83415,-0.65154 -1.53033,-0.79888 -0.88507,-0.18733 -1.26629,-0.44535 -1.81743,-1.23013 -0.303,-0.43147 -0.62092,-0.7664 -0.79821,-0.84095 -0.21224,-0.0893 -0.36185,-0.27585 -0.53493,-0.66718 -0.28102,-0.63546 -0.6858,-0.98444 -2.56356,-2.21016 -1.94112,-1.26709 -2.73195,-2.0789 -3.03259,-3.11306 -0.10612,-0.36499 -0.29963,-0.71758 -0.53345,-0.9719 -1.74805,-1.90143 -2.11925,-3.99043 -0.69653,-3.91992 0.51175,0.0254 0.61733,3.8e-4 0.71708,-0.16855 0.49412,-0.83749 0.30832,-1.79598 -0.46208,-2.38358 -0.4082,-0.31136 -0.5955,-0.70696 -0.55012,-1.16198 0.0311,-0.31267 0.007,-0.33727 -0.49817,-0.53375 -1.20627,-0.46807 -1.68764,-1.25314 -1.77653,-2.89742 -0.0282,-0.52297 -0.13319,-1.14194 -0.25156,-1.48406 l -0.20306,-0.58691 0.27804,-0.70866 c 0.31383,-0.79991 0.33838,-1.10655 0.14191,-1.77288 -0.13406,-0.45472 -0.13046,-0.47515 0.15541,-0.88221 0.56066,-0.79827 0.64126,-1.01355 0.64142,-1.71327 1.3e-4,-0.59575 0.0474,-0.75864 0.43392,-1.49524 0.35289,-0.6725 0.44449,-0.9583 0.4912,-1.53257 0.11262,-1.38412 1.23582,-3.77017 1.747,-3.71115 0.62445,0.0721 0.72137,0.9016 0.36176,3.0963 -0.0787,0.47976 -0.14292,1.00619 -0.14292,1.16984 0,0.16368 -0.0541,0.49953 -0.12002,0.74633 -0.10449,0.39075 -0.0917,0.55703 0.0996,1.28643 0.25336,0.96606 0.27856,1.80472 0.0745,2.47746 -0.25514,0.84079 -0.22205,1.74292 0.0863,2.35122 0.17619,0.34764 0.29979,0.8027 0.35899,1.32172 0.12644,1.1087 0.37703,1.64193 0.81002,1.72373 0.45147,0.0853 0.90794,0.37628 1.05036,0.66956 0.0642,0.1323 0.29554,0.62183 0.51396,1.08785 0.31715,0.67661 0.45967,0.87426 0.70752,0.98113 0.80972,0.34913 1.03151,1.18032 0.56356,2.112 l -0.2519,0.50151 0.23311,0.52708 c 0.16211,0.36658 0.40954,0.67681 0.81248,1.01872 1.34421,1.14064 1.30499,1.07947 1.59328,2.4853 0.0225,0.10966 0.24012,0.35637 0.48364,0.54826 1.11568,0.87916 1.06424,1.88001 -0.13863,2.69757 -0.35959,0.24439 -0.1908,0.60928 0.70537,1.52483 0.74792,0.76409 0.98842,1.17114 0.99011,1.67581 3.6e-4,0.1114 0.16838,0.22217 0.50806,0.335 0.70398,0.23383 1.13534,0.64455 1.38903,1.32258 0.26014,0.69529 0.32872,0.78002 0.83808,1.03549 0.59609,0.29897 0.82848,0.55105 1.00899,1.09452 0.138,0.41547 0.251,0.5463 0.77579,0.89807 2.03299,1.36272 2.57806,2.17555 1.45889,2.17555 -0.27492,0 -0.82988,-0.22862 -2.04934,-0.84426 z m 26.48392,-2.06966 c -1.30404,-0.48577 -0.26501,-1.04895 2.10967,-1.14352 1.45685,-0.058 1.47639,-0.0619 1.9903,-0.39297 0.28545,-0.18389 0.61023,-0.33679 0.72172,-0.33974 0.8753,-0.0232 1.75882,-0.18824 2.02591,-0.37842 0.1645,-0.11715 0.58415,-0.27328 0.93258,-0.34698 1.01477,-0.21464 1.87951,-0.77333 1.87951,-1.21427 0,-0.0682 0.0699,-0.18188 0.15528,-0.25277 0.0855,-0.0709 0.21517,-0.27222 0.28839,-0.44742 0.0841,-0.20103 0.29332,-0.40686 0.56742,-0.55792 0.41893,-0.2309 0.43653,-0.25996 0.49693,-0.82063 0.10362,-0.96156 0.29763,-1.13128 1.98088,-1.73279 0.52084,-0.18612 1.14885,-0.46238 1.39556,-0.61391 0.24671,-0.15153 0.71773,-0.37604 1.04668,-0.4989 0.83992,-0.31368 1.19667,-0.5562 1.44739,-0.98387 0.47061,-0.80281 0.96474,-1.34382 1.54309,-1.68949 0.86287,-0.51574 0.93044,-0.58983 1.35943,-1.49089 0.61854,-1.29921 1.27683,-1.72578 2.66317,-1.72578 0.57569,0 1.11108,-0.3347 1.11108,-0.6946 0,-0.0447 0.2467,-0.32792 0.54826,-0.62945 0.58208,-0.58208 0.63478,-0.71645 0.40189,-1.02438 -0.5607,-0.74131 0.27447,-1.89388 1.80192,-2.48669 l 0.77183,-0.29957 0.11294,-0.50147 c 0.14882,-0.66075 0.15845,-0.67298 0.82397,-1.0445 0.87027,-0.48579 1.20885,-0.77262 1.37145,-1.1618 0.0815,-0.19488 0.28578,-0.51119 0.45412,-0.7029 0.35565,-0.40508 0.41198,-0.53693 0.79949,-1.87151 0.34998,-1.20537 0.34991,-1.20206 0.0401,-2.17191 -0.39299,-1.23055 -0.30373,-2.03463 0.42119,-3.79426 0.33913,-0.82318 0.3555,-0.91005 0.24416,-1.29588 -0.36137,-1.25224 -0.37332,-1.43742 -0.12233,-1.89684 0.21722,-0.39768 0.23014,-0.50236 0.16866,-1.36765 -0.16742,-2.35631 -0.18398,-2.78306 -0.12106,-3.11846 0.0777,-0.41439 0.35934,-0.61928 0.64271,-0.46763 0.27251,0.14586 0.59316,0.9735 0.86551,2.23412 0.13222,0.612 0.35358,1.4879 0.49191,1.94642 0.34331,1.13806 0.32982,1.74557 -0.0584,2.63021 -0.23084,0.52592 -0.29614,0.79737 -0.25581,1.06338 0.0297,0.19645 0.12847,0.84242 0.21936,1.43545 0.15512,1.01224 0.15473,1.1211 -0.007,1.77801 -0.16255,0.66329 -0.16242,0.73827 0.003,1.43863 0.26903,1.14237 0.18586,1.82977 -0.32292,2.66931 -0.25577,0.42202 -0.43775,0.86126 -0.47494,1.14636 -0.0331,0.25419 -0.12488,0.6431 -0.20379,0.86423 -0.0789,0.22114 -0.14445,0.58 -0.14564,0.79747 -0.005,0.66737 -0.7778,2.02315 -1.59174,2.78779 -0.17508,0.16448 -0.40934,0.47848 -0.52058,0.69778 -0.48591,0.95796 -0.89987,1.30191 -1.86366,1.54851 -0.79203,0.20266 -1.05014,0.63596 -1.55234,2.60609 -0.25725,1.00919 -1.23564,1.87988 -2.55951,2.2778 -0.61014,0.18338 -0.72002,0.26201 -1.36334,0.97564 -0.43181,0.479 -0.90287,0.8852 -1.23035,1.06095 -0.29185,0.15662 -0.77763,0.45595 -1.0795,0.66516 -0.30189,0.2092 -0.99718,0.54975 -1.54511,0.75678 -0.54793,0.20703 -1.15836,0.47225 -1.3565,0.58937 -0.19814,0.1171 -0.52514,0.27255 -0.72665,0.34542 -0.47921,0.17328 -0.5888,0.3132 -0.84073,1.0733 -0.37106,1.11953 -0.64403,1.47966 -1.3935,1.83843 -0.61637,0.29504 -0.67714,0.35363 -0.84688,0.81626 -0.36,0.98121 -1.05079,1.59599 -1.9159,1.70511 -0.27232,0.0343 -0.72464,0.18883 -1.00516,0.3433 -0.72949,0.40168 -1.57773,0.62721 -2.12329,0.56454 -0.52076,-0.0598 -1.47262,0.10535 -2.35776,0.40913 -0.56479,0.19381 -0.64938,0.19836 -1.27091,0.0684 -0.49773,-0.10416 -0.81058,-0.11452 -1.23909,-0.0412 -0.97831,0.16756 -3.41865,0.21095 -3.80336,0.0677 z m -7.04501,-0.91422 c -0.27843,-0.0677 -0.66395,-0.24321 -0.85671,-0.39026 -0.38033,-0.29008 -0.62591,-0.32292 -1.20733,-0.16147 -0.47489,0.13189 -0.69304,0.062 -1.17989,-0.3778 l -0.38873,-0.35119 -1.07058,-0.015 c -1.28097,-0.0179 -1.47026,-0.0993 -2.22856,-0.95698 -0.50371,-0.56973 -0.57908,-0.61662 -1.22902,-0.76451 -0.63535,-0.14461 -0.75525,-0.21608 -1.45561,-0.8677 -0.41978,-0.39055 -1.02605,-0.91196 -1.3473,-1.15868 -0.87134,-0.6692 -1.32321,-1.49261 -0.90677,-1.65241 0.14947,-0.0573 1.41532,0.59306 2.27064,1.16669 0.33605,0.22539 0.81442,0.43487 1.1962,0.52386 0.3499,0.0816 1.06232,0.37284 1.58318,0.64731 0.52084,0.27445 1.35758,0.65553 1.85943,0.84683 0.50185,0.19131 1.09441,0.44066 1.31683,0.55413 0.30004,0.15306 0.59291,0.2063 1.13503,0.2063 0.94543,0 1.65968,0.19188 2.7472,0.73809 1.03203,0.5183 1.70066,0.72191 2.6606,0.81017 1.62155,0.14908 2.34702,0.67995 1.62258,1.18737 -0.28213,0.19761 -3.72241,0.20926 -4.52119,0.0153 z m 3.4967,-3.40742 c -2.77109,-0.42862 -3.59917,-0.69175 -4.61133,-1.46528 -0.3147,-0.24051 -0.8189,-0.60237 -1.12043,-0.8041 -1.31715,-0.88129 -1.61684,-1.14618 -1.9635,-1.73555 -0.54112,-0.91996 0.0529,-0.97271 1.47635,-0.13111 0.54918,0.32468 1.33921,0.71459 1.75561,0.86647 l 0.75711,0.27613 0.81957,-0.16869 c 1.07539,-0.22136 1.31375,-0.21029 1.79011,0.0831 0.72212,0.44476 1.08346,0.36009 1.81239,-0.42465 0.7241,-0.77956 0.95145,-0.8269 2.03145,-0.423 l 0.60775,0.22728 0.51548,-0.20587 c 1.25219,-0.50009 1.75712,-0.54063 3.41514,-0.2742 2.31152,0.37144 2.34614,1.22211 0.10818,2.65769 -1.05905,0.67936 -1.56373,0.86329 -3.00784,1.09619 -0.6579,0.10611 -1.48127,0.28083 -1.8297,0.38827 -0.72757,0.22439 -1.29343,0.23264 -2.55634,0.0372 z m 21.5403,-0.82455 c -0.0679,-0.10974 0.0973,-0.68903 0.24822,-0.87089 0.0637,-0.0768 0.56389,-0.37388 1.11152,-0.66027 0.68499,-0.35822 1.15558,-0.687 1.50819,-1.05367 0.61631,-0.64091 0.98122,-0.87753 1.50234,-0.9742 0.24978,-0.0464 0.54505,-0.21402 0.81497,-0.46283 0.25886,-0.23859 0.71523,-0.50257 1.17494,-0.67958 1.2614,-0.48572 1.56649,-0.6861 2.65236,-1.74202 0.57567,-0.55978 1.3725,-1.22633 1.77074,-1.48119 0.93154,-0.59614 2.98749,-2.2332 3.36791,-2.68171 0.16174,-0.19068 0.41933,-0.50959 0.57244,-0.70871 0.50658,-0.65883 1.103,-0.40984 0.87149,0.36383 -0.35603,1.18974 -0.93067,1.91578 -2.03611,2.57255 -0.43031,0.25568 -0.65945,0.48299 -0.92384,0.91653 -0.52523,0.86123 -0.82247,1.17291 -1.35296,1.41869 -0.39121,0.18125 -0.5861,0.37568 -1.05613,1.05367 -0.48983,0.70654 -0.66137,0.87331 -1.14227,1.11046 -0.34182,0.16857 -0.62208,0.3871 -0.70783,0.55194 -0.30189,0.58024 -1.03012,1.0205 -1.68805,1.0205 -0.20042,0 -0.47485,0.0996 -0.67607,0.24558 -0.73054,0.52973 -1.35928,0.85242 -1.8838,0.96683 -0.30153,0.0657 -0.70525,0.22466 -0.89714,0.35313 -0.7747,0.51859 -3.04643,1.03986 -3.23092,0.74136 z m -32.25621,-4.05778 c -0.71673,-0.19813 -1.41863,-0.52794 -2.07844,-0.97662 -0.35742,-0.24305 -0.6462,-0.36269 -0.87543,-0.36269 -0.51354,0 -0.93647,-0.21623 -1.73616,-0.8877 -0.80353,-0.67466 -0.99813,-0.72145 -1.49031,-0.35833 -0.44374,0.32738 -0.66538,0.31504 -1.59732,-0.0887 -0.52165,-0.22606 -1.02188,-0.36135 -1.51023,-0.40849 -1.61026,-0.15539 -2.47009,-0.8427 -2.82581,-2.25887 -0.14945,-0.59491 -0.19183,-0.65701 -0.59399,-0.87037 -0.84359,-0.44751 -0.89786,-0.56342 -0.90785,-1.93889 -0.0122,-1.67979 -0.20252,-2.19593 -0.82633,-2.24099 -0.67042,-0.0485 -0.84504,0.16651 -0.76238,0.93836 0.0951,0.88929 -0.12828,1.0637 -1.08012,0.84284 -0.45144,-0.10469 -0.91803,-0.51589 -1.00859,-0.88875 -0.0352,-0.14475 -0.24458,-0.52265 -0.46536,-0.83975 -0.58457,-0.83954 -0.80382,-1.54293 -0.79909,-2.56347 0.006,-1.19005 -0.0391,-1.34979 -0.44369,-1.5885 -0.44357,-0.26171 -0.59816,-0.64739 -0.68177,-1.70103 -0.0369,-0.46602 -0.11017,-1.09975 -0.16266,-1.40829 -0.12044,-0.70814 -0.0332,-0.94499 0.59378,-1.61274 0.6089,-0.64844 0.64281,-0.76465 0.46756,-1.60224 -0.16075,-0.76831 -0.11704,-0.96812 0.33637,-1.53743 0.35547,-0.44632 0.54814,-1.1617 0.47875,-1.77748 -0.094,-0.83401 -0.50461,-0.95405 -0.86266,-0.25221 -1.28012,2.50924 -3.52353,0.51903 -2.55753,-2.26887 0.16014,-0.46217 0.25646,-0.95579 0.25646,-1.31431 0,-0.7478 0.0907,-0.96341 0.67786,-1.61179 0.43576,-0.48117 0.51302,-0.63904 0.71714,-1.46511 0.17642,-0.71401 0.28818,-0.97413 0.48848,-1.13693 1.46792,-1.19311 1.66349,-1.69383 1.46469,-3.74984 -0.10556,-1.09156 -0.0803,-1.1218 2.39494,-2.86588 0.25287,-0.17819 0.54936,-0.32397 0.65883,-0.32397 0.36555,0 1.33649,-0.6031 2.18079,-1.35461 0.60376,-0.53741 0.97687,-0.78824 1.34514,-0.90433 0.28028,-0.0884 0.70684,-0.31149 0.94788,-0.49587 1.70505,-1.30413 2.47474,-1.61072 2.81701,-1.12207 0.23129,0.33022 0.2069,0.49057 -0.16969,1.11599 -0.7732,1.28399 -0.80033,2.03501 -0.07,1.93648 0.7704,-0.10394 1.27551,-0.45288 1.96906,-1.36027 0.92365,-1.20844 0.99608,-1.25347 2.0243,-1.25867 0.78388,-0.005 0.88392,-0.0281 1.30019,-0.31458 0.68862,-0.47379 1.14313,-0.56112 2.22026,-0.42665 0.84851,0.1059 0.94783,0.0993 1.3953,-0.0935 0.62779,-0.27054 0.91761,-0.26186 1.73391,0.0519 0.37133,0.14272 1.034,0.29777 1.4726,0.34454 1.97918,0.21104 3.13491,0.99651 2.28534,1.55316 -0.33395,0.2188 -1.77924,0.21577 -2.4847,-0.006 -0.68994,-0.21614 -0.95103,-0.1983 -2.09335,0.14305 -0.79411,0.2373 -1.26037,0.30973 -2.2927,0.35611 -1.59007,0.0713 -1.7194,0.10997 -3.02395,0.90105 -0.57599,0.34928 -1.2902,0.71163 -1.58712,0.80524 -0.4311,0.13587 -0.65074,0.29149 -1.09009,0.77226 -0.73418,0.80339 -1.26084,1.19786 -1.94149,1.45422 -0.47954,0.18061 -0.62721,0.30132 -0.97479,0.79684 -0.9208,1.31269 -1.55511,1.33367 -1.82221,0.0603 -0.0915,-0.43646 -0.091,-0.65253 0.002,-0.96165 0.0661,-0.21928 0.17401,-0.57671 0.23971,-0.79427 0.16049,-0.53162 0.0824,-0.5696 -0.50926,-0.24759 -0.66211,0.36036 -0.81333,0.54259 -0.91882,1.10723 -0.13101,0.70137 -0.66829,1.15531 -1.80148,1.52207 -0.25711,0.0832 -0.47599,0.2685 -0.72254,0.61171 -0.19452,0.27078 -0.38864,0.49233 -0.43134,0.49233 -0.12046,0 -0.72016,0.57424 -0.72016,0.68961 0,0.0564 0.1381,0.17415 0.30691,0.26144 1.01955,0.52722 0.67346,2.38297 -0.63637,3.41231 -0.54931,0.4317 -0.70277,0.62973 -1.10138,1.42123 -0.61279,1.21683 -0.60071,1.59103 0.0353,1.09353 0.99208,-0.77602 1.64604,0.41622 1.38771,2.52994 -0.11705,0.95762 -0.11175,1.04789 0.10177,1.73765 0.21738,0.70238 0.21941,0.74379 0.0588,1.19556 -0.28001,0.78709 -0.28571,0.88862 -0.0672,1.19548 0.48617,0.68277 0.48695,1.50742 0.003,2.6286 -0.42263,0.97806 -0.38882,2.5379 0.0588,2.70964 0.0657,0.0253 0.30354,-0.003 0.5284,-0.0633 0.77935,-0.20803 1.10825,0.18896 1.71652,2.07185 0.38661,1.19674 0.94106,1.58271 1.79185,1.24736 1.40417,-0.55347 2.62801,0.31538 2.93695,2.08509 0.17709,1.01441 0.40542,1.33468 1.43544,2.01352 1.02663,0.67657 1.15915,0.81152 1.62436,1.65429 0.22016,0.39884 0.44697,0.72516 0.50402,0.72516 0.0571,0 0.89499,0.77778 1.86209,1.72839 1.66796,1.63956 2.31835,2.15917 3.8663,3.089 0.69318,0.41639 0.82341,0.6198 0.56243,0.87847 -0.25416,0.2519 -0.88631,0.30549 -1.52406,0.1292 z m 20.48688,-0.34022 c -0.27035,-0.29874 -0.13927,-0.82009 0.36707,-1.45995 0.2356,-0.29772 0.56372,-0.72651 0.72916,-0.95284 0.59592,-0.81528 0.82858,-0.89344 2.16368,-0.72665 l 0.5705,0.0714 0.47618,-0.48982 c 0.30211,-0.31078 0.65833,-0.5569 0.97458,-0.67339 0.27411,-0.101 0.58812,-0.26168 0.69777,-0.35715 0.93061,-0.81028 1.76452,-0.20102 1.20523,0.88056 -0.30748,0.59459 -1.81362,1.90288 -2.27254,1.97404 -0.33773,0.0523 -0.52248,0.16623 -0.87651,0.54025 -0.49019,0.51786 -0.95154,0.79269 -1.33064,0.79269 -0.13422,0 -0.49987,0.13458 -0.81254,0.29906 -0.7123,0.37468 -1.60173,0.42261 -1.89194,0.10188 z m -9.82081,-2.44403 c -0.30154,-0.20372 -0.75011,-0.47378 -0.99682,-0.60012 -0.24672,-0.12636 -0.52328,-0.35552 -0.61457,-0.50923 -0.15332,-0.25817 -0.21375,-0.27976 -0.79268,-0.28308 -0.62259,-0.003 -0.62851,-0.007 -0.90639,-0.41862 -0.42858,-0.6359 -1.14835,-0.65851 -2.29175,-0.0719 -0.37071,0.19017 -0.67445,0.17204 -1.0267,-0.0613 -0.16449,-0.10895 -0.52542,-0.26427 -0.80209,-0.34512 -0.82519,-0.24113 -1.14172,-0.7086 -1.14172,-1.68611 0,-0.94955 -0.39293,-1.17812 -1.30993,-0.76202 -0.61832,0.28057 -1.03579,0.25051 -1.8341,-0.13207 -0.70028,-0.3356 -1.34172,-0.92458 -1.34172,-1.23201 0,-0.28203 -0.31448,-0.52668 -0.88977,-0.69219 -1.15411,-0.33201 -1.25949,-0.42737 -1.55174,-1.40428 -0.14372,-0.48041 -0.30915,-1.03047 -0.36764,-1.22236 -0.0701,-0.23024 -0.40352,-0.63703 -0.98023,-1.1962 -0.78888,-0.76488 -0.88448,-0.89797 -0.98291,-1.36823 -0.0623,-0.29792 -0.25577,-0.72516 -0.45182,-0.99803 -0.37312,-0.51938 -0.59429,-1.04431 -0.82997,-1.96994 -0.0838,-0.32895 -0.28323,-0.97886 -0.44328,-1.44421 -0.48962,-1.42369 -0.49339,-3.00144 -0.007,-3.07256 0.30155,-0.0441 0.46333,0.25628 0.81578,1.51473 0.16713,0.59675 0.4541,1.35931 0.63773,1.69462 0.18364,0.3353 0.39304,0.76664 0.46537,0.95853 0.43805,1.16239 2.1119,3.12477 3.25739,3.81893 0.4931,0.2988 0.65829,0.46646 0.83136,0.84382 0.11881,0.259 0.26033,0.56426 0.31451,0.67834 0.1288,0.27113 0.53322,0.50427 1.02989,0.59371 0.21929,0.0396 0.67218,0.22304 1.00641,0.40787 0.66613,0.36842 1.08135,0.41714 1.69873,0.19931 1.0926,-0.38548 1.64879,-0.29704 2.0624,0.32795 0.24252,0.36648 0.26087,0.37413 1.16521,0.48548 1.07126,0.13191 1.2858,0.24897 1.73834,0.94855 0.61425,0.94958 1.25868,1.48591 1.88801,1.57132 0.35988,0.0488 0.74787,0.19755 1.1287,0.4326 0.6882,0.42479 0.90752,0.4382 1.78217,0.10899 0.79787,-0.30033 1.27662,-0.31152 2.13358,-0.0499 0.87623,0.26756 1.20709,0.25074 1.82073,-0.0925 0.287,-0.16056 0.81339,-0.36421 1.16976,-0.45252 0.99291,-0.2461 1.13066,-0.32368 1.41706,-0.7978 0.4045,-0.66967 1.41447,-1.04372 2.82902,-1.04776 0.58341,-9.3e-4 0.6408,-0.0257 1.43977,-0.60266 0.52724,-0.38074 1.03504,-0.65787 1.386,-0.75639 2.07461,-0.58232 1.83602,-0.45027 3.04746,-1.68668 1.21912,-1.24423 1.54923,-1.43011 1.85946,-1.04698 0.49018,0.60534 -0.0988,1.87931 -1.26471,2.73535 -0.35685,0.26202 -0.78139,0.66907 -0.94339,0.90455 -0.55051,0.80013 -1.43688,1.38828 -2.34525,1.55621 -0.40645,0.0752 -0.77117,0.23833 -1.22098,0.54632 -0.35277,0.24154 -0.93986,0.52941 -1.30466,0.63971 -0.84604,0.25581 -0.86293,0.26821 -1.09192,0.80243 -0.23709,0.55307 -0.32207,0.62463 -1.06779,0.89913 -0.76939,0.28319 -0.8619,0.37103 -1.29062,1.22524 -0.82206,1.63795 -0.9295,1.74037 -2.11837,2.01943 -0.4859,0.11408 -0.9025,0.14107 -1.47705,0.0958 -0.63854,-0.0504 -0.86717,-0.0297 -1.13142,0.10209 -0.69933,0.34889 -1.48911,0.30834 -2.1055,-0.10807 z m 11.82548,-2.42827 c -0.24846,-0.27455 -0.11786,-0.46954 0.67264,-1.0042 0.69128,-0.46754 1.21256,-0.97516 2.17855,-2.12145 0.36091,-0.42827 0.58647,-0.59799 0.95927,-0.72181 1.18099,-0.39227 3.60287,-3.30621 3.60287,-4.33486 0,-0.0935 0.20801,-0.4953 0.46223,-0.89266 l 0.46224,-0.72247 -0.063,-0.67784 c -0.0376,-0.40511 -0.008,-1.05402 0.075,-1.6128 0.35196,-2.38405 -0.3571,-3.03224 -0.99236,-0.90719 -0.51976,1.73868 -0.6289,1.87299 -1.63791,2.01561 -0.75771,0.10709 -0.76953,0.11713 -1.30026,1.10321 -0.51578,0.9583 -0.70473,1.08053 -1.82964,1.18353 -0.45135,0.0414 -0.9405,0.14948 -1.10747,0.24484 -0.16447,0.094 -0.47766,0.27835 -0.69596,0.40979 -0.59365,0.35745 -1.60081,0.61005 -1.79377,0.44993 -0.40113,-0.33292 -0.15997,-0.68334 0.82684,-1.20151 0.8057,-0.42306 2.62691,-2.19876 3.30441,-3.22179 0.27047,-0.40843 0.67941,-0.89278 0.90878,-1.07636 0.90369,-0.72322 0.91916,-0.74679 0.84722,-1.28909 -0.0871,-0.65669 0.0692,-1.18268 0.5062,-1.70405 1.10413,-1.31711 1.4559,-1.95128 1.92453,-3.46956 0.76256,-2.47064 1.67448,-3.10965 2.40216,-1.68327 0.31627,0.61992 0.49007,0.4947 0.84847,-0.61129 0.16875,-0.52068 0.42666,-1.2459 0.57318,-1.61163 0.2392,-0.59703 0.26639,-0.79252 0.26639,-1.91399 0,-1.49229 0.0899,-1.95702 0.66129,-3.41934 0.47623,-1.21874 0.52981,-1.68277 0.28678,-2.48386 -0.1918,-0.63223 -0.18848,-1.00403 0.0156,-1.73767 0.16001,-0.57551 0.15819,-0.6318 -0.0499,-1.5374 -0.11876,-0.517 -0.21593,-1.20102 -0.21593,-1.52004 0,-0.31902 -0.11452,-1.08843 -0.25451,-1.70981 -0.30916,-1.37251 -0.29918,-1.94415 0.0348,-1.99151 0.79659,-0.11295 1.93046,2.43286 2.25386,5.06049 0.10676,0.86703 0.18365,1.16584 0.34415,1.33669 0.26844,0.28574 0.47826,0.89098 0.56256,1.62276 0.10895,0.94582 0.23633,1.31212 0.64336,1.8499 0.50362,0.66539 0.75487,1.46384 0.91187,2.89787 0.15167,1.38528 0.1387,1.42508 -1.02313,3.14337 -0.38151,0.56423 -0.8528,1.4061 -1.04735,1.87083 -0.25693,0.6138 -0.51375,1.02158 -0.93877,1.49056 -0.32179,0.35508 -0.67522,0.81408 -0.78541,1.01999 -0.11019,0.2059 -0.34298,0.56425 -0.51731,0.79631 -0.66756,0.88868 -0.46816,1.82093 0.38951,1.82093 0.57706,0 0.98537,0.23702 1.12211,0.65139 0.1851,0.56086 0.0821,1.78524 -0.20108,2.38894 -0.20226,0.43127 -0.2417,0.70655 -0.2928,2.04349 -0.083,2.17253 -0.54668,2.89082 -1.86603,2.89082 -1.63468,0 -2.29595,0.75197 -1.87667,2.1341 0.50404,1.66152 -0.29641,2.85161 -2.03239,3.02166 -0.76223,0.0746 -0.8437,0.13079 -1.38556,0.9543 -0.46246,0.70286 -0.48746,0.72298 -1.16944,0.94078 -0.5328,0.17015 -0.77904,0.31422 -1.04577,0.61187 -0.3432,0.38298 -0.85931,0.71065 -1.11931,0.71065 -0.0729,0 -0.45997,0.15701 -0.86037,0.34889 -0.86162,0.41292 -1.65863,0.48012 -1.94476,0.16395 z m 11.12155,-3.02484 c -0.30439,-0.30439 0.23115,-0.93162 1.99597,-2.33768 0.64273,-0.51208 1.35458,-1.16632 1.58188,-1.45387 0.22728,-0.28756 0.69538,-0.71208 1.04022,-0.9434 0.74073,-0.49694 1.38875,-1.48408 2.65189,-4.03968 0.67202,-1.35967 1.69093,-1.88146 1.76192,-0.90231 0.0749,1.03362 -0.64766,3.22127 -1.27679,3.86541 -0.26891,0.27532 -0.44959,0.59251 -0.58383,1.0248 -0.28022,0.9025 -0.59457,1.26953 -1.25064,1.46025 -0.45373,0.13191 -0.70824,0.31539 -1.59844,1.15242 -0.62051,0.58345 -1.17097,1.01829 -1.3298,1.05047 -0.29231,0.0592 -0.47204,0.14956 -1.61436,0.81142 -0.75488,0.43739 -1.16085,0.52935 -1.37802,0.31217 z m 15.29801,-0.64461 c -0.20866,-0.20867 -0.008,-0.58754 0.77827,-1.47288 1.02116,-1.14914 1.18153,-1.44866 1.50207,-2.80522 0.13705,-0.58 0.33607,-1.22487 0.44227,-1.43305 0.10622,-0.20817 0.26784,-0.68674 0.3592,-1.06348 0.0913,-0.37675 0.25753,-0.84199 0.36925,-1.03387 0.11174,-0.1919 0.25834,-0.71086 0.32577,-1.15324 0.10046,-0.65894 0.21595,-0.96849 0.63891,-1.71242 0.76257,-1.34118 0.87274,-2.68094 0.46034,-5.59818 -0.10242,-0.72458 -0.11924,-1.18199 -0.0557,-1.51676 0.05,-0.26361 0.13814,-0.85939 0.19586,-1.32395 0.0577,-0.46456 0.23914,-1.29633 0.40316,-1.84839 0.39942,-1.34454 0.39888,-1.35407 -0.11855,-2.1066 -0.3962,-0.57621 -0.45843,-0.73986 -0.51169,-1.34572 -0.18765,-2.13429 -1.39841,-3.46944 -1.99882,-2.20418 -0.23719,0.49984 -0.20542,0.89239 0.12522,1.54741 0.4927,0.97602 0.63417,1.60791 0.51148,2.28454 -0.0885,0.48809 -0.0732,0.73968 0.0927,1.52586 0.25325,1.2 0.25152,1.26678 -0.0474,1.82898 -0.15479,0.29113 -0.24922,0.63149 -0.24922,0.89838 0,0.77678 -0.19048,1.47586 -0.5439,1.99624 -0.18836,0.27729 -0.41704,0.69481 -0.5082,0.92782 -0.42679,1.09098 -1.32212,0.0949 -1.05101,-1.16914 0.23021,-1.07337 0.14384,-2.89573 -0.1583,-3.34036 -0.33516,-0.49325 -0.40395,-1.17986 -0.23017,-2.29705 0.13974,-0.89827 0.13823,-0.90401 -0.51659,-1.95915 -0.16329,-0.26311 -0.36314,-0.86014 -0.51484,-1.53804 -0.13639,-0.6094 -0.35937,-1.32787 -0.49555,-1.59659 -0.32783,-0.64694 -0.44609,-1.11317 -0.55884,-2.20302 -0.15187,-1.46775 -0.32039,-1.68092 -1.67348,-2.11657 -1.31212,-0.42248 -1.50851,-0.59053 -1.96652,-1.68273 -0.43287,-1.03226 -0.58206,-1.19328 -1.40201,-1.51315 -0.85644,-0.3341 -0.98365,-0.4351 -1.45035,-1.15141 -0.88046,-1.35138 -0.66316,-1.90052 0.71096,-1.79678 1.1067,0.0835 1.2107,-0.0866 0.60027,-0.98235 -0.11044,-0.16206 -0.29498,-0.54647 -0.41009,-0.85424 -0.20023,-0.53546 -0.24892,-0.5838 -1.12848,-1.12054 -1.13344,-0.69167 -1.23029,-0.79407 -1.86186,-1.96866 -0.64446,-1.19852 -0.75624,-1.2943 -1.51043,-1.2943 -0.76956,0 -1.03458,-0.14896 -1.62544,-0.91357 -0.2684,-0.34733 -0.83163,-1.01281 -1.25163,-1.47883 -0.42001,-0.46602 -0.8156,-0.94529 -0.87911,-1.06503 -0.52336,-0.98696 0.69039,-1.44365 2.21724,-0.8343 0.43321,0.17287 0.88177,0.30088 0.99684,0.28444 0.54427,-0.0777 0.12965,-1.1156 -0.61301,-1.53446 -1.49842,-0.84508 -1.849,-1.2016 -2.17293,-2.20968 -0.17678,-0.55015 -0.16277,-0.54059 -0.98871,-0.67458 -0.60372,-0.098 -0.93733,-0.30495 -1.70272,-1.0565 -0.77198,-0.75803 -0.51296,-0.65672 -2.79809,-1.09448 -0.28052,-0.0537 -0.7515,-0.24997 -1.04667,-0.43607 -0.29516,-0.18611 -0.64955,-0.40421 -0.78755,-0.48468 -0.13798,-0.0804 -0.82477,-0.24318 -1.52617,-0.36163 -1.89391,-0.31983 -2.45945,-0.56507 -2.45945,-1.06649 0,-1.11193 3.43368,-0.77325 5.21932,0.51482 0.56767,0.40947 0.93247,0.4406 1.75848,0.15003 1.06657,-0.37518 1.76845,-0.18653 2.21208,0.59451 0.17889,0.31494 0.319,0.42943 0.62889,0.51391 0.60836,0.16581 0.9544,0.36729 1.4454,0.84152 0.56755,0.54817 0.90821,0.68721 2.29584,0.93707 1.01137,0.18211 1.16465,0.23854 1.56562,0.57633 0.54516,0.45927 0.57264,0.47736 1.62112,1.06688 2.26622,1.2742 2.61008,3.0377 0.809,4.14908 -0.85582,0.52812 -0.84739,0.50518 -0.61825,1.68228 0.20948,1.07614 0.38313,1.29196 1.24924,1.55257 0.62155,0.18701 0.72261,0.10404 0.58827,-0.48303 -0.22109,-0.96617 0.51009,-1.4892 1.56723,-1.12109 0.2429,0.0846 0.55621,0.15444 0.69621,0.15523 0.71821,0.005 2.58643,1.66177 2.58643,2.29493 0,0.35094 0.12515,0.49995 0.63372,0.75444 1.37015,0.68566 1.54506,1.48867 0.79195,3.63588 l -0.37375,1.06558 0.16972,0.53837 c 0.29228,0.9272 0.65691,1.39115 1.37753,1.7527 0.75228,0.37743 0.76622,0.39692 1.33204,1.86092 0.86018,2.22563 1.05822,2.40172 2.70208,2.40263 1.42727,7.6e-4 1.70489,-0.29338 1.60172,-1.69726 -0.0844,-1.14873 -0.30453,-1.80916 -0.72692,-2.18113 -0.52679,-0.4639 -0.62789,-0.74722 -0.78969,-2.21322 -0.17817,-1.61436 -0.22596,-1.75391 -0.79136,-2.31131 -0.35123,-0.34628 -0.48383,-0.57991 -0.65238,-1.14929 -0.41705,-1.40905 -0.59866,-1.67746 -1.598,-2.36193 -0.89691,-0.61429 -0.90525,-0.62389 -1.32799,-1.52894 -0.50811,-1.0878 -1.12716,-1.55975 -2.36852,-1.80568 -0.14796,-0.0294 -0.52708,-0.27911 -0.84246,-0.5551 -0.31538,-0.27599 -0.97932,-0.73115 -1.4754,-1.01146 -1.12062,-0.6332 -1.35057,-0.83559 -1.35057,-1.18867 0,-0.81381 1.18007,-0.72892 2.21805,0.15955 0.34649,0.29657 0.48413,0.35059 0.89338,0.35059 0.56864,0 1.12909,0.25875 2.07208,0.95666 0.35637,0.26375 1.05166,0.64977 1.54508,0.85781 0.49343,0.20805 1.00828,0.43555 1.14411,0.50558 0.29164,0.15033 0.69323,0.7143 0.76583,1.07546 0.0417,0.20713 0.21809,0.33403 0.93176,0.67011 0.75441,0.35526 0.94217,0.49568 1.31207,0.98119 0.78585,1.03151 1.06013,1.29551 1.47507,1.41985 0.74607,0.22352 0.94628,0.84254 0.79006,2.44264 l -0.1059,1.08418 0.30748,0.28084 c 0.28206,0.25763 0.30746,0.33341 0.30746,0.91716 v 0.63633 l 1.03393,0.85947 c 1.63916,1.36259 1.93273,1.94191 1.51423,2.98801 -0.16249,0.40616 -0.25545,0.83214 -0.25545,1.1706 0,0.43587 -0.10361,0.75892 -0.57318,1.78648 l -0.57318,1.25437 v 1.34574 c 0,0.8637 -0.0482,1.49053 -0.13458,1.75001 -0.12061,0.36233 -0.11285,0.47468 0.0747,1.08211 0.22896,0.74123 0.25782,1.27282 0.10503,1.93517 -0.17655,0.7656 0.81752,2.21051 1.5208,2.21051 0.89115,0 1.56662,-1.8397 1.12991,-3.07744 -0.13681,-0.38781 -0.13124,-0.44067 0.0987,-0.9346 0.30055,-0.64558 0.3009,-0.73998 0.007,-1.6699 -0.51764,-1.63351 -0.44818,-2.20387 0.38776,-3.18415 0.74676,-0.87571 0.91998,-1.34818 0.76655,-2.09099 -0.16586,-0.80303 -0.15448,-0.91564 0.19463,-1.92396 l 0.31201,-0.90118 -0.21233,-0.51228 c -0.13733,-0.33132 -0.21233,-0.72671 -0.21233,-1.11937 0,-0.48922 -0.0626,-0.72866 -0.32297,-1.2333 -0.51123,-0.99126 -0.55721,-3.82922 -0.0664,-4.09196 0.31201,-0.16698 0.53903,0.1034 0.73208,0.872 0.0906,0.36077 0.2331,0.78807 0.3166,0.94954 0.0836,0.16149 0.19561,0.56542 0.2491,0.89765 0.0739,0.45844 0.17895,0.69943 0.43606,0.99982 0.45589,0.53262 0.6929,1.06452 1.11442,2.50111 0.53447,1.82148 0.55182,2.51047 0.0884,3.51013 -0.61517,1.32699 -0.66646,2.79366 -0.15015,4.29432 0.10698,0.31099 0.19558,0.70419 0.19688,0.87379 9.3e-4,0.1696 0.091,0.64175 0.19936,1.04923 0.3456,1.2996 0.20934,2.20757 -0.50079,3.33737 -0.65626,1.04406 -0.75476,1.57524 -0.50683,2.73322 0.26765,1.25005 0.25928,1.62954 -0.052,2.35937 -0.14031,0.32895 -0.29943,0.7551 -0.35358,0.94699 -0.0542,0.19189 -0.16802,0.59561 -0.25303,0.89715 -0.66238,2.34925 -1.48312,2.46485 -2.12324,0.29905 -0.2728,-0.92298 -0.35458,-1.03074 -0.72587,-0.95647 -0.97724,0.19542 -1.36234,0.7262 -1.36608,1.8828 -0.002,0.66569 -0.01,0.6854 -0.45891,1.16543 l -0.45673,0.48827 0.3776,0.67524 c 0.85924,1.53644 0.38053,3.05185 -1.43288,4.53593 -0.30053,0.24593 -0.32398,0.30874 -0.32398,0.86754 0,0.94106 -0.37388,1.40924 -1.12544,1.40924 -0.35281,0 -0.60128,0.23847 -1.19447,1.14635 -0.4214,0.64496 -0.6095,0.83975 -0.98356,1.01855 -0.40233,0.19232 -0.52502,0.33244 -0.94299,1.07708 -0.41517,0.73965 -0.55691,0.90244 -1.04299,1.19771 -1.04893,0.63719 -1.80676,0.89124 -2.02064,0.67738 z m -37.19836,-1.84417 c -0.10966,-0.0606 -0.30025,-0.20163 -0.42354,-0.3133 -0.21089,-0.19099 -0.2699,-0.19605 -0.99682,-0.0855 -1.11142,0.16916 -1.71558,0.14843 -2.07581,-0.0713 -0.16846,-0.10274 -0.57083,-0.26367 -0.89414,-0.35766 -1.43623,-0.41752 -2.1338,-1.05353 -1.76359,-1.60798 0.32162,-0.48166 1.56658,-0.47622 2.28858,0.01 0.47678,0.32107 0.57721,0.34889 1.26006,0.34889 0.6566,0 0.83771,0.0452 1.57392,0.39285 0.87377,0.4126 2.75445,0.59774 3.77262,0.37137 0.77317,-0.1719 0.96109,0.54333 0.22642,0.86177 -1.01933,0.44185 -2.56053,0.67591 -2.9677,0.4507 z m 1.46758,-2.7303 c -0.60626,-0.42464 0.22982,-1.31569 2.12655,-2.26641 0.50708,-0.25417 0.83928,-0.51166 1.19061,-0.92288 0.26799,-0.31371 0.7365,-0.72731 1.04112,-0.91912 0.79628,-0.50137 0.98606,-0.69784 1.32199,-1.3685 0.16479,-0.32895 0.40244,-0.71024 0.52811,-0.8473 0.48712,-0.53124 0.75386,-1.01829 0.63565,-1.1607 -0.19575,-0.23587 -0.37785,-0.151 -1.06902,0.49814 -0.68426,0.64264 -0.76349,0.67914 -1.98721,0.91557 -0.27573,0.0532 -0.37287,0.15432 -0.62118,0.64622 -0.51524,1.02066 -0.78897,1.14848 -2.55168,1.19142 -0.0608,9.4e-4 -0.27436,0.2495 -0.47465,0.55116 -0.43605,0.65675 -1.01545,1.09875 -1.70183,1.29829 -0.56332,0.16377 -0.75501,0.12957 -1.67542,-0.29875 -0.64034,-0.298 -0.4908,-0.32898 -1.71954,0.35613 -1.4145,0.7887 -2.9179,0.53138 -4.16176,-0.71232 -0.7817,-0.78163 -0.84209,-1.04006 -0.39928,-1.70917 0.21607,-0.3265 0.24344,-0.42344 0.13026,-0.46117 -0.44906,-0.14969 -0.60982,-0.49207 -0.58118,-1.2378 0.026,-0.67448 0.007,-0.7559 -0.29082,-1.18312 l -0.31864,-0.45878 -0.89721,-0.0678 c -1.84978,-0.13963 -3.00109,-0.86171 -3.00109,-1.88219 0,-0.29526 0.34034,-0.75366 0.64576,-0.86978 0.2178,-0.0828 0.24883,-0.1602 0.55622,-1.38723 0.10329,-0.41228 0.21022,-0.5454 0.96614,-1.2026 0.68508,-0.59563 -0.0523,-1.46293 -1.67808,-1.97378 -1.95929,-0.61564 -2.3135,-0.46227 -2.36842,1.02552 -0.0375,1.01724 -0.19719,1.34423 -0.65638,1.34423 -0.80194,0 -1.03773,1.35202 -0.3062,1.75594 0.74799,0.413 0.9957,1.06782 0.60128,1.58932 -0.23158,0.30616 -0.18079,0.43308 0.24089,0.6018 0.21646,0.0866 0.50517,0.30376 0.64154,0.48257 0.20453,0.26816 0.37567,0.35602 0.97706,0.50162 0.89305,0.21625 1.53443,0.50755 1.72895,0.78527 0.55647,0.79448 -0.78072,1.2255 -2.23661,0.72094 -0.6515,-0.22577 -0.83592,-0.24836 -1.56803,-0.19209 -0.789,0.0606 -0.84985,0.0505 -1.24047,-0.20807 -0.22593,-0.14951 -0.6616,-0.33717 -0.96815,-0.41701 -1.63725,-0.42646 -2.07304,-1.34929 -1.41012,-2.98603 0.30643,-0.7566 -0.38919,-1.53774 -1.36938,-1.53774 -1.20122,0 -1.93466,-0.74691 -1.98201,-2.01842 -0.0148,-0.39527 -0.0789,-0.64617 -0.19918,-0.77909 -0.56796,-0.6276 -0.31519,-1.338 0.78803,-2.21477 0.35088,-0.27884 0.56348,-0.85999 0.56348,-1.54024 0,-0.74176 0.79581,-1.71739 1.59538,-1.95585 0.50988,-0.15206 0.57146,-0.20492 0.88955,-0.76341 1.20322,-2.11263 3.76527,-2.91155 3.99183,-1.24477 0.10057,0.74004 0.8628,0.41587 1.44399,-0.61414 0.7199,-1.27586 0.98167,-1.43041 2.10343,-1.24192 0.87228,0.14656 1.37903,-0.0811 1.73545,-0.77973 0.78504,-1.53882 4.17846,-1.98813 4.63497,-0.61371 0.15278,0.46003 0.19703,0.50821 0.46649,0.50821 0.16732,0 0.4471,0.11398 0.63891,0.26027 0.44461,0.33912 0.63557,0.28307 1.41451,-0.41518 0.80251,-0.7194 1.6988,-0.86109 2.54753,-0.4027 0.41256,0.22281 0.60086,0.25857 1.36188,0.25857 h 0.8831 l 0.58195,0.45181 c 0.93488,0.72586 1.01887,0.77231 1.54678,0.85577 0.68754,0.10869 0.9571,0.31276 1.23093,0.93195 0.18148,0.41036 0.40229,0.66612 0.98897,1.14552 0.96326,0.78709 1.38814,1.64805 0.90485,1.83352 -0.23505,0.0902 -1.44107,-0.56855 -2.14578,-1.17204 -0.65419,-0.56021 -0.79676,-0.61196 -1.56258,-0.56707 -0.49247,0.0289 -0.63883,-0.0408 -1.33638,-0.63622 -0.60385,-0.51544 -0.68545,-0.52969 -1.34981,-0.23577 -0.46292,0.20479 -0.53433,0.20919 -1.49288,0.092 -1.09328,-0.13359 -1.51591,-0.0489 -1.99305,0.39934 -0.11624,0.10921 -0.386,0.22544 -0.59946,0.25829 -0.67599,0.10405 -0.83094,0.41351 -0.40659,0.81215 0.30674,0.28817 0.61763,0.27367 1.72275,-0.0804 1.49778,-0.47978 1.54621,-0.47983 3.10104,-0.003 2.89485,0.88675 3.29992,1.70745 1.49966,3.03843 -0.69533,0.51405 -0.5287,1.07011 0.47349,1.58015 1.93577,0.98517 2.54667,2.77479 1.11068,3.25372 -0.26632,0.0887 -0.64761,0.29646 -0.8473,0.46142 -1.08595,0.89703 -1.44545,1.00409 -2.33178,0.69438 -0.35167,-0.12289 -0.939,-0.25414 -1.3052,-0.29165 -0.85662,-0.0878 -1.09443,-0.18326 -1.72177,-0.69134 -0.28369,-0.22977 -0.65415,-0.49364 -0.82324,-0.58639 -1.38158,-0.75775 -0.55067,-2.56402 1.18366,-2.57303 1.43176,-0.007 1.324,-0.86872 -0.24001,-1.91808 -0.52415,-0.35169 -0.86927,-0.34664 -1.80852,0.0265 -0.66414,0.26383 -0.83454,0.29319 -1.37836,0.23748 l -0.62052,-0.0637 -0.46949,0.52216 c -0.63069,0.7015 -0.68568,0.9484 -0.28162,1.26462 0.23512,0.184 0.31278,0.32447 0.31278,0.5657 0,0.28969 0.053,0.34689 0.54501,0.58818 1.60749,0.78839 1.82207,1.61615 0.70232,2.70935 -0.77481,0.75645 -0.7558,1.48357 0.0496,1.90008 0.42563,0.22011 0.6221,0.18577 1.09959,-0.19206 0.93573,-0.74048 1.53137,-0.68428 2.0455,0.19305 0.49303,0.84128 0.88512,0.86282 1.642,0.0902 1.4807,-1.51145 3.0192,-1.27035 3.54907,0.55616 0.25056,0.86371 0.34762,0.93114 1.23231,0.85601 0.74715,-0.0636 0.74791,-0.0638 1.20574,-0.57684 0.45088,-0.50524 0.46965,-0.51457 1.18692,-0.59123 1.37083,-0.14647 2.11882,-1.42265 1.51231,-2.58022 -0.81631,-1.55798 -0.25762,-2.80599 1.18852,-2.65484 1.22292,0.12783 2.63513,-1.88738 1.91732,-2.73601 -0.56406,-0.66689 -0.57364,-0.69072 -0.59116,-1.47257 -0.0364,-1.6215 -0.5043,-2.57249 -1.4324,-2.9109 -0.856,-0.31212 -1.19707,-0.8101 -1.19874,-1.7503 -7.5e-4,-0.40662 -0.13294,-0.50187 -0.81352,-0.58609 -0.68349,-0.0846 -1.12044,-0.33435 -1.39298,-0.79625 -0.15171,-0.25715 -0.31144,-0.3752 -0.61911,-0.45756 -0.61587,-0.16487 -0.94118,-0.38833 -1.30904,-0.89916 -0.26973,-0.37456 -0.40317,-0.47068 -0.72485,-0.52212 -0.77393,-0.12375 -1.10109,-0.59765 -0.76583,-1.10932 0.29589,-0.45159 -0.21584,-0.60093 -2.05926,-0.60093 h -1.55353 l -0.53981,-0.37242 c -0.29689,-0.20484 -0.64253,-0.44701 -0.76807,-0.53815 -0.20733,-0.1505 -0.36297,-0.15429 -1.69689,-0.0413 -1.63175,0.13823 -2.18739,0.066 -2.45726,-0.31924 -0.46069,-0.65772 0.4309,-2.16799 1.27988,-2.16799 0.19007,0 0.50253,-0.13278 0.80896,-0.34377 l 0.49928,-0.34378 0.94823,0.0898 c 0.52152,0.0493 1.11445,0.15923 1.31759,0.24409 0.63164,0.26392 1.51841,0.18109 1.62403,-0.15171 0.0993,-0.31283 -0.11837,-0.56793 -0.54624,-0.64022 -0.21842,-0.0369 -0.49935,-0.14675 -0.62433,-0.24411 -0.61009,-0.47526 -0.8644,-0.53531 -1.99332,-0.47071 -1.02754,0.0589 -1.10967,0.0482 -1.89684,-0.24301 -0.94287,-0.34891 -1.28445,-0.3375 -2.0879,0.0698 -0.61771,0.313 -2.12676,0.50283 -2.643,0.33245 -1.05397,-0.34783 -0.36342,-1.62943 1.04133,-1.93262 0.42933,-0.0926 0.92297,-0.68977 0.92297,-1.11642 0,-1.0167 -1.97004,-1.00913 -3.78795,0.0145 -1.23087,0.6931 -1.63617,0.81203 -2.24501,0.65872 -0.6073,-0.15292 -0.70202,-0.10763 -1.29931,0.6212 -1.3023,1.58913 -4.06399,1.95374 -3.8948,0.5142 0.0833,-0.70882 -0.10176,-0.65881 -1.1339,0.30644 -0.42621,0.39858 -0.90331,0.79135 -1.06018,0.87282 -0.1569,0.0815 -0.38952,0.28976 -0.51695,0.46286 -0.12743,0.1731 -0.47182,0.46835 -0.76534,0.65611 -0.2935,0.18775 -0.56303,0.43398 -0.59897,0.5472 -0.0386,0.12208 -0.27489,0.29875 -0.58038,0.43423 -0.55787,0.24738 -1.07625,0.76233 -1.61459,1.60389 -0.47121,0.73661 -1.4247,1.74646 -1.64898,1.74646 -1.10332,0 0.33602,-2.85899 2.53672,-5.0387 0.44544,-0.44118 0.97138,-1.0371 1.16874,-1.32424 0.70625,-1.02739 1.94835,-2.27309 2.75465,-2.7626 0.42321,-0.25694 0.94994,-0.62201 1.17053,-0.81125 0.5764,-0.49452 2.28242,-1.32738 2.71899,-1.32738 0.22894,0 0.52974,0.11145 0.8425,0.31213 1.00019,0.64183 1.90616,0.3825 2.74063,-0.7845 0.92785,-1.29756 2.51132,-1.79153 3.96421,-1.23667 1.00841,0.38511 1.49241,0.43752 2.23771,0.24223 1.56441,-0.40987 2.53847,-0.21469 3.6704,0.73543 1.17115,0.98307 1.26704,1.01625 2.16941,0.75077 1.15443,-0.33964 1.81246,-0.20218 2.47919,0.51794 0.29341,0.31689 1.64608,0.95791 2.02139,0.95791 0.0821,0 0.35161,-0.11864 0.59904,-0.26365 0.43734,-0.2563 0.45941,-0.25906 0.79366,-0.0996 0.47776,0.22783 0.4988,0.2193 0.68938,-0.27974 0.33349,-0.87322 0.86551,-1.04393 1.79838,-0.57702 0.32481,0.16257 0.75747,0.32595 0.96146,0.36307 0.50613,0.0921 0.89796,0.44864 1.2229,1.1128 0.16119,0.32944 0.57323,0.86225 1.00549,1.30016 1.87274,1.89719 1.83955,4.09416 -0.0404,2.67985 -1.19845,-0.90158 -2.00642,-0.74764 -1.38588,0.26404 0.84193,1.37264 0.8687,1.43151 0.86964,1.91245 0.002,1.18753 -0.94287,1.36262 -2.30874,0.4277 -1.39174,-0.95263 -1.77733,-1.05408 -1.77733,-0.46757 0,0.32321 -0.34976,0.53523 -0.76809,0.46559 -1.28711,-0.2143 -1.47066,-0.20052 -1.85769,0.13929 -0.82467,0.72407 0.2572,1.95376 1.28691,1.46273 0.63859,-0.30452 1.28998,-0.16671 1.94964,0.4125 0.53479,0.46954 0.74041,0.47925 1.58424,0.0748 0.95943,-0.45979 1.35386,-0.46145 2.25242,-0.008 1.40269,0.70562 2.16569,1.52788 2.4351,2.62426 0.0874,0.35598 0.20857,0.50613 0.7232,0.89681 1.47129,1.11691 2.05343,2.0087 2.17561,3.33294 0.14075,1.52538 0.22755,1.72392 1.70113,3.89106 0.67368,0.99077 0.64695,4.1749 -0.0385,4.59752 -0.34882,0.21505 -0.71117,-0.039 -0.90837,-0.63693 -0.25588,-0.77578 -0.39719,-0.89703 -0.70663,-0.60633 -0.64279,0.60387 -0.7872,1.60001 -0.41835,2.88567 0.187,0.65178 0.0732,1.00697 -0.53288,1.6646 -0.57487,0.62364 -0.787,1.11593 -0.89664,2.08089 -0.16007,1.40866 -0.66947,2.21718 -1.89815,3.01274 -0.32071,0.20766 -0.66323,0.51351 -0.76114,0.67969 -0.34547,0.58626 -1.0863,1.27477 -1.68291,1.56407 -0.32876,0.15939 -0.77732,0.46078 -0.99683,0.66974 -0.59493,0.56631 -0.93831,0.76822 -1.54547,0.9088 -0.66664,0.15433 -0.98424,0.30801 -1.24627,0.60298 -0.34998,0.39398 -0.96865,0.79307 -1.22939,0.79307 -0.13899,0 -0.68177,0.24446 -1.20615,0.54324 -1.27507,0.72645 -2.1975,0.93243 -2.67571,0.59747 z m -11.73493,-0.42854 c -2.70779,-1.07802 -3.08808,-1.33812 -3.33567,-2.28153 -0.0926,-0.35317 -0.19915,-0.47942 -0.64468,-0.7644 -0.57258,-0.3663 -0.67606,-0.48568 -1.21306,-1.39949 -0.80042,-1.36207 -0.13042,-1.71501 1.07748,-0.56762 0.4532,0.43049 0.94468,0.78916 1.29163,0.94261 0.43373,0.19181 0.65401,0.37486 0.97659,0.81152 0.42218,0.57147 0.53598,0.64792 1.24961,0.83942 0.2193,0.0589 0.62302,0.29374 0.89715,0.52197 0.27413,0.2282 0.7227,0.58219 0.99682,0.78661 0.96999,0.72329 1.27797,1.18581 0.889,1.33507 -0.41567,0.15951 -1.50081,0.0481 -2.18487,-0.22416 z m -33.12374,-1.16732 c -0.31404,-0.21998 -0.57447,-0.78473 -0.70219,-1.52283 -0.0603,-0.34775 -0.23061,-0.84117 -0.37873,-1.09651 -0.73925,-1.27433 -0.74749,-1.30023 -0.71978,-2.25854 0.0226,-0.78046 -0.008,-0.98363 -0.24346,-1.56209 -0.35492,-0.87602 -0.34847,-1.25165 0.0296,-1.72744 0.34985,-0.44024 0.37901,-0.81216 0.14976,-1.91102 -0.13966,-0.66941 -0.13681,-0.75441 0.0447,-1.33783 0.16602,-0.53345 0.18586,-0.81035 0.13799,-1.92677 -0.0552,-1.28618 -0.0524,-1.30849 0.20162,-1.65267 0.8214,-1.11271 1.01512,-1.57841 0.91153,-2.19148 -0.25502,-1.50948 0.0849,-2.19835 1.42065,-2.87987 0.27422,-0.13989 0.53422,-0.39297 0.75595,-0.73587 0.44131,-0.68247 0.69889,-0.9094 1.368,-1.20532 0.3038,-0.13436 0.81719,-0.47028 1.14087,-0.74648 0.72667,-0.62008 1.7125,-1.21245 2.01783,-1.21245 0.65929,0 0.49459,0.97337 -0.32342,1.91132 -0.40688,0.46653 -0.59085,0.78306 -0.74029,1.27365 -0.29187,0.95824 -0.70011,1.54319 -1.28321,1.83866 -0.46299,0.23462 -0.50172,0.28639 -0.7676,1.02587 -0.33949,0.94425 -0.58429,1.44879 -0.78285,1.61359 -0.082,0.0681 -0.18025,0.31172 -0.21843,0.54156 -0.0383,0.22987 -0.13141,0.53906 -0.20716,0.68711 -0.17906,0.34993 -0.17503,0.57906 0.0251,1.4351 0.19359,0.82783 0.14511,1.10572 -0.27667,1.58609 -0.33423,0.38067 -0.32472,0.25425 -0.12563,1.66885 0.0452,0.32102 -0.007,0.60479 -0.21219,1.17128 -0.20147,0.5542 -0.29001,1.03132 -0.34218,1.84414 -0.0531,0.82794 -0.12326,1.19931 -0.28624,1.51619 -0.27133,0.52755 -0.27213,0.87315 -0.003,1.48053 0.18474,0.41763 0.20252,0.5783 0.13661,1.23379 -0.0912,0.90711 -0.0912,0.92999 0.002,2.00594 0.10361,1.19074 -0.12975,1.55346 -0.72932,1.1335 z m -14.65885,-2.5104 c -0.6766,-0.57281 -1.39236,-3.22873 -1.25762,-4.66659 0.0598,-0.63814 0.0376,-0.79656 -0.19238,-1.37137 -0.29989,-0.74961 -0.33158,-1.45485 -0.11048,-2.46002 0.0784,-0.35637 0.1441,-1.05836 0.14602,-1.55999 0.003,-0.87266 0.0184,-0.9342 0.34875,-1.42506 0.18987,-0.28216 0.37433,-0.67917 0.4099,-0.88225 0.0355,-0.20308 0.21793,-0.64796 0.40524,-0.98863 0.33272,-0.6051 0.33705,-0.6278 0.18819,-0.98407 -0.23059,-0.5519 -0.19154,-0.70745 0.29257,-1.16546 0.55511,-0.52516 1.05029,-1.45379 1.05029,-1.96963 0,-0.66025 1.09336,-2.3612 1.63718,-2.54704 0.5803,-0.19829 0.61912,0.93453 0.0697,2.02954 -0.27216,0.54227 -0.40688,0.96215 -0.45505,1.41827 -0.12112,1.14698 -0.26523,1.83813 -0.43651,2.09335 -0.25614,0.38166 -0.50443,1.41568 -0.67021,2.79111 -0.0825,0.68532 -0.22064,1.43832 -0.30674,1.67333 -0.14265,0.38939 -0.14243,0.45703 0.003,0.76268 0.19692,0.41498 0.20133,0.7876 0.016,1.3591 -0.0788,0.2428 -0.19076,0.81801 -0.24902,1.27829 -0.0583,0.46028 -0.14694,0.88643 -0.19705,0.94699 -0.12585,0.15213 -0.17838,3.71439 -0.0697,4.71813 0.11526,1.06309 -0.0997,1.39129 -0.62176,0.94932 z m 83.81776,-3.11552 c -0.16031,-0.29955 0.0357,-0.88914 0.4847,-1.45753 0.51542,-0.65248 0.57516,-0.7867 0.65954,-1.48165 0.0729,-0.60108 0.26736,-1.07369 0.72779,-1.76944 0.22201,-0.33547 0.24267,-0.44429 0.18647,-0.982 -0.0697,-0.66613 -0.0364,-0.76166 0.53518,-1.53598 0.48621,-0.65873 0.51532,-0.74631 0.59642,-1.79428 0.0398,-0.51273 0.16132,-1.14169 0.2839,-1.46785 0.1717,-0.45682 0.21449,-0.78833 0.21449,-1.66153 0,-1.29563 0.0317,-1.4062 0.4026,-1.4062 0.74857,0 1.33215,2.06959 0.94421,3.34845 -0.20276,0.66837 -0.18811,1.18127 0.062,2.16891 0.24729,0.97663 0.21031,1.33586 -0.20272,1.96945 -0.25064,0.38447 -0.29122,0.55411 -0.33206,1.38838 -0.0554,1.13036 -0.15296,1.34654 -0.7176,1.58857 -0.35434,0.15188 -0.49201,0.29837 -0.80284,0.85418 -0.50306,0.89957 -0.95441,1.38126 -1.8335,1.95679 -0.80603,0.5277 -1.04688,0.58384 -1.20855,0.28173 z m -61.77601,-5.25304 c -0.23382,-0.35633 -0.29143,-1.95797 -0.12735,-3.5418 l 0.12115,-1.16952 -0.26507,-0.4523 c -0.3442,-0.58734 -0.29241,-2.6686 0.0974,-3.91513 0.1699,-0.54327 0.21386,-0.86915 0.17501,-1.29754 -0.0369,-0.40619 0.007,-0.78834 0.15503,-1.31802 0.11381,-0.41028 0.27263,-1.06619 0.35297,-1.4576 0.33029,-1.6094 1.25017,-2.71103 2.40556,-2.88089 1.02338,-0.15043 1.67298,-0.59833 2.23522,-1.54114 0.4734,-0.79384 0.71104,-1.01214 1.35206,-1.24201 0.27412,-0.0983 0.67784,-0.34883 0.89715,-0.55677 0.2193,-0.20794 0.72883,-0.53749 1.13229,-0.73232 0.40346,-0.19483 0.84899,-0.46966 0.99005,-0.61073 0.39853,-0.39852 0.66202,-0.30136 0.69841,0.25753 0.0424,0.65033 -0.50927,1.44812 -1.5695,2.26996 -0.44148,0.34219 -0.80269,0.66453 -0.80269,0.71627 0,0.0517 -0.28992,0.32192 -0.64427,0.60039 -0.51821,0.40723 -0.72711,0.66177 -1.06753,1.30068 -0.43996,0.8257 -1.21705,1.69767 -1.70285,1.91073 -0.16524,0.0725 -0.30451,0.22633 -0.33736,0.37264 -0.23914,1.06549 -0.3112,1.17487 -1.28461,1.94958 l -0.38299,0.3048 -0.0195,1.39673 c -0.0147,1.05311 -0.0588,1.47232 -0.17853,1.70404 -0.11119,0.21503 -0.15218,0.5276 -0.13648,1.04076 0.0207,0.6783 -0.002,0.77205 -0.30646,1.24724 -0.31879,0.49804 -0.32684,0.53639 -0.26233,1.24825 0.0674,0.7442 0.0454,0.89508 -0.45474,3.12041 -0.37134,1.65201 -0.62476,1.95417 -1.06999,1.27576 z m 55.98967,-4.07286 c -0.10383,-0.12513 -0.10622,-0.32684 -0.0122,-1.03305 0.0643,-0.48266 0.11588,-1.02947 0.11468,-1.21515 -9.4e-4,-0.18567 0.14137,-0.90845 0.31679,-1.60615 l 0.31895,-1.26858 -0.33141,-0.99229 c -0.32399,-0.97009 -0.32982,-1.01754 -0.26004,-2.12045 0.12402,-1.95983 0.50851,-2.01314 1.4282,-0.19798 0.66959,1.32152 0.75827,1.7584 0.47011,2.31566 -0.13742,0.26575 -0.13742,0.34784 0,0.8106 0.21576,0.72657 0.19366,1.1882 -0.0761,1.58626 -0.12939,0.19101 -0.30008,0.69991 -0.39268,1.1708 -0.32019,1.6282 -1.18311,3.02423 -1.57642,2.55033 z m 14.78534,-0.49452 c -0.26969,-0.18888 -0.49028,-0.764 -0.57343,-1.49498 -0.068,-0.59752 -0.40719,-1.78313 -0.76056,-2.65828 -0.10372,-0.25687 -0.18856,-0.65083 -0.18856,-0.87543 0,-0.5008 -0.17908,-0.89948 -0.69381,-1.54476 -0.53483,-0.67045 -1.32739,-2.28913 -1.33978,-2.73631 -0.0146,-0.52784 0.46371,-0.56217 1.06207,-0.0762 0.23278,0.18907 0.7405,0.5478 1.12825,0.79719 0.91647,0.58947 0.96008,0.65111 0.98654,1.39492 0.0192,0.53888 0.0746,0.70674 0.38599,1.16915 0.51139,0.75936 0.80911,1.69505 0.70785,2.22462 -0.0434,0.22712 -0.067,0.98381 -0.0524,1.68155 0.0406,1.93999 -0.13137,2.49036 -0.6622,2.11855 z m -15.376,-9.99401 c -0.17029,-0.13789 -0.26007,-0.40618 -0.40389,-1.20693 -0.21281,-1.18487 -0.16978,-1.11243 -0.77676,-1.30721 -0.37745,-0.12111 -0.4993,-0.22052 -0.64151,-0.52333 -0.21203,-0.45147 -0.27089,-0.45769 -0.70701,-0.0747 -0.78282,0.68731 -1.46645,0.14412 -2.5,-1.98644 -0.64208,-1.32357 -0.59002,-1.64867 0.25426,-1.58772 0.54417,0.0393 0.56169,-0.0537 0.13448,-0.71443 -0.44602,-0.68985 -0.49546,-0.89174 -0.35497,-1.44967 0.13223,-0.52515 0.10741,-0.57422 -0.62997,-1.24385 -1.34151,-1.2183 -1.48626,-2.39942 -0.26411,-2.15498 0.35139,0.0703 2.40698,1.30387 2.83435,1.70094 0.17126,0.15909 0.64994,0.46104 1.06375,0.67097 1.51788,0.77002 1.72696,1.07165 1.88454,2.71867 0.11823,1.23596 0.32981,1.79957 1.01739,2.7102 l 0.43268,0.57305 0.0151,1.35353 c 0.0245,2.19151 -0.51938,3.20135 -1.35839,2.52196 z m 32.14333,-8.29889 c -0.035,-0.0565 -0.10275,-0.51634 -0.15071,-1.02175 -0.11018,-1.16162 -0.39961,-2.10243 -0.85492,-2.77902 -0.53675,-0.79759 -0.53722,-0.79904 -0.68861,-2.09073 -0.0776,-0.66221 -0.19754,-1.27775 -0.26652,-1.36788 -0.069,-0.0901 -0.26176,-0.32087 -0.42842,-0.51275 -0.84557,-0.9736 -1.83994,-2.62735 -1.84309,-3.06525 -0.008,-1.01962 2.19082,0.29426 2.92882,1.7506 0.13567,0.26775 0.45506,0.72915 0.70976,1.02534 0.75406,0.87692 0.96352,1.3827 1.04861,2.53219 0.0476,0.64361 0.15118,1.19032 0.29216,1.54294 0.15623,0.39077 0.19947,0.64594 0.15202,0.89713 -0.0668,0.35345 -0.0732,0.70527 -0.0351,1.89612 0.0309,0.96413 -0.52827,1.73629 -0.86401,1.19306 z m -3.87732,-0.22115 c -0.0802,-0.12335 -0.25778,-0.72233 -0.3947,-1.33105 -0.27015,-1.20102 -0.62173,-2.02306 -1.17303,-2.74269 -0.21192,-0.27664 -0.46105,-0.80092 -0.6245,-1.31421 -0.30254,-0.95018 -0.35173,-1.01246 -0.87379,-1.10645 -0.55404,-0.0997 -0.90226,-0.55705 -1.37835,-1.8101 -0.0479,-0.12615 -0.24144,-0.25426 -0.502,-0.33231 -0.29776,-0.0892 -0.60522,-0.31334 -1.03255,-0.75273 -0.33469,-0.34414 -0.77898,-0.75112 -0.98728,-0.90442 -1.46659,-1.07921 -0.77022,-2.93784 0.72763,-1.94212 0.59099,0.39286 0.75217,0.39432 0.55082,0.006 -0.0836,-0.16177 -0.15208,-0.41142 -0.15208,-0.55483 0,-0.40393 -0.17412,-0.63783 -0.60238,-0.80918 -0.23888,-0.0956 -0.59254,-0.38762 -0.90199,-0.74481 -0.27997,-0.32318 -0.58307,-0.58782 -0.67361,-0.58813 -0.45566,-9.4e-4 -0.94267,-0.24872 -1.47623,-0.74927 -0.4509,-0.42301 -0.65286,-0.54605 -0.89626,-0.54605 -0.17281,0 -0.55415,-0.11172 -0.84744,-0.24824 -1.30334,-0.60674 -1.69532,-0.0324 -0.64862,0.95045 l 0.51215,0.48089 0.0148,0.74876 c 0.0137,0.69371 0.04,0.78031 0.35843,1.17783 0.42837,0.53491 0.85956,2.23742 0.68378,2.69978 -0.21127,0.55564 -0.92184,0.23584 -1.90783,-0.85865 -0.23876,-0.26504 -0.6056,-0.56938 -0.81519,-0.6763 -0.28006,-0.14289 -0.45017,-0.33534 -0.64188,-0.72623 -0.15021,-0.30626 -0.38466,-0.60496 -0.5528,-0.7043 -0.1606,-0.0949 -0.45107,-0.3939 -0.64551,-0.66455 -0.39235,-0.54613 -0.67515,-0.72645 -1.39099,-0.88687 -0.54002,-0.12102 -0.84544,-0.3633 -1.15719,-0.91796 -0.15742,-0.28012 -0.27505,-0.37491 -0.46631,-0.37579 -0.75749,-0.003 -1.49262,-0.33152 -2.39405,-1.06824 -0.28365,-0.23182 -0.69237,-0.46732 -0.90826,-0.52335 -0.21589,-0.056 -0.56517,-0.1466 -0.77619,-0.20132 -1.70468,-0.44193 -1.37467,-1.98678 0.33691,-1.57725 0.35709,0.0855 0.67084,0.12042 0.69722,0.0777 0.0872,-0.14122 -0.0673,-0.38604 -0.28586,-0.4525 -0.28525,-0.0868 -0.55199,-0.32425 -0.7748,-0.68977 -0.13055,-0.2142 -0.34488,-0.35563 -0.75525,-0.49843 -0.57876,-0.20138 -0.59253,-0.215 -1.17773,-1.16591 -0.29945,-0.48655 -0.61039,-0.55453 -1.27545,-0.27888 l -0.55382,0.22954 -0.73096,-0.36117 c -0.97948,-0.48396 -1.17531,-0.43618 -1.15641,0.28224 0.0221,0.84225 -0.49105,1.34403 -1.37465,1.34403 -0.35433,0 -1.23795,-0.71559 -1.23795,-1.00254 0,-0.19249 -0.73318,-0.49918 -1.4472,-0.60538 -0.69496,-0.10339 -0.87061,-0.17727 -1.58605,-0.66741 -1.12635,-0.77164 -1.26423,-0.80678 -2.74836,-0.70036 -1.56017,0.11189 -1.45298,0.14333 -2.75054,-0.80734 -1.27886,-0.93699 -1.8072,-1.11859 -2.66618,-0.91638 -0.28292,0.0667 -0.98543,0.16352 -1.56109,0.21537 l -1.04667,0.0943 -0.39874,-0.43683 c -0.52128,-0.57107 -0.66501,-0.63295 -1.49524,-0.64373 -1.44334,-0.0188 -2.03559,-0.16829 -2.92454,-0.73842 -0.79955,-0.5128 -1.4602,-0.60187 -2.08808,-0.28154 -0.54395,0.27751 -0.6741,0.26774 -1.4805,-0.11109 -0.60974,-0.28644 -0.79776,-0.32497 -1.73072,-0.35467 -1.40748,-0.0447 -1.91887,-0.27804 -1.74987,-0.79808 0.10786,-0.33181 1.804,-1.13696 2.51549,-1.19406 0.83479,-0.067 0.68114,-0.20436 -0.32158,-0.28744 -0.43612,-0.0362 -1.03546,-0.14848 -1.33187,-0.24966 -0.66405,-0.22666 -1.25986,-0.23438 -1.76602,-0.0229 -0.67295,0.28119 -1.69554,0.1508 -2.44489,-0.31173 -0.86621,-0.53465 -1.42086,-0.5811 -1.90138,-0.1592 -0.46234,0.40595 -0.8958,0.57968 -1.78836,0.71676 -0.97238,0.14934 -1.34753,0.3177 -1.74647,0.78378 -0.56666,0.66201 -1.34625,0.81519 -2.77406,0.54506 -0.23633,-0.0447 -0.38204,0.007 -0.68336,0.24752 -0.21064,0.1674 -0.54648,0.3286 -0.74629,0.35822 -1.14747,0.17014 -2.33469,1.14896 -2.60654,2.149 -0.11268,0.41449 -0.31695,0.61403 -1.61377,1.57636 -1.04466,0.77524 -1.5027,1.01065 -1.96634,1.01065 -0.77242,0 -1.32123,0.21363 -1.89001,0.73572 -0.81603,0.74902 -1.21108,0.95815 -2.10471,1.11414 -1.58092,0.276 -2.03017,0.67745 -2.48969,2.22469 -0.2525,0.85027 -0.50594,1.1488 -1.11306,1.31116 -0.5532,0.14793 -0.64661,0.22842 -0.94237,0.81208 -0.2526,0.49846 -1.45684,1.72663 -2.15767,2.20051 -1.06653,0.72116 -1.74022,-0.18124 -0.92874,-1.24402 0.67557,-0.88477 0.53149,-1.29645 -0.31057,-0.88736 -0.63942,0.31067 -1.34815,1.01497 -1.96719,1.95493 -0.3296,0.50046 -0.85539,1.10581 -1.35219,1.55679 -0.59887,0.54364 -1.05197,1.09222 -1.721,2.08364 -0.49945,0.74015 -1.14131,1.61486 -1.42634,1.94382 -0.28503,0.32894 -0.59764,0.75508 -0.6947,0.94699 -0.097,0.19188 -0.473,0.69134 -0.83543,1.10992 -0.36244,0.41856 -0.85536,1.11384 -1.0954,1.54508 -0.75639,1.35887 -1.22408,1.79892 -1.8219,1.7143 -0.397,-0.0562 -0.34756,-0.478 0.21811,-1.86067 0.62491,-1.52741 1.18598,-2.63049 1.67523,-3.29351 0.87465,-1.18534 1.34039,-1.758 1.5432,-1.89746 0.32283,-0.22202 0.45984,-0.4291 0.46338,-0.70032 0.006,-0.4216 0.40718,-1.09798 0.87953,-1.48104 0.7344,-0.5956 0.98607,-0.9076 1.21267,-1.50327 0.35633,-0.93674 0.64313,-1.26096 2.03215,-2.29739 1.42964,-1.06671 1.87309,-1.50228 2.11231,-2.07483 0.51922,-1.24267 1.84482,-1.86901 2.48241,-1.17293 0.56031,0.61171 1.14524,0.3439 2.64796,-1.21235 0.57567,-0.59617 1.42703,-1.37593 1.89192,-1.7328 0.78347,-0.60141 0.86725,-0.70126 1.14635,-1.36599 0.56981,-1.35709 1.38375,-2.05928 2.12843,-1.83617 0.83069,0.24886 1.32075,-0.0534 1.55817,-0.96134 0.17494,-0.6689 0.38551,-0.99074 0.78482,-1.1995 0.17348,-0.0907 0.58456,-0.44437 0.91351,-0.78593 0.46384,-0.48162 0.79164,-0.71099 1.46021,-1.0218 0.47415,-0.22043 1.17812,-0.64804 1.56437,-0.95026 2.17624,-1.7028 4.83095,-1.62686 3.20561,0.0918 -0.56342,0.59574 -0.61661,0.81662 -0.23187,0.9629 0.42054,0.15989 0.77276,0.0203 1.29365,-0.51256 0.64644,-0.66137 1.13647,-0.88959 1.91005,-0.88959 0.55514,0 0.65324,-0.0326 0.99028,-0.32905 0.20577,-0.18099 0.75674,-0.62429 1.22441,-0.98512 0.46766,-0.36084 0.91366,-0.73241 0.99109,-0.82571 0.0774,-0.0933 0.43753,-0.31908 0.8002,-0.50171 0.36268,-0.18265 0.72112,-0.40643 0.79654,-0.49729 0.50544,-0.60903 1.64158,-0.78136 2.64036,-0.4005 0.97801,0.37294 1.85705,0.42975 2.47759,0.16013 0.26496,-0.11513 0.64625,-0.2109 0.84731,-0.21283 0.20105,-0.002 0.6571,-0.0677 1.01348,-0.14603 1.21752,-0.26781 1.83159,-0.14433 2.49458,0.50163 0.2653,0.25849 0.53395,0.38953 1.0965,0.53488 1.05068,0.27144 1.01659,0.24843 1.42814,0.96398 0.39138,0.68048 1.38082,1.53825 1.77436,1.53825 0.21698,0 0.78232,-1.12682 0.78232,-1.55931 0,-0.35238 -0.2453,-0.77581 -0.56808,-0.9807 -0.8897,-0.56471 -1.05257,-1.04082 -0.51177,-1.49587 l 0.31573,-0.26566 1.30411,0.0648 c 0.7173,0.0356 1.93216,0.0743 2.69971,0.0859 1.15625,0.0175 1.44202,0.052 1.6665,0.2014 0.20759,0.13814 0.59217,0.20067 1.64477,0.26747 1.33029,0.0844 2.76671,0.43598 3.59702,0.88037 0.11595,0.062 0.58033,0.18291 1.03194,0.26859 0.8782,0.16658 1.18893,0.29526 1.84785,0.76526 0.50582,0.36078 0.58133,0.52688 0.37954,0.83484 -0.21454,0.32744 -0.79382,0.31115 -2.27838,-0.0641 -1.31113,-0.33145 -1.48703,-0.34837 -1.94832,-0.18758 -0.95127,0.33162 0.57941,0.94653 2.26323,0.90919 1.27425,-0.0282 1.39144,0.0109 1.79902,0.60095 0.22048,0.31921 0.41336,0.46481 0.79093,0.59706 1.36073,0.47657 2.11672,1.86859 1.01481,1.86859 -0.55237,0 -0.50943,0.15778 0.23838,0.87585 0.62693,0.60202 0.73236,0.65511 1.50959,0.75998 0.29161,0.0393 0.471,0.14151 0.66775,0.38027 0.2329,0.28262 0.29313,0.30963 0.44858,0.20114 0.66934,-0.46719 1.10382,-0.35013 2.1732,0.58553 0.74824,0.65466 1.33169,0.9795 1.76564,0.98299 0.89272,0.008 1.86813,0.72283 2.07334,1.52106 0.24141,0.93904 0.22133,0.9135 0.83326,1.06059 0.52688,0.12666 0.60029,0.18037 0.95359,0.69778 0.49646,0.72704 0.74509,0.94933 1.35198,1.2088 0.27413,0.11721 0.72271,0.38204 0.99683,0.58854 1.25616,0.94623 2.14319,0.8442 2.14319,-0.24652 0,-0.54086 -0.002,-0.54496 -0.47349,-0.83636 -0.28446,-0.17594 -0.58196,-0.47404 -0.74515,-0.74666 -0.27461,-0.45876 -0.78032,-0.85158 -1.09721,-0.85226 -0.0949,-2e-4 -0.40895,-0.2511 -0.69777,-0.55753 -0.28882,-0.30644 -0.77683,-0.73472 -1.08446,-0.95172 -1.83958,-1.29765 0.26643,-2.00457 2.53265,-0.85013 0.82082,0.41813 0.98051,0.46531 1.51559,0.44785 0.66728,-0.0217 2.06361,0.43337 2.66488,0.86864 0.17909,0.12965 0.70502,0.42297 1.16875,0.65186 0.51673,0.25504 1.0595,0.62251 1.40198,0.94918 0.44187,0.42148 0.69869,0.57624 1.22696,0.73941 1.05138,0.32474 1.6616,0.97393 1.6616,1.76772 0,0.90069 1.74979,3.015 2.49519,3.015 0.37505,0 0.96375,0.55718 1.31653,1.24605 0.11232,0.21929 0.34955,0.57815 0.52722,0.79745 1.79564,2.21657 2.05969,4.07509 0.46614,3.281 -0.71059,-0.35411 -0.86521,-0.26057 -0.34429,0.20823 0.45607,0.41044 0.55835,0.81047 0.26869,1.05087 -0.61986,0.51444 -0.23231,1.02545 0.97232,1.28206 0.64932,0.13832 1.10791,0.5581 1.22711,1.12333 0.0384,0.18226 0.17493,0.44352 0.30332,0.58059 0.48915,0.52225 0.6417,1.1926 0.43125,1.89504 -0.0913,0.30471 -0.08,0.46885 0.0619,0.89576 0.0955,0.28747 0.18754,0.77522 0.20457,1.08388 0.0171,0.30867 0.0789,0.71791 0.13754,0.90943 0.1507,0.49239 0.14031,3.01723 -0.013,3.17058 -0.18709,0.18709 -0.46,0.14098 -0.61963,-0.1047 z m -79.28625,-10.26235 c -0.35136,-0.35138 0.0831,-1.23563 0.94401,-1.92144 0.75474,-0.60121 1.52814,-1.37727 1.52814,-1.53341 0,-0.21551 -0.96465,-0.0821 -2.03729,0.28176 -0.56686,0.1923 -1.0926,0.30257 -1.44539,0.30319 -0.38166,7.5e-4 -0.72252,0.0793 -1.09361,0.25194 -0.29654,0.13804 -0.94356,0.32076 -1.43786,0.40607 -1.08607,0.18742 -1.45989,0.32993 -3.08748,1.17701 -0.81452,0.42393 -1.37783,0.65608 -1.59195,0.65608 -1.57293,0 0.492,-2.37906 2.67501,-3.08194 1.33772,-0.4307 2.01626,-0.80489 3.07723,-1.69694 1.18247,-0.99418 1.19986,-1.00274 2.04066,-1.00274 0.68935,0 0.70936,-0.007 1.20519,-0.44779 0.67833,-0.60246 1.13913,-0.82144 2.22488,-1.05733 2.01329,-0.43741 1.99425,-0.43627 3.83008,-0.22927 0.472,0.0533 0.58451,0.0237 1.18162,-0.31027 0.84789,-0.47417 1.63263,-0.4732 2.58649,0.003 1.4143,0.70635 0.4753,2.14131 -2.34748,3.58731 -1.09642,0.56165 -1.67069,0.92543 -2.15788,1.36693 -0.62658,0.56784 -1.26963,0.92941 -2.33439,1.31255 -0.30627,0.1102 -0.70013,0.40269 -1.19619,0.88828 -1.02155,0.99999 -2.14987,1.46068 -2.56379,1.04679 z m 8.77211,-10.46672 c -0.30769,-0.30769 0.0135,-0.85028 0.85222,-1.43946 0.37011,-0.26001 1.00996,-0.72208 1.4219,-1.02684 0.41192,-0.30475 0.97562,-0.65883 1.25266,-0.78684 0.34,-0.15711 0.57968,-0.35571 0.73749,-0.61107 0.42157,-0.6821 2.00191,-1.28657 3.64322,-1.39349 0.8924,-0.0581 1.06324,-0.10166 1.59492,-0.40596 0.70564,-0.4039 1.57122,-0.48207 1.91341,-0.17277 0.24549,0.22188 0.42921,0.21789 1.20795,-0.0262 0.81065,-0.25412 1.52092,-0.25115 2.20597,0.008 0.33676,0.128 0.88927,0.22701 1.4454,0.25902 0.94861,0.0547 3.57014,0.71729 3.81963,0.96556 0.23179,0.23067 0.0335,0.449 -0.46108,0.50743 -0.25556,0.0302 -0.71407,0.0996 -1.01892,0.1543 -0.82403,0.14778 -1.34076,0.12236 -2.19452,-0.10795 -0.72116,-0.1946 -0.7881,-0.1974 -1.08212,-0.0453 -0.73279,0.37892 -2.52614,0.77418 -3.84469,0.84738 -1.20026,0.0667 -1.37679,0.10329 -2.39239,0.49672 -1.00828,0.39062 -1.15236,0.42089 -1.79055,0.37629 -0.73712,-0.0515 -1.11233,0.0507 -1.19993,0.32666 -0.0618,0.19458 -0.45645,0.39793 -0.77724,0.40046 -0.47249,0.005 -1.62303,0.3066 -2.08773,0.54959 -0.26896,0.14063 -0.80204,0.36861 -1.18463,0.50663 -0.3826,0.138 -0.85658,0.36013 -1.0533,0.49364 -0.38615,0.26206 -0.81618,0.31458 -1.00767,0.12309 z"
       id="path66" /></g></svg>
