<?xml version="1.0" encoding="UTF-8" standalone="no"?>
<!-- Created with Inkscape (http://www.inkscape.org/) -->

<svg
   width="440.10904"
   height="346.92416"
   viewBox="0 0 116.44551 91.790352"
   version="1.1"
   id="svg1"
   inkscape:version="1.3.2 (091e20e, 2023-11-25, custom)"
   sodipodi:docname="desing.svg"
   xml:space="preserve"
   inkscape:export-filename="rickandmortyfront\rym\src\assets\svg\wabes.svg"
   inkscape:export-xdpi="96"
   inkscape:export-ydpi="96"
   xmlns:inkscape="http://www.inkscape.org/namespaces/inkscape"
   xmlns:sodipodi="http://sodipodi.sourceforge.net/DTD/sodipodi-0.dtd"
   xmlns="http://www.w3.org/2000/svg"
   xmlns:svg="http://www.w3.org/2000/svg"><sodipodi:namedview
     id="namedview1"
     pagecolor="#4c4c4c"
     bordercolor="#6f6f6f"
     borderopacity="1"
     inkscape:showpageshadow="false"
     inkscape:pageopacity="0.0"
     inkscape:pagecheckerboard="0"
     inkscape:deskcolor="#4c4c4c"
     inkscape:document-units="px"
     inkscape:zoom="0.41979165"
     inkscape:cx="712.2581"
     inkscape:cy="103.62283"
     inkscape:window-width="1920"
     inkscape:window-height="1009"
     inkscape:window-x="-8"
     inkscape:window-y="-8"
     inkscape:window-maximized="1"
     inkscape:current-layer="layer1"
     showguides="true" /><defs
     id="defs1" /><g
     inkscape:label="Capa 1"
     inkscape:groupmode="layer"
     id="layer1"
     transform="translate(-286.17435,101.44028)"><path
       style="fill:#2b2d29;fill-opacity:1"
       d="m 380.98626,-9.8047464 c 0.3815,-0.15426 -0.13663,-1.3457496 -0.83852,-1.9282696 -0.22788,-0.18912 -0.41432,-0.49756 -0.41432,-0.68542 0,-0.18786 1.63711,-1.38496 3.63802,-2.66023 7.03886,-4.48616 10.4396,-6.8251 10.86299,-7.47128 0.41517,-0.63364 0.39992,-0.67664 -0.52252,-1.47356 -0.5226,-0.45147 -3.73272,-2.23437 -7.13361,-3.962 -3.40088,-1.72762 -6.27921,-3.22834 -6.39627,-3.33492 -0.11706,-0.10659 3.33575,-2.41204 7.67292,-5.12323 13.74608,-8.59276 14.76492,-9.27152 14.76492,-9.83647 0,-0.67096 -0.91802,-1.10053 -4.28382,-2.00455 -1.48297,-0.39832 -4.04282,-1.14065 -5.68854,-1.64964 -1.64572,-0.50898 -5.66489,-1.71339 -8.93149,-2.67646 -3.2666,-0.96307 -5.97964,-1.7914 -6.02897,-1.84073 -0.18228,-0.18228 1.02591,-2.85511 4.55659,-10.08037 4.15228,-8.49731 5.95645,-12.41497 5.95645,-12.93414 0,-0.59051 -1.42935,-1.02851 -2.69682,-0.82639 -0.6268,0.0999 -4.37616,0.82138 -8.33188,1.60318 -9.50324,1.87821 -11.56016,2.17287 -12.09121,1.73215 -0.22442,-0.18625 -0.66131,-1.0124 -0.97089,-1.83588 -1.35071,-3.59293 -1.72533,-6.84199 -2.25655,-19.570725 -0.18034,-4.321079 -0.36771,-5.079399 -1.25437,-5.076589 -0.76603,0.002 -2.46246,1.529849 -11.15974,10.047899 -11.49894,11.261975 -13.05111,12.672415 -13.38189,12.159975 -0.13517,-0.2094 -2.77548,-4.65296 -5.86734,-9.874575 -3.09188,-5.22161 -5.94379,-9.84227 -6.33758,-10.26813 -1.66306,-1.798539 -2.5256,0.33157 -4.03803,9.97239 -0.89107,5.680025 -1.189,8.591395 -1.19396,11.667895 -0.003,1.76067 -0.0828,4.11957 -0.17766,5.24198 l -0.17251,2.04076 -1.08426,-0.17116 c -1.73476,-0.27385 -6.92742,-1.36054 -10.01178,-2.09522 -3.67176,-0.87458 -4.43394,-0.88412 -4.43394,-0.0555 0,0.6721 2.61499,5.91995 7.15164,14.35213 1.57315,2.92397 2.89954,5.52349 2.94754,5.77672 0.0674,0.35554 -1.02757,1.05971 -4.80752,3.09171 -2.69213,1.44721 -5.17843,2.91427 -5.5251,3.26012 -1.07782,1.07529 -0.65267,1.74108 2.69236,4.21617 1.6533,1.22334 3.26863,2.48069 3.30061,2.91635 0.3535,4.81579 -0.29141,7.81915 1.75473,10.8486 0.79403,1.17562 1.67884,2.37367 1.98438,2.65017 0.8311,0.75214 0.68262,1.46096 -0.64277,3.06844 -1.26006,1.52824 -1.59677,2.3093 -1.36977,3.17737 0.0755,0.28871 0.10572,0.52492 0.0672,0.52492 -0.0386,0 -1.66453,-0.69243 -3.61325,-1.53873 -1.94872,-0.8463 -4.11004,-1.74964 -4.80292,-2.00741 -0.69289,-0.25778 -1.36372,-0.66668 -1.49074,-0.90867 -0.12703,-0.24199 -0.24904,-2.16639 -0.27114,-4.27644 -0.0906,-8.65254 -1.28121,-13.88405 -3.45151,-15.16608 -1.03462,-0.61116 -1.45868,-0.56103 -2.39629,0.28327 -1.06895,0.96256 -1.22496,2.13477 -1.56117,11.73044 -0.14574,4.15979 -0.37818,7.85073 -0.51652,8.20208 -0.13835,0.35136 -1.15373,1.44911 -2.25641,2.43945 -2.59058,2.32665 -3.32491,3.58293 -3.63088,6.21159 -0.13074,1.12308 -0.16722,2.48257 -0.0811,3.02109 0.14796,0.9251296 0.22221,0.9889696 1.34607,1.1575096 1.60794,0.24112 1.86279,-0.0774 1.16161,-1.4517896 -0.76002,-1.48975 -1.0709,-3.30623 -0.75909,-4.43546 0.2946,-1.06699 1.72525,-2.74 3.03559,-3.54984 0.50293,-0.31081 0.95252,-0.52177 0.99912,-0.46879 0.0466,0.053 0.28152,0.48328 0.52205,0.95622 0.98518,1.93715 1.00797,1.76502 1.61935,-12.22599 0.23502,-5.37823 0.51831,-9.9412 0.62953,-10.13994 0.15251,-0.27253 0.40151,-0.13437 1.01295,0.56201 1.33499,1.52047 1.52752,3.35156 1.52752,14.52772 0,5.34781 0.0671,9.72335 0.14906,9.72344 0.082,8e-5 1.24833,-0.83328 2.59188,-1.85193 1.34355,-1.01865 2.69073,-1.85208 2.99373,-1.85208 0.303,0 1.18498,0.36277 1.95992,0.80615 l 1.40902,0.80615 -1.97211,1.87332 c -1.08467,1.03032 -1.97212,2.09631 -1.97212,2.36885 0,0.27254 0.0686,0.49553 0.15239,0.49553 0.0838,0 0.82795,-0.51962 1.65365,-1.15471 3.37416,-2.59527 4.51288,-2.86539 6.20373,-1.47165 1.47681,1.21731 2.41718,2.99875 2.57357,4.87532 l 0.13229,1.5874996 3.43958,0.0279 c 1.89177,0.0154 3.52701,-0.0203 3.63386,-0.0792 0.10686,-0.0589 -0.26467,-0.6877196 -0.82562,-1.3973696 -0.98067,-1.24064 -1.76779,-3.46628 -2.26277,-6.39815 l -0.16336,-0.96764 2.62826,0.0416 c 2.56527,0.0406 3.43062,-0.15482 2.696,-0.60884 -0.20004,-0.12364 -1.02879,-0.30789 -1.84165,-0.40945 -2.59035,-0.32364 -3.99701,-1.34123 -3.99701,-2.89147 0,-0.67651 0.008,-0.67888 2.3151,-0.68568 1.73281,-0.005 2.78094,-0.16567 4.16719,-0.63833 1.01865,-0.34732 1.89926,-0.5848 1.95692,-0.52774 0.0577,0.0571 -0.0486,2.12694 -0.23616,4.59972 -0.36854,4.85901 -0.27646,6.64023 0.41366,8.00218 0.68516,1.35216 1.18807,1.8001596 2.02077,1.8001596 1.82695,0 3.94478,-2.0949796 5.22388,-5.1675296 0.8361,-2.0084 1.32701,-4.35918 0.9095,-4.35527 -0.12892,0.001 -0.81907,1.20023 -1.53367,2.66449 -1.3058,2.67566 -3.16331,5.09797 -4.14927,5.41091 -0.29149,0.0925 -0.71059,0.0183 -0.93133,-0.16489 -0.34213,-0.28393 -0.38906,-1.23405 -0.31804,-6.438 l 0.0833,-6.10492 1.36309,-3.17723 c 1.95556,-4.55821 2.30716,-5.92463 2.12938,-8.27532 -0.29445,-3.89336 -3.00066,-7.93848 -6.34405,-9.48282 -1.48241,-0.68474 -1.92294,-0.76046 -4.42446,-0.76046 -3.54502,0 -3.95564,-0.40171 -2.18281,-2.13547 2.16496,-2.11724 6.66199,-4.68941 10.47409,-5.99087 2.16923,-0.74057 9.31359,-0.93398 11.5632,-0.31302 2.54003,0.70111 6.70612,1.9771 7.66219,2.34675 2.62714,1.01577 5.91115,1.35979 6.70516,0.7024 0.26318,-0.2179 0.43859,-0.75259 0.43859,-1.33694 0,-2.22181 -2.98075,-4.69149 -7.3198,-6.06475 -3.61422,-1.14387 -5.32674,-1.35901 -10.83565,-1.36131 -6.78545,-0.003 -10.02575,0.6041 -15.02465,2.81421 -1.44139,0.63727 -2.66037,1.11902 -2.70883,1.07056 -0.18803,-0.18803 1.37922,-2.89623 2.66063,-4.59756 3.55709,-4.72274 9.175,-7.34565 16.44465,-7.67773 5.01379,-0.22904 9.24295,0.89382 13.99258,3.71509 5.47261,3.25072 7.49368,6.80681 10.4318,18.35492 1.94962,7.66285 3.29632,14.32272 3.89442,19.25914 0.24684,2.03729 0.54514,3.96603 0.66289,4.28609 0.13899,0.37778 0.89296,0.89558 2.14929,1.47604 2.36663,1.09345 3.75041,2.27112 4.54887,3.87134 1.06414,2.13266 1.06852,3.62238 0.0154,5.22966 l -0.4213,0.64299 -0.92637,-0.81336 c -1.11659,-0.98038 -5.94824,-3.43885 -9.22955,-4.69624 -1.30968,-0.50187 -2.64446,-1.08085 -2.96617,-1.28661 -0.85795,-0.54875 -1.11266,-1.8875 -1.38771,-7.29375 -0.23119,-4.54427 -0.85526,-8.72459 -1.59074,-10.65561 -0.16189,-0.42503 -0.68849,-1.31799 -1.17024,-1.98437 -0.48175,-0.66638 -1.28064,-1.98077 -1.77531,-2.92086 -2.36939,-4.50285 -7.29566,-7.2176 -12.23303,-6.74132 -3.28451,0.31684 -6.76061,2.52324 -8.78848,5.57836 -1.50531,2.26784 -2.02372,4.22352 -1.92267,7.25314 0.0768,2.30241 0.17325,2.70856 1.07723,4.53621 2.07568,4.19656 4.755,6.14695 9.04764,6.58611 2.62381,0.26844 5.27286,0.0129 6.8601,-0.66185 0.45456,-0.19322 1.57094,-0.90291 2.48086,-1.57708 0.90991,-0.67417 1.68995,-1.22577 1.73342,-1.22577 0.0435,0 0.0332,1.27992 -0.0228,2.84427 -0.0719,2.00942 -0.21572,2.97118 -0.4899,3.27662 -0.87066,0.96991 -4.80249,1.41195 -9.09823,1.02286 -1.8173,-0.1646 -2.00441,0.20086 -0.50799,0.99219 1.59041,0.84103 6.12806,0.863 8.3269,0.0403 0.81586,-0.30526 1.549,-0.4894 1.6292,-0.4092 0.39756,0.39756 -0.36582,1.74841 -1.59152,2.81629 -2.32723,2.02758 -3.58271,3.39171 -4.15626,4.51595 -0.67431,1.32176 -0.61333,2.4955096 0.12965,2.4955096 0.38854,0 0.57085,-0.2575896 0.73231,-1.0347096 0.32209,-1.55024 1.14289,-2.68597 2.79743,-3.87076 l 1.48839,-1.06581 0.47974,0.93512 c 0.55222,1.07639 0.9294,1.19099 1.11831,0.3398 0.12521,-0.56421 0.93175,-18.48285 0.94034,-20.89161 0.002,-0.62422 0.12344,-1.31355 0.26935,-1.53183 0.2242,-0.3354 0.36628,-0.28274 0.9173,0.34004 0.92219,1.04227 1.39979,2.97165 1.71692,6.936 0.36445,4.55587 0.35867,14.95027 -0.009,16.31599 -0.15812,0.5872 -0.22384,1.13128 -0.14606,1.20906 0.19542,0.19543 1.2812,-0.53757 3.48835,-2.35495 1.03136,-0.84923 2.02672,-1.54405 2.21192,-1.54405 0.44627,0 3.4535,1.60886 3.4535,1.84761 0,0.10252 -0.7112,0.75682 -1.58044,1.45402 -1.75721,1.40941 -2.567,2.44634 -2.19836,2.8149796 0.14257,0.14257 0.8741,-0.2575796 1.81057,-0.9903896 3.70833,-2.90181 4.73709,-2.93771 7.21293,-0.25174 1.24829,1.3542296 1.81671,1.4878496 2.6189,0.61562 1.32422,-1.43984 1.65942,-2.36178 1.65942,-4.56406 0,-2.95031 -0.78425,-4.14046 -4.14996,-6.29783 -3.25249,-2.08479 -3.44514,-2.52767 -4.71973,-10.84971 -1.58216,-10.33032 -4.22751,-20.5821 -6.50437,-25.20706 -1.12597,-2.28717 -3.69302,-5.41406 -5.75072,-7.00487 -2.373,-1.83457 -6.49387,-3.80574 -9.70341,-4.64151 -3.59601,-0.93641 -8.41238,-0.9971 -11.86202,-0.14948 -7.38614,1.81488 -11.43526,5.22259 -16.39929,13.8015 -0.46311,0.80036 -0.99968,1.45521 -1.19237,1.45521 -0.19269,0 -1.06425,-1.30969 -1.93682,-2.91042 -3.10391,-5.69416 -7.36474,-13.79985 -7.36474,-14.01047 0,-0.27259 0.57331,-0.16705 7.11341,1.30947 3.33736,0.75346 5.85911,1.1875 6.61459,1.13851 l 1.22095,-0.0792 -0.0863,-5.29167 c -0.0734,-4.50453 0.0148,-6.05912 0.59327,-10.45104 0.94123,-7.146215 1.84425,-12.307925 2.14795,-12.277735 0.1405,0.014 2.47741,3.76444 5.19312,8.33438 6.74215,11.345555 6.82292,11.467165 7.68188,11.566325 0.7759,0.0896 2.66766,-1.63932 17.14609,-15.669835 l 6.74687,-6.53815 0.20591,7.49094 c 0.22173,8.066275 0.59865,10.964705 1.96251,15.091335 0.81369,2.46197 1.77132,3.64441 2.95154,3.64441 0.44363,0 2.98547,-0.42337 5.64853,-0.94081 8.67567,-1.68573 14.81369,-2.80166 14.90544,-2.70992 0.14606,0.14606 -4.30679,9.16259 -7.50054,15.18776 -1.95928,3.69628 -2.95985,5.86523 -2.95985,6.41614 0,1.61115 1.30611,2.37405 5.95555,3.47866 1.83131,0.43508 6.33041,1.6908 9.998,2.79049 3.66758,1.09968 6.87669,2.06068 7.13135,2.13555 0.25466,0.0749 0.46302,0.23757 0.46302,0.36156 0,0.23651 -3.44791,2.45292 -8.85111,5.68974 -1.76303,1.05615 -4.47463,2.73889 -6.02576,3.73941 -1.55114,1.00052 -3.67026,2.34112 -4.70916,2.9791 -2.22554,1.36669 -2.79012,2.23011 -1.89592,2.89947 0.32218,0.24116 3.7472,2.02752 7.61116,3.96968 l 7.02538,3.5312 -0.87677,0.64885 c -0.48223,0.35687 -3.13897,2.07065 -5.90386,3.8084 -5.80012,3.6454 -7.6327,4.9779 -7.76079,5.64299 -0.0502,0.26088 0.33715,1.11967 0.86086,1.90844 0.87801,1.3223796 1.02931,1.4324996 1.94169,1.4132396 0.54422,-0.0115 1.13655,-0.0804 1.31629,-0.15303 z m -68.65545,-9.2941696 c -0.47294,-0.35689 -0.85989,-0.85476 -0.85989,-1.10637 0,-0.25162 0.73212,-1.15583 1.62695,-2.00934 1.51325,-1.4434 1.64147,-1.51262 1.83465,-0.99038 0.25427,0.68734 0.77173,4.31914 0.77173,5.41638 v 0.79975 l -1.25677,-0.73058 c -0.69123,-0.40182 -1.64373,-1.02258 -2.11667,-1.37946 z m 3.30501,-6.23179 c -1.7831,-0.87239 -3.58624,-2.78423 -4.6089,-4.88677 -0.56174,-1.1549 -1.63999,-5.28176 0.15554,-8.86033 1.0225,-2.03786 2.99881,-4.01947 4.95143,-4.96472 1.78609,-0.86463 4.50005,-0.83894 6.46623,0.0612 3.15932,1.44639 5.64978,4.96773 5.97477,8.44793 0.17627,1.88767 -0.30811,4.25377 -1.24795,6.09601 -0.77482,1.51877 -2.77807,3.59308 -4.20818,4.35747 -1.0573,0.56511 -1.4761,0.63038 -3.59287,0.55992 -1.97757,-0.0658 -2.657,-0.20742 -3.89007,-0.81071 z m -1.69237,-7.80273 c 1.5671,-1.73162 -1.09092,-4.60193 -2.73712,-2.95573 -0.75896,0.75897 -0.72553,2.47829 0.0589,3.02771 0.7967,0.55802 2.14079,0.5219 2.67825,-0.072 z m 23.5793,7.21533 c -2.00295,-0.94677 -4.03715,-2.97405 -5.02879,-5.01168 -0.71616,-1.47156 -0.77294,-1.81067 -0.7775,-4.64302 -0.005,-3.00691 0.011,-3.08778 0.99684,-5.08337 1.13181,-2.29108 2.2607,-3.36899 4.96059,-4.73657 1.45678,-0.73791 2.05213,-0.88132 4.01283,-0.96666 2.86592,-0.12473 5.05823,0.53052 7.30245,2.18262 2.41525,1.77801 4.22687,5.1273 3.50396,6.47807 -0.17224,0.32184 -0.43477,2.1551 -0.58339,4.07392 -0.31318,4.04324 -0.58555,4.67376 -2.70008,6.25056 -2.81849,2.10176 -3.8073,2.41169 -7.32128,2.29475 -2.393,-0.0796 -3.01118,-0.19839 -4.36563,-0.83862 z m -1.14439,-7.00072 c 0.61127,-0.35698 0.84328,-1.52986 0.47738,-2.41323 -0.43995,-1.06212 -1.96639,-1.4819 -2.89524,-0.79621 -0.8092,0.59736 -1.00158,1.93147 -0.40894,2.83595 0.32347,0.49367 0.64983,0.64087 1.40723,0.63469 0.54234,-0.004 1.18115,-0.12197 1.41957,-0.2612 z m -27.69808,-8.84706 c -1.01804,-0.42536 -4.88228,-3.24844 -4.88228,-3.56682 0,-0.24404 5.09026,-2.87858 7.23144,-3.74274 l 1.5429,-0.6227 0.51662,0.65293 c 0.84581,1.06897 1.55696,2.57054 1.55696,3.28746 0,1.15409 -3.34742,4.37693 -4.54612,4.37693 -0.27388,0 -0.91266,-0.17328 -1.41952,-0.38506 z m 5.86165,-7.44179 c -0.34472,-0.89833 -0.10969,-1.41469 1.22846,-2.69895 2.77208,-2.66042 4.27106,-3.61836 7.51398,-4.80187 4.33276,-1.58127 7.08693,-2.00432 12.92509,-1.98536 4.84729,0.0158 5.50765,0.0754 7.86364,0.71041 3.27788,0.88348 5.65824,2.02195 7.19736,3.44234 1.43189,1.32143 1.69079,2.29829 0.68171,2.57218 -0.59934,0.16268 -1.44064,-0.0303 -6.87917,-1.57782 -0.50932,-0.14493 -2.07231,-0.62559 -3.47331,-1.06814 -5.28997,-1.67101 -11.23603,-1.63623 -16.01178,0.0937 -1.85942,0.67353 -5.37738,2.61176 -7.61651,4.19635 -2.18322,1.54501 -3.14506,1.85834 -3.42947,1.11719 z m -4.0632,39.4057496 c 0.25466,-0.0728 0.46302,-0.19383 0.46302,-0.2690496 0,-0.30925 -1.4753,-2.19465 -1.71979,-2.19785 -0.25398,-0.003 -1.53977,2.11247 -1.38054,2.2716996 0.16899,0.16899 2.20231,0.31949 2.63731,0.1952 z"
       id="path102"
       sodipodi:nodetypes="ssssssssssssssssssssscssssscscssssssssssssssssssssssssssssssssssssssscsssssscsssscssssssssssscsssscssssssssssscssssssssssscsssssssssssssssssssssssssscsscsssssssssssssssssssssssssscsssssscsssssssssssssssscsssssssssssscssssssssssssssssssscssssssssssssscsssscssssssssssssssssssscss"
       inkscape:export-filename="rickandmortyfront\rym\src\assets\svg\human-path.png"
       inkscape:export-xdpi="96"
       inkscape:export-ydpi="96" /></g></svg>
