<?xml version="1.0" encoding="UTF-8" standalone="no"?>
<!-- Created with Inkscape (http://www.inkscape.org/) -->

<svg
   width="1012.0249"
   height="1509.5249"
   viewBox="0 0 267.76492 399.39513"
   version="1.1"
   id="svg1"
   inkscape:version="1.3.2 (091e20e, 2023-11-25, custom)"
   sodipodi:docname="desing.svg"
   xml:space="preserve"
   xmlns:inkscape="http://www.inkscape.org/namespaces/inkscape"
   xmlns:sodipodi="http://sodipodi.sourceforge.net/DTD/sodipodi-0.dtd"
   xmlns="http://www.w3.org/2000/svg"
   xmlns:svg="http://www.w3.org/2000/svg"><sodipodi:namedview
     id="namedview1"
     pagecolor="#4c4c4c"
     bordercolor="#6f6f6f"
     borderopacity="1"
     inkscape:showpageshadow="false"
     inkscape:pageopacity="0.0"
     inkscape:pagecheckerboard="0"
     inkscape:deskcolor="#4c4c4c"
     inkscape:document-units="px"
     inkscape:zoom="0.29683753"
     inkscape:cx="1271.7395"
     inkscape:cy="-992.12522"
     inkscape:window-width="1920"
     inkscape:window-height="1009"
     inkscape:window-x="-8"
     inkscape:window-y="-8"
     inkscape:window-maximized="1"
     inkscape:current-layer="layer1" /><defs
     id="defs1" /><g
     inkscape:label="Capa 1"
     inkscape:groupmode="layer"
     id="layer1"
     transform="translate(1070.8139,1045.682)"><path
       fill="#f599a0"
       d="m -915.77025,-728.50689 c 0,-11.91016 -8.06697,-21.90813 -19.02338,-24.90094 0.13625,-1.0806 0.23022,-2.17061 0.23022,-3.2888 0,-14.27341 -11.56719,-25.8406 -25.8406,-25.8406 -7.05213,0 -13.43711,2.83307 -18.09782,7.40921 -3.66466,-9.81003 -13.09883,-16.80579 -24.18677,-16.80579 -11.9102,0 -21.9082,8.06697 -24.901,19.02338 -1.0806,-0.13625 -2.1706,-0.23022 -3.2888,-0.23022 -14.2734,0 -25.8406,11.56719 -25.8406,25.8406 0,5.44532 1.6914,10.48658 4.5668,14.65397 -8.2878,4.30363 -13.9633,12.94849 -13.9633,22.93235 0,14.27341 11.5671,25.8406 25.8405,25.8406 2.9882,0 5.8447,-0.53091 8.5133,-1.46587 -0.9302,2.66863 -1.4658,5.52519 -1.4658,8.51331 0,14.2734 11.5672,25.84059 25.8406,25.84059 12.63839,0 23.14376,-9.08179 25.38485,-21.07183 4.61842,7.02864 12.56323,11.67525 21.59804,11.67525 14.27341,0 25.8406,-11.56719 25.8406,-25.84059 0,-6.27222 -2.23639,-12.02293 -5.95744,-16.5004 13.7613,-0.57319 24.7506,-11.88198 24.7506,-25.78422 z"
       id="path196"
       style="stroke-width:4.69829"
       inkscape:export-filename="plumbus.svg"
       inkscape:export-xdpi="96"
       inkscape:export-ydpi="96" /><path
       fill="#f05b6c"
       d="m -848.32629,-954.84233 c 0,0 26.45137,-8.82339 24.11162,-16.54268 -1.59742,-5.06476 -27.37224,4.64661 -27.37224,4.64661 z"
       id="path197"
       style="stroke-width:4.69829" /><path
       fill="#f05b6c"
       d="m -847.68263,-939.96754 c 0,0 42.28462,-1.47527 42.28462,4.69829 -0.5497,6.30041 -42.28462,4.69829 -42.28462,4.69829 0,0 23.49145,4.69829 23.49145,9.39658 0,4.69829 -26.60172,5.52049 -27.39573,5.11174 -0.79401,-0.41345 -5.4923,-11.98534 -5.4923,-11.98534 z"
       id="path198"
       style="stroke-width:4.69829" /><path
       fill="#f05b6c"
       d="m -857.07921,-897.83797 c 0,0 35.22309,24.05524 37.58633,9.55162 1.51284,-9.27442 -32.88804,-23.49145 -32.88804,-23.49145 z"
       id="path199"
       style="stroke-width:4.69829" /><path
       fill="#f05b6c"
       d="m -866.50868,-887.94337 c 0,0 23.13908,38.64344 32.24437,25.49762 5.98562,-8.63546 -29.86233,-46.98291 -29.86233,-46.98291 z"
       id="path200"
       style="stroke-width:4.69829" /><path
       fill="#f05b6c"
       d="m -880.57066,-864.7949 c 0,0 14.09487,23.49146 18.79316,18.79317 4.69829,-4.6983 -9.39658,-32.88804 -9.39658,-32.88804 z"
       id="path201"
       style="stroke-width:4.69829" /><path
       fill="none"
       stroke="#1f212b"
       stroke-linecap="round"
       stroke-linejoin="round"
       stroke-miterlimit="10"
       d="m -848.32629,-954.84233 c 0,0 26.45137,-8.82339 24.11162,-16.54268 -1.59742,-5.06476 -27.37224,4.64661 -27.37224,4.64661 z"
       id="path202"
       style="stroke:#2b2d29;stroke-width:4.69829;stroke-opacity:1" /><path
       fill="none"
       stroke="#1f212b"
       stroke-linecap="round"
       stroke-linejoin="round"
       stroke-miterlimit="10"
       d="m -847.68263,-939.96754 c 0,0 42.28462,-1.47527 42.28462,4.69829 -0.5497,6.30041 -42.28462,4.69829 -42.28462,4.69829 0,0 23.49145,4.69829 23.49145,9.39658 0,4.69829 -26.60172,5.52049 -27.39573,5.11174 -0.79401,-0.41345 -5.4923,-11.98534 -5.4923,-11.98534 z"
       id="path203"
       style="stroke:#2b2d29;stroke-width:4.69829;stroke-opacity:1" /><path
       fill="none"
       stroke="#1f212b"
       stroke-linecap="round"
       stroke-linejoin="round"
       stroke-miterlimit="10"
       d="m -857.07921,-897.83797 c 0,0 35.22309,24.05524 37.58633,9.55162 1.51284,-9.27442 -32.88804,-23.49145 -32.88804,-23.49145 z"
       id="path204"
       style="stroke:#2b2d29;stroke-width:4.69829;stroke-opacity:1" /><path
       fill="none"
       stroke="#1f212b"
       stroke-linecap="round"
       stroke-linejoin="round"
       stroke-miterlimit="10"
       d="m -866.50868,-887.94337 c 0,0 23.13908,38.64344 32.24437,25.49762 5.98562,-8.63546 -29.86233,-46.98291 -29.86233,-46.98291 z"
       id="path205"
       style="stroke:#2b2d29;stroke-width:4.69829;stroke-opacity:1" /><path
       fill="none"
       stroke="#1f212b"
       stroke-linecap="round"
       stroke-linejoin="round"
       stroke-miterlimit="10"
       d="m -880.57066,-864.7949 c 0,0 14.09487,23.49146 18.79316,18.79317 4.69829,-4.6983 -9.39658,-32.88804 -9.39658,-32.88804 z"
       id="path206"
       style="stroke:#2b2d29;stroke-width:4.69829;stroke-opacity:1" /><path
       fill="#f3cbca"
       d="m -955.67753,-781.14653 21.56515,-59.79984 c 0.53091,0.15034 1.06182,0.29599 1.59742,0.43224 l 0.90207,0.24431 0.0141,-0.0611 c 1.83703,0.43694 3.67876,0.86449 5.58157,1.1135 39.65357,5.24799 77.23989,-32.34773 83.95375,-83.97255 6.15476,-47.33527 -15.82384,-89.92993 -50.08378,-100.74073 l 0.009,-0.047 -0.73763,-0.202 c -1.01013,-0.3054 -2.02966,-0.5826 -3.05859,-0.8316 l -47.88967,-12.9767 c -1.53634,-0.4886 -3.09618,-0.9114 -4.6842,-1.2685 l -1.74306,-0.3477 v 0 c -1.07591,-0.2067 -2.12363,-0.498 -3.22303,-0.6437 -39.62069,-5.2526 -77.17417,32.3431 -83.87857,83.96317 -3.1103,23.96598 0.9725,46.7245 10.2094,64.76124 l -7.0052,20.35299 20.3201,22.19943 24.61907,-5.76481 13.28677,2.44781 -16.05406,61.88588 14.48953,11.37926 z"
       id="path207"
       style="stroke-width:4.69829" /><path
       fill="none"
       stroke="#1f212b"
       stroke-linecap="round"
       stroke-linejoin="round"
       stroke-miterlimit="10"
       stroke-width="9.39658"
       d="m -988.68772,-856.33797 c 0.67656,0.22551 2.32566,0.77521 3.14316,1.01013 l -0.0141,0.0705 10.05434,2.72501"
       id="path208"
       style="stroke:#2b2d29;stroke-opacity:1" /><path
       fill="none"
       stroke="#1f212b"
       stroke-linecap="round"
       stroke-linejoin="round"
       stroke-miterlimit="10"
       stroke-width="9.39658"
       d="m -937.13808,-842.12565 3.44385,0.93496 c 0.53091,0.15035 1.06181,0.296 1.59742,0.43225 l 0.90207,0.24431 0.0141,-0.0611 c 1.83703,0.43694 3.67876,0.86449 5.58156,1.1135 39.65358,5.24799 77.2399,-32.34773 83.95376,-83.97255 6.15476,-47.33527 -15.82385,-89.92992 -50.08378,-100.74072 l 0.009,-0.047 -0.73763,-0.202 c -1.01014,-0.3054 -2.02967,-0.5826 -3.05859,-0.8316 l -47.88968,-12.9814 c -1.53634,-0.4886 -3.09617,-0.9115 -4.68419,-1.2685 l -1.74307,-0.3477 v 0 c -1.07591,-0.2067 -2.12362,-0.498 -3.22302,-0.6437 -39.61599,-5.248 -77.16942,32.3478 -83.87392,83.97256 -3.1102,23.96598 0.9726,46.7245 10.2094,64.76124"
       id="path209"
       style="stroke:#2b2d29;stroke-opacity:1" /><path
       fill="none"
       stroke="#1f212b"
       stroke-linecap="round"
       stroke-linejoin="round"
       stroke-miterlimit="10"
       d="m -892.48552,-956.92837 c 0.19263,6.29571 -0.11746,12.78405 -0.97725,19.40394 -6.70446,51.62481 -44.40354,87.28484 -84.01953,82.03685 m 77.38085,-138.19082 c 2.38673,5.7883 4.26135,11.98534 5.55807,18.50187 m -58.5125,-63.02287 c 19.80799,2.6216 36.38356,14.8842 47.16613,32.9444"
       id="path210"
       style="stroke:#2b2d29;stroke-width:4.69829;stroke-opacity:1" /><path
       fill="none"
       stroke="#1f212b"
       stroke-linecap="round"
       stroke-linejoin="round"
       stroke-miterlimit="10"
       d="m -1030.916,-770.77741 c 5.5111,0 10.6229,1.72428 14.8138,4.66541"
       id="path211"
       style="stroke:#2b2d29;stroke-width:4.69829;stroke-opacity:1" /><path
       fill="none"
       stroke="#1f212b"
       stroke-linecap="round"
       stroke-linejoin="round"
       stroke-miterlimit="10"
       d="m -1066.1531,-706.89945 c 0,-14.27341 11.5672,-25.8406 25.8406,-25.8406"
       id="path212"
       style="stroke:#2b2d29;stroke-width:4.69829;stroke-opacity:1" /><path
       fill="none"
       stroke="#1f212b"
       stroke-linecap="round"
       stroke-linejoin="round"
       stroke-miterlimit="10"
       stroke-width="9.39658"
       d="m -915.77025,-728.50689 c 0,-11.91016 -8.06697,-21.90813 -19.02338,-24.90094 0.13625,-1.0806 0.23022,-2.17061 0.23022,-3.2888 0,-14.27341 -11.56719,-25.8406 -25.8406,-25.8406 -7.05213,0 -13.43711,2.83307 -18.09782,7.40921 -3.66466,-9.81003 -13.09883,-16.80579 -24.18677,-16.80579 -11.9102,0 -21.9082,8.06697 -24.901,19.02338 -1.0806,-0.13625 -2.1706,-0.23022 -3.2888,-0.23022 -14.2734,0 -25.8406,11.56719 -25.8406,25.8406 0,5.44532 1.6914,10.48658 4.5668,14.65397 -8.2878,4.30363 -13.9633,12.94849 -13.9633,22.93235 0,14.27341 11.5671,25.8406 25.8405,25.8406 2.9882,0 5.8447,-0.53091 8.5133,-1.46587 -0.9302,2.66863 -1.4658,5.52519 -1.4658,8.51331 0,14.2734 11.5672,25.84059 25.8406,25.84059 12.63839,0 23.14376,-9.08179 25.38485,-21.07183 4.61842,7.02864 12.56323,11.67525 21.59804,11.67525 14.27341,0 25.8406,-11.56719 25.8406,-25.84059 0,-6.27222 -2.23639,-12.02293 -5.95744,-16.5004 13.7613,-0.57319 24.7506,-11.88198 24.7506,-25.78422 z"
       id="path213"
       style="stroke:#2b2d29;stroke-opacity:1" /><path
       fill="none"
       stroke="#1f212b"
       stroke-linecap="round"
       stroke-linejoin="round"
       stroke-miterlimit="10"
       d="m -961.2685,-662.44423 c -13.24448,0 -23.98477,-10.74029 -23.98477,-23.98477"
       id="path214"
       style="stroke:#2b2d29;stroke-width:4.69829;stroke-opacity:1" /><path
       fill="none"
       stroke="#1f212b"
       stroke-linecap="round"
       stroke-linejoin="round"
       stroke-miterlimit="10"
       d="m -939.70804,-705.04832 c -7.16489,0 -10.7309,-1.71488 -14.5694,-4.84864"
       id="path215"
       style="stroke:#2b2d29;stroke-width:4.69829;stroke-opacity:1" /><path
       fill="none"
       stroke="#1f212b"
       stroke-linecap="round"
       stroke-linejoin="round"
       stroke-miterlimit="10"
       d="m -936.66825,-757.73495 c 0,7.3998 -3.3029,14.02909 -8.5133,18.49247"
       id="path216"
       style="stroke:#2b2d29;stroke-width:4.69829;stroke-opacity:1" /><path
       fill="none"
       stroke="#1f212b"
       stroke-linecap="round"
       stroke-linejoin="round"
       stroke-miterlimit="10"
       d="m -1016.8211,-709.75131 c -8.6401,0 -16.195,-4.66541 -20.2731,-11.61888"
       id="path217"
       style="stroke:#2b2d29;stroke-width:4.69829;stroke-opacity:1" /><path
       fill="none"
       stroke="#1f212b"
       stroke-linecap="round"
       stroke-linejoin="round"
       stroke-miterlimit="10"
       d="m -1033.4859,-749.79954 c 4.2566,-4.28014 10.1483,-6.93468 16.6648,-6.93468 12.972,0 23.49147,10.51948 23.49147,23.49145"
       id="path218"
       style="stroke:#2b2d29;stroke-width:4.69829;stroke-opacity:1" /><path
       fill="none"
       stroke="#1f212b"
       stroke-linecap="round"
       stroke-linejoin="round"
       stroke-miterlimit="10"
       d="m -1000.4569,-684.65774 c -3.4345,1.96858 -7.4186,3.09617 -11.6659,3.09617 -12.972,0 -23.4914,-10.51947 -23.4914,-23.49145"
       id="path219"
       style="stroke:#2b2d29;stroke-width:4.69829;stroke-opacity:1" /><path
       fill="none"
       stroke="#1f212b"
       stroke-linecap="round"
       stroke-linejoin="round"
       stroke-miterlimit="10"
       stroke-width="9.39658"
       d="m -937.42937,-841.72629 c -5.47351,19.7986 -10.95172,39.59249 -16.42522,59.39109"
       id="path220"
       style="stroke:#2b2d29;stroke-opacity:1" /><line
       x1="-993.98737"
       x2="-975.63116"
       y1="-790.78278"
       y2="-852.21759"
       fill="none"
       stroke="#1f212b"
       stroke-linecap="round"
       stroke-linejoin="round"
       stroke-miterlimit="10"
       stroke-width="9.39658"
       id="line220"
       style="stroke:#2b2d29;stroke-opacity:1" /><path
       fill="none"
       stroke="#1f212b"
       stroke-linecap="round"
       stroke-linejoin="round"
       stroke-miterlimit="10"
       d="m -975.90367,-853.41564 c 10.1718,-1.50815 26.3856,0.70005 39.97305,9.59861"
       id="path221"
       style="stroke:#2b2d29;stroke-width:4.69829;stroke-opacity:1" /><path
       fill="none"
       stroke="#1f212b"
       stroke-linecap="round"
       stroke-linejoin="round"
       stroke-miterlimit="10"
       d="m -1001.7584,-932.61002 c -0.6295,-2.34915 -0.9678,-4.81105 -0.9678,-7.35752 0,-15.57014 12.6196,-28.18975 28.18973,-28.18975"
       id="path222"
       style="stroke:#2b2d29;stroke-width:4.69829;stroke-opacity:1" /><path
       fill="none"
       stroke="#1f212b"
       stroke-linecap="round"
       stroke-linejoin="round"
       stroke-miterlimit="10"
       d="m -946.34673,-939.96754 c 0,15.57013 -12.6196,28.18974 -28.18974,28.18974 -4.46807,0 -8.68714,-1.03832 -12.44107,-2.88945"
       id="path223"
       style="stroke:#2b2d29;stroke-width:4.69829;stroke-opacity:1" /><path
       fill="none"
       stroke="#1f212b"
       stroke-linecap="round"
       stroke-linejoin="round"
       stroke-miterlimit="10"
       d="m -992.69536,-892.49132 c 5.34196,4.30833 8.76231,10.90473 8.76231,18.29984 0,12.97198 -10.51947,23.49145 -23.49145,23.49145 -12.972,0 -23.4915,-10.51947 -23.4915,-23.49145 0,-11.56249 8.3536,-21.17519 19.357,-23.12968"
       id="path224"
       style="stroke:#2b2d29;stroke-width:4.69829;stroke-opacity:1" /><path
       fill="none"
       stroke="#1f212b"
       stroke-linecap="round"
       stroke-linejoin="round"
       stroke-miterlimit="10"
       stroke-width="9.39658"
       d="m -988.79108,-855.75539 c -4.72178,4.54325 -11.13965,7.33873 -18.21062,7.33873 -14.5083,0 -26.2681,-11.75982 -26.2681,-26.26814 0,-6.43666 2.3116,-12.32831 6.1548,-16.89505"
       id="path225"
       style="stroke:#2b2d29;stroke-opacity:1" /><path
       fill="none"
       stroke="#1f212b"
       stroke-linecap="round"
       stroke-linejoin="round"
       stroke-miterlimit="10"
       d="m -1012.1228,-888.28635 c 0,0 0,-25.31909 10.6651,-44.88277 2.21762,-4.06402 4.89565,-7.88373 8.12807,-11.17253"
       id="path226"
       style="stroke:#2b2d29;stroke-width:4.69829;stroke-opacity:1" /><path
       fill="none"
       stroke="#1f212b"
       stroke-linecap="round"
       stroke-linejoin="round"
       stroke-miterlimit="10"
       d="m -992.69536,-892.48662 c 1.27793,-10.69331 5.13993,-28.26961 16.79169,-36.90977"
       id="path227"
       style="stroke:#2b2d29;stroke-width:4.69829;stroke-opacity:1" /></g></svg>
