<?xml version="1.0" encoding="UTF-8" standalone="no"?>
<!-- Created with Inkscape (http://www.inkscape.org/) -->

<svg
   width="1012.0249"
   height="1509.5249"
   viewBox="0 0 267.76492 399.39513"
   version="1.1"
   id="svg1"
   inkscape:version="1.3.2 (091e20e, 2023-11-25, custom)"
   sodipodi:docname="desing.svg"
   xml:space="preserve"
   xmlns:inkscape="http://www.inkscape.org/namespaces/inkscape"
   xmlns:sodipodi="http://sodipodi.sourceforge.net/DTD/sodipodi-0.dtd"
   xmlns="http://www.w3.org/2000/svg"
   xmlns:svg="http://www.w3.org/2000/svg"><sodipodi:namedview
     id="namedview1"
     pagecolor="#4c4c4c"
     bordercolor="#6f6f6f"
     borderopacity="1"
     inkscape:showpageshadow="false"
     inkscape:pageopacity="0.0"
     inkscape:pagecheckerboard="0"
     inkscape:deskcolor="#4c4c4c"
     inkscape:document-units="px"
     inkscape:zoom="0.29683753"
     inkscape:cx="1271.7395"
     inkscape:cy="-992.12522"
     inkscape:window-width="1920"
     inkscape:window-height="1009"
     inkscape:window-x="-8"
     inkscape:window-y="-8"
     inkscape:window-maximized="1"
     inkscape:current-layer="layer1" /><defs
     id="defs1" /><g
     inkscape:label="Capa 1"
     inkscape:groupmode="layer"
     id="layer1"
     transform="translate(624.4762,1039.2483)"><path
       fill="none"
       stroke="#1f212b"
       stroke-linecap="round"
       stroke-linejoin="round"
       stroke-miterlimit="10"
       d="m -396.97492,-949.91277 c 0,0 21.43758,-7.31925 19.09783,-15.03854 -1.59742,-5.06476 -21.91278,3.36531 -21.91278,3.36531 z"
       id="path75"
       style="stroke:#2b2d29;stroke-width:4.69829;stroke-opacity:1"
       sodipodi:nodetypes="cccc" /><path
       fill="none"
       stroke="#1f212b"
       stroke-linecap="round"
       stroke-linejoin="round"
       stroke-miterlimit="10"
       d="m -394.28668,-934.41607 c 0,0 35.22625,-0.59304 35.22625,5.58052 -0.5497,6.30041 -35.57492,5.33433 -35.57492,5.33433 0,0 16.78175,4.06225 16.78175,8.76054 0,4.69829 -17.82373,5.41256 -18.61774,5.00381 z"
       id="path76"
       style="stroke:#2b2d29;stroke-width:4.69829;stroke-opacity:1"
       sodipodi:nodetypes="cccscc" /><path
       fill="none"
       stroke="#1f212b"
       stroke-linecap="round"
       stroke-linejoin="round"
       stroke-miterlimit="10"
       d="m -402.718,-888.17163 c 0,0 27.19946,20.8226 29.5627,6.31898 1.51284,-9.27442 -26.98291,-20.09321 -26.98291,-20.09321 z"
       id="path77"
       style="stroke:#2b2d29;stroke-width:4.69829;stroke-opacity:1"
       sodipodi:nodetypes="cccc" /><path
       fill="none"
       stroke="#1f212b"
       stroke-linecap="round"
       stroke-linejoin="round"
       stroke-miterlimit="10"
       d="m -411.27493,-871.07174 c 0,0 14.24291,28.20551 23.3482,15.05969 5.98562,-8.63546 -17.6064,-30.10315 -17.6064,-30.10315 z"
       id="path78"
       style="stroke:#2b2d29;stroke-width:4.69829;stroke-opacity:1"
       sodipodi:nodetypes="cccc" /><path
       fill="none"
       stroke="#1f212b"
       stroke-linecap="round"
       stroke-linejoin="round"
       stroke-miterlimit="10"
       d="m -429.44212,-850.17896 c 0,0 9.30391,15.30922 14.0022,10.61093 4.69829,-4.6983 -3.32611,-20.9552 -3.32611,-20.9552 z"
       id="path79"
       style="stroke:#2b2d29;stroke-width:4.69829;stroke-opacity:1"
       sodipodi:nodetypes="cscc" /><path
       fill="none"
       stroke="#1f212b"
       stroke-linecap="round"
       stroke-linejoin="round"
       stroke-miterlimit="10"
       stroke-width="9.39658"
       d="m -542.35014,-849.90427 c 0.67656,0.22551 2.32566,0.77521 3.14316,1.01013 l -0.0141,0.0705 10.05434,2.72501"
       id="path81"
       style="stroke:#2b2d29;stroke-opacity:1" /><path
       fill="none"
       stroke="#1f212b"
       stroke-linecap="round"
       stroke-linejoin="round"
       stroke-miterlimit="10"
       stroke-width="9.39658"
       d="m -490.8005,-835.69195 3.44385,0.93496 c 0.53091,0.15035 1.06181,0.296 1.59742,0.43225 l 0.90207,0.24431 0.0141,-0.0611 c 1.83703,0.43694 3.67876,0.86449 5.58156,1.1135 39.65358,5.24799 77.2399,-32.34773 83.95376,-83.97255 6.15476,-47.33527 -15.82385,-89.92992 -50.08378,-100.74072 l 0.009,-0.047 -0.73763,-0.202 c -1.01014,-0.3054 -2.02967,-0.5826 -3.05859,-0.8316 l -47.88968,-12.9814 c -1.53634,-0.4886 -3.09617,-0.9115 -4.68419,-1.2685 l -1.74307,-0.3477 v 0 c -1.07591,-0.2067 -2.12362,-0.498 -3.22302,-0.6437 -39.61599,-5.248 -77.16942,32.3478 -83.87388,83.97256 -3.11027,23.96598 0.97254,46.7245 10.20938,64.76124"
       id="path82"
       style="stroke:#2b2d29;stroke-opacity:1" /><path
       fill="none"
       stroke="#1f212b"
       stroke-linecap="round"
       stroke-linejoin="round"
       stroke-miterlimit="10"
       d="m -446.14794,-950.49467 c 0.19263,6.29571 -0.11746,12.78405 -0.97725,19.40394 -6.70446,51.62481 -44.40354,87.28484 -84.01953,82.03685 m 77.38085,-138.19082 c 2.38673,5.7883 4.26135,11.98534 5.55807,18.50187 m -58.5125,-63.02287 c 19.80799,2.6216 36.38356,14.8842 47.16613,32.94441"
       id="path83"
       style="stroke:#2b2d29;stroke-width:4.69829;stroke-opacity:1" /><path
       fill="none"
       stroke="#1f212b"
       stroke-linecap="round"
       stroke-linejoin="round"
       stroke-miterlimit="10"
       d="m -584.57837,-764.34371 c 5.51109,0 10.62283,1.72428 14.81371,4.66541"
       id="path84"
       style="stroke:#2b2d29;stroke-width:4.69829;stroke-opacity:1" /><path
       fill="none"
       stroke="#1f212b"
       stroke-linecap="round"
       stroke-linejoin="round"
       stroke-miterlimit="10"
       d="m -619.81555,-700.46575 c 0,-14.27341 11.56719,-25.8406 25.8406,-25.8406"
       id="path85"
       style="stroke:#2b2d29;stroke-width:4.69829;stroke-opacity:1" /><path
       fill="none"
       stroke="#1f212b"
       stroke-linecap="round"
       stroke-linejoin="round"
       stroke-miterlimit="10"
       stroke-width="9.39658"
       d="m -469.43267,-722.07319 c 0,-11.91016 -8.06697,-21.90813 -19.02338,-24.90094 0.13625,-1.0806 0.23022,-2.17061 0.23022,-3.2888 0,-14.27341 -11.56719,-25.8406 -25.8406,-25.8406 -7.05213,0 -13.43711,2.83307 -18.09782,7.40921 -3.66466,-9.81003 -13.09883,-16.80579 -24.18679,-16.80579 -11.91017,0 -21.90813,8.06697 -24.90094,19.02338 -1.08061,-0.13625 -2.17061,-0.23022 -3.28881,-0.23022 -14.2734,0 -25.84059,11.56719 -25.84059,25.8406 0,5.44532 1.69138,10.48658 4.56673,14.65397 -8.28778,4.30363 -13.96331,12.94849 -13.96331,22.93235 0,14.27341 11.56719,25.8406 25.84059,25.8406 2.98812,0 5.84468,-0.53091 8.5133,-1.46587 -0.93026,2.66863 -1.46586,5.52519 -1.46586,8.51331 0,14.2734 11.56719,25.84059 25.8406,25.84059 12.6384,0 23.14377,-9.08179 25.38486,-21.07183 4.61842,7.02864 12.56323,11.67525 21.59804,11.67525 14.27341,0 25.8406,-11.56719 25.8406,-25.84059 0,-6.27222 -2.23639,-12.02293 -5.95744,-16.5004 13.7613,-0.57319 24.7506,-11.88198 24.7506,-25.78422 z"
       id="path86"
       style="stroke:#2b2d29;stroke-opacity:1" /><path
       fill="none"
       stroke="#1f212b"
       stroke-linecap="round"
       stroke-linejoin="round"
       stroke-miterlimit="10"
       d="m -514.93092,-656.01053 c -13.24448,0 -23.98477,-10.74029 -23.98477,-23.98477"
       id="path87"
       style="stroke:#2b2d29;stroke-width:4.69829;stroke-opacity:1" /><path
       fill="none"
       stroke="#1f212b"
       stroke-linecap="round"
       stroke-linejoin="round"
       stroke-miterlimit="10"
       d="m -493.37046,-698.61462 c -7.16489,0 -10.7309,-1.71488 -14.5694,-4.84864"
       id="path88"
       style="stroke:#2b2d29;stroke-width:4.69829;stroke-opacity:1" /><path
       fill="none"
       stroke="#1f212b"
       stroke-linecap="round"
       stroke-linejoin="round"
       stroke-miterlimit="10"
       d="m -490.33067,-751.30125 c 0,7.3998 -3.3029,14.02909 -8.5133,18.49247"
       id="path89"
       style="stroke:#2b2d29;stroke-width:4.69829;stroke-opacity:1" /><path
       fill="none"
       stroke="#1f212b"
       stroke-linecap="round"
       stroke-linejoin="round"
       stroke-miterlimit="10"
       d="m -570.4835,-703.31761 c -8.64016,0 -16.19501,-4.66541 -20.27312,-11.61888"
       id="path90"
       style="stroke:#2b2d29;stroke-width:4.69829;stroke-opacity:1" /><path
       fill="none"
       stroke="#1f212b"
       stroke-linecap="round"
       stroke-linejoin="round"
       stroke-miterlimit="10"
       d="m -587.14834,-743.36584 c 4.25665,-4.28014 10.14831,-6.93468 16.66484,-6.93468 12.97198,0 23.49145,10.51948 23.49145,23.49145"
       id="path91"
       style="stroke:#2b2d29;stroke-width:4.69829;stroke-opacity:1" /><path
       fill="none"
       stroke="#1f212b"
       stroke-linecap="round"
       stroke-linejoin="round"
       stroke-miterlimit="10"
       d="m -554.11936,-678.22404 c -3.43445,1.96858 -7.4186,3.09617 -11.66585,3.09617 -12.97198,0 -23.49145,-10.51947 -23.49145,-23.49145"
       id="path92"
       style="stroke:#2b2d29;stroke-width:4.69829;stroke-opacity:1" /><path
       fill="none"
       stroke="#1f212b"
       stroke-linecap="round"
       stroke-linejoin="round"
       stroke-miterlimit="10"
       stroke-width="9.39658"
       d="m -491.09179,-835.29259 c -5.47351,19.7986 -10.95172,39.59249 -16.42522,59.39109"
       id="path93"
       style="stroke:#2b2d29;stroke-opacity:1" /><line
       x1="-547.64978"
       x2="-529.29358"
       y1="-784.34906"
       y2="-845.78387"
       fill="none"
       stroke="#1f212b"
       stroke-linecap="round"
       stroke-linejoin="round"
       stroke-miterlimit="10"
       stroke-width="9.39658"
       id="line93"
       style="stroke:#2b2d29;stroke-opacity:1" /><path
       fill="none"
       stroke="#1f212b"
       stroke-linecap="round"
       stroke-linejoin="round"
       stroke-miterlimit="10"
       d="m -529.56609,-846.98194 c 10.1718,-1.50815 26.3856,0.70005 39.97305,9.59861"
       id="path94"
       style="stroke:#2b2d29;stroke-width:4.69829;stroke-opacity:1" /><path
       fill="none"
       stroke="#1f212b"
       stroke-linecap="round"
       stroke-linejoin="round"
       stroke-miterlimit="10"
       d="m -555.42078,-926.17632 c -0.62957,-2.34915 -0.96785,-4.81105 -0.96785,-7.35752 0,-15.57014 12.61961,-28.18975 28.18974,-28.18975"
       id="path95"
       style="stroke:#2b2d29;stroke-width:4.69829;stroke-opacity:1" /><path
       fill="none"
       stroke="#1f212b"
       stroke-linecap="round"
       stroke-linejoin="round"
       stroke-miterlimit="10"
       d="m -500.00915,-933.53384 c 0,15.57013 -12.6196,28.18974 -28.18974,28.18974 -4.46807,0 -8.68714,-1.03832 -12.44107,-2.88945"
       id="path96"
       style="stroke:#2b2d29;stroke-width:4.69829;stroke-opacity:1" /><path
       fill="none"
       stroke="#1f212b"
       stroke-linecap="round"
       stroke-linejoin="round"
       stroke-miterlimit="10"
       d="m -546.35778,-886.05762 c 5.34196,4.30833 8.76231,10.90473 8.76231,18.29984 0,12.97198 -10.51947,23.49145 -23.49145,23.49145 -12.97198,0 -23.49145,-10.51947 -23.49145,-23.49145 0,-11.56249 8.35356,-21.17519 19.35695,-23.12968"
       id="path97"
       style="stroke:#2b2d29;stroke-width:4.69829;stroke-opacity:1" /><path
       fill="none"
       stroke="#1f212b"
       stroke-linecap="round"
       stroke-linejoin="round"
       stroke-miterlimit="10"
       stroke-width="9.39658"
       d="m -542.4535,-849.32169 c -4.72178,4.54325 -11.13965,7.33873 -18.21057,7.33873 -14.50833,0 -26.26815,-11.75982 -26.26815,-26.26814 0,-6.43666 2.31156,-12.32831 6.15476,-16.89505"
       id="path98"
       style="stroke:#2b2d29;stroke-opacity:1" /><path
       fill="none"
       stroke="#1f212b"
       stroke-linecap="round"
       stroke-linejoin="round"
       stroke-miterlimit="10"
       d="m -565.78521,-881.85265 c 0,0 0,-25.31909 10.66512,-44.88277 2.21759,-4.06402 4.89562,-7.88373 8.12804,-11.17253"
       id="path99"
       style="stroke:#2b2d29;stroke-width:4.69829;stroke-opacity:1" /><path
       fill="none"
       stroke="#1f212b"
       stroke-linecap="round"
       stroke-linejoin="round"
       stroke-miterlimit="10"
       d="m -546.35778,-886.05292 c 1.27793,-10.69331 5.13993,-28.26961 16.79169,-36.90977"
       id="path100"
       style="stroke:#2b2d29;stroke-width:4.69829;stroke-opacity:1" /></g></svg>
